SplineFontDB: 3.2
FontName: ATM290-Regular
FullName: ATM290-Regular
FamilyName: ATM 290
Weight: Book
Version: 1.001
ItalicAngle: -11
UnderlinePosition: -271
UnderlineWidth: 102
Ascent: 1600
Descent: 400
InvalidEm: 0
sfntRevision: 0x00010042
LayerCount: 2
Layer: 0 1 "Back" 1
Layer: 1 1 "Fore" 0
XUID: [1021 192 2086997156 14303]
StyleMap: 0x0040
FSType: 8
OS2Version: 3
OS2_WeightWidthSlopeOnly: 0
OS2_UseTypoMetrics: 0
CreationTime: 1537361078
ModificationTime: 1545534995
PfmFamily: 17
TTFWeight: 400
TTFWidth: 5
LineGap: 0
VLineGap: 0
Panose: 2 0 5 5 0 0 0 2 0 2
OS2TypoAscent: 2000
OS2TypoAOffset: 0
OS2TypoDescent: -1320
OS2TypoDOffset: 0
OS2TypoLinegap: 0
OS2WinAscent: 2000
OS2WinAOffset: 0
OS2WinDescent: 744
OS2WinDOffset: 0
HheadAscent: 2000
HheadAOffset: 0
HheadDescent: -1320
HheadDOffset: 0
OS2SubXSize: 1400
OS2SubYSize: 1300
OS2SubXOff: 0
OS2SubYOff: 0
OS2SupXSize: 1400
OS2SupYSize: 1300
OS2SupXOff: 0
OS2SupYOff: 0
OS2StrikeYSize: 100
OS2StrikeYPos: 518
OS2CapHeight: 1586
OS2XHeight: -200
OS2Vendor: '    '
OS2CodePages: 00000001.00000000
OS2UnicodeRanges: 00100003.00000000.00000000.00000000
Lookup: 4 0 0 "'akhn' Akhand in Tamil2 lookup 0" { "'akhn' Akhand in Tamil2 lookup 0 subtable"  } ['akhn' ('tml2' <'dflt' > ) ]
Lookup: 4 0 0 "'akhn' Akhand in Tamil lookup 1" { "'akhn' Akhand in Tamil lookup 1 subtable"  } ['akhn' ('taml' <'dflt' > ) ]
Lookup: 4 0 0 "'half' Half Forms in Tamil lookup 2" { "'half' Half Forms in Tamil lookup 2 subtable"  } ['half' ('taml' <'dflt' > ) ]
Lookup: 4 0 0 "'haln' Halant Forms in Tamil2 lookup 3" { "'haln' Halant Forms in Tamil2 lookup 3 subtable"  } ['haln' ('tml2' <'dflt' > ) ]
Lookup: 4 0 0 "'haln' Halant Forms in Tamil lookup 4" { "'haln' Halant Forms in Tamil lookup 4 subtable"  } ['haln' ('taml' <'dflt' > ) ]
Lookup: 4 0 0 "'abvs' Above Base Substitutions lookup 5" { "'abvs' Above Base Substitutions lookup 5 subtable"  } ['abvs' ('taml' <'dflt' > 'tml2' <'dflt' > ) ]

StartChar: exclam
Encoding: 33 33 4
Width: 350
GlyphClass: 2
Flags: W
LayerCount: 2
Fore
SplineSet
254 196 m 1,0,-1
 110 196 l 1,1,-1
 110 848 l 1,2,-1
 254 848 l 1,3,-1
 254 196 l 1,0,-1
286 38 m 0,4,5
 286 -8 286 -8 255 -41 c 128,-1,6
 224 -74 224 -74 178 -74 c 256,7,8
 132 -74 132 -74 98 -40 c 0,9,10
 64 -10 64 -10 64 38 c 0,11,12
 64 84 64 84 97 117 c 128,-1,13
 130 150 130 150 176 150 c 0,14,15
 218 150 218 150 252 116 c 0,16,17
 286 86 286 86 286 38 c 0,4,5
EndSplineSet
EndChar

StartChar: quotedbl
Encoding: 34 34 5
Width: 606
GlyphClass: 2
Flags: W
LayerCount: 2
Fore
SplineSet
109 647 m 1,0,-1
 63 912 l 1,1,-1
 63 1140 l 1,2,-1
 257 1140 l 1,3,-1
 257 912 l 1,4,-1
 214 647 l 1,5,-1
 109 647 l 1,0,-1
423 647 m 1,6,-1
 378 912 l 1,7,-1
 378 1140 l 1,8,-1
 572 1140 l 1,9,-1
 572 912 l 1,10,-1
 527 647 l 1,11,-1
 423 647 l 1,6,-1
EndSplineSet
EndChar

StartChar: numbersign
Encoding: 35 35 6
Width: 1203
GlyphClass: 2
Flags: W
LayerCount: 2
Fore
SplineSet
179 22 m 1,0,-1
 264 356 l 1,1,-1
 103 356 l 1,2,-1
 103 473 l 1,3,-1
 288 473 l 1,4,-1
 358 761 l 1,5,-1
 103 761 l 1,6,-1
 103 876 l 1,7,-1
 386 876 l 1,8,-1
 471 1218 l 1,9,-1
 609 1218 l 1,10,-1
 526 876 l 1,11,-1
 817 876 l 1,12,-1
 903 1218 l 1,13,-1
 1041 1218 l 1,14,-1
 962 876 l 1,15,-1
 1124 876 l 1,16,-1
 1124 761 l 1,17,-1
 932 761 l 1,18,-1
 861 473 l 1,19,-1
 1124 473 l 1,20,-1
 1124 356 l 1,21,-1
 832 356 l 1,22,-1
 755 22 l 1,23,-1
 611 22 l 1,24,-1
 688 356 l 1,25,-1
 401 356 l 1,26,-1
 322 22 l 1,27,-1
 179 22 l 1,0,-1
435 473 m 1,28,-1
 724 473 l 1,29,-1
 792 761 l 1,30,-1
 501 761 l 1,31,-1
 435 473 l 1,28,-1
EndSplineSet
EndChar

StartChar: percent
Encoding: 37 37 7
Width: 1214
GlyphClass: 2
Flags: W
LayerCount: 2
Fore
SplineSet
556 752 m 0,0,1
 556 646 556 646 483 570 c 128,-1,2
 410 494 410 494 306 494 c 0,3,4
 204 494 204 494 131 569 c 128,-1,5
 58 644 58 644 58 748 c 0,6,7
 58 848 58 848 130 925 c 128,-1,8
 202 1002 202 1002 304 1002 c 256,9,10
 406 1002 406 1002 481 928 c 128,-1,11
 556 854 556 854 556 752 c 0,0,1
1144 904 m 1,12,-1
 168 -34 l 1,13,-1
 72 54 l 1,14,-1
 1048 1000 l 1,15,-1
 1144 904 l 1,12,-1
1150 178 m 0,16,17
 1150 72 1150 72 1077 -4 c 128,-1,18
 1004 -80 1004 -80 900 -80 c 0,19,20
 798 -80 798 -80 725 -6 c 128,-1,21
 652 68 652 68 652 174 c 0,22,23
 652 274 652 274 724 351 c 128,-1,24
 796 428 796 428 898 428 c 256,25,26
 1000 428 1000 428 1075 354 c 128,-1,27
 1150 280 1150 280 1150 178 c 0,16,17
400 752 m 0,28,29
 400 788 400 788 375 816 c 128,-1,30
 350 844 350 844 310 844 c 256,31,32
 270 844 270 844 242 816 c 128,-1,33
 214 788 214 788 214 748 c 256,34,35
 214 708 214 708 242 680 c 128,-1,36
 270 652 270 652 310 652 c 0,37,38
 344 652 344 652 374 682 c 1,39,40
 400 714 400 714 400 752 c 0,28,29
994 178 m 0,41,42
 994 214 994 214 969 242 c 128,-1,43
 944 270 944 270 904 270 c 256,44,45
 864 270 864 270 836 242 c 128,-1,46
 808 214 808 214 808 174 c 256,47,48
 808 134 808 134 836 106 c 128,-1,49
 864 78 864 78 904 78 c 0,50,51
 938 78 938 78 968 108 c 1,52,53
 994 140 994 140 994 178 c 0,41,42
EndSplineSet
EndChar

StartChar: ampersand
Encoding: 38 38 8
Width: 1076
GlyphClass: 2
Flags: W
LayerCount: 2
Fore
SplineSet
1012 638 m 1,0,-1
 806 268 l 1,1,-1
 980 66 l 1,2,-1
 848 -54 l 1,3,-1
 708 104 l 1,4,5
 580 0 580 0 422 0 c 0,6,7
 278 0 278 0 171 92 c 128,-1,8
 64 184 64 184 64 334 c 0,9,10
 64 524 64 524 252 622 c 1,11,-1
 200 694 l 1,12,13
 168 754 168 754 168 824 c 0,14,15
 168 932 168 932 247 1005 c 128,-1,16
 326 1078 326 1078 432 1078 c 0,17,18
 540 1078 540 1078 615 1004 c 128,-1,19
 690 930 690 930 690 822 c 0,20,21
 690 658 690 658 528 570 c 1,22,-1
 676 406 l 1,23,-1
 808 638 l 1,24,-1
 1012 638 l 1,0,-1
514 814 m 0,25,26
 514 848 514 848 489 875 c 128,-1,27
 464 902 464 902 430 902 c 256,28,29
 396 902 396 902 366 878 c 1,30,31
 340 852 340 852 340 818 c 0,32,33
 340 770 340 770 416 702 c 1,34,35
 470 732 470 732 486 748 c 0,36,37
 514 772 514 772 514 814 c 0,25,26
582 246 m 1,38,-1
 366 478 l 1,39,40
 246 414 246 414 246 326 c 0,41,42
 246 266 246 266 292 222 c 1,43,44
 342 182 342 182 404 182 c 0,45,46
 530 182 530 182 582 246 c 1,38,-1
EndSplineSet
EndChar

StartChar: quotesingle
Encoding: 39 39 9
Width: 368
GlyphClass: 2
Flags: W
LayerCount: 2
Fore
SplineSet
137 647 m 1,0,-1
 91 912 l 1,1,-1
 91 1140 l 1,2,-1
 285 1140 l 1,3,-1
 285 912 l 1,4,-1
 242 647 l 1,5,-1
 137 647 l 1,0,-1
EndSplineSet
EndChar

StartChar: parenleft
Encoding: 40 40 10
Width: 470
GlyphClass: 2
Flags: W
LayerCount: 2
Fore
SplineSet
406 1138 m 1,0,1
 240 1120 240 1120 240 942 c 2,2,-1
 240 124 l 2,3,4
 240 10 240 10 273 -50 c 128,-1,5
 306 -110 306 -110 402 -130 c 1,6,-1
 402 -272 l 1,7,8
 250 -272 250 -272 157 -179 c 128,-1,9
 64 -86 64 -86 64 76 c 2,10,-1
 64 982 l 2,11,12
 64 1278 64 1278 406 1278 c 1,13,-1
 406 1138 l 1,0,1
EndSplineSet
EndChar

StartChar: parenright
Encoding: 41 41 11
Width: 464
GlyphClass: 2
Flags: W
LayerCount: 2
Fore
SplineSet
400 72 m 2,0,1
 400 -112 400 -112 306 -194 c 0,2,3
 266 -230 266 -230 205 -251 c 128,-1,4
 144 -272 144 -272 62 -272 c 1,5,-1
 62 -126 l 1,6,7
 164 -114 164 -114 194 -64 c 0,8,9
 210 -38 210 -38 218 4 c 128,-1,10
 226 46 226 46 226 120 c 2,11,-1
 226 956 l 2,12,13
 226 1042 226 1042 184 1090 c 128,-1,14
 142 1138 142 1138 66 1138 c 1,15,-1
 66 1280 l 1,16,17
 212 1280 212 1280 306 1188 c 128,-1,18
 400 1096 400 1096 400 960 c 2,19,-1
 400 72 l 2,0,1
EndSplineSet
EndChar

StartChar: asterisk
Encoding: 42 42 12
Width: 662
GlyphClass: 2
Flags: W
LayerCount: 2
Fore
SplineSet
460 890 m 1,0,-1
 574 794 l 1,1,-1
 434 684 l 1,2,-1
 332 802 l 1,3,-1
 240 680 l 1,4,-1
 90 786 l 1,5,-1
 204 892 l 1,6,-1
 54 940 l 1,7,-1
 118 1108 l 1,8,-1
 244 1046 l 1,9,-1
 244 1204 l 1,10,-1
 418 1204 l 1,11,-1
 418 1042 l 1,12,-1
 550 1098 l 1,13,-1
 606 934 l 1,14,-1
 460 890 l 1,0,-1
EndSplineSet
EndChar

StartChar: plus
Encoding: 43 43 13
Width: 886
GlyphClass: 2
Flags: W
LayerCount: 2
Fore
SplineSet
822 302 m 1,0,-1
 516 302 l 1,1,-1
 516 0 l 1,2,-1
 352 0 l 1,3,-1
 352 302 l 1,4,-1
 64 302 l 1,5,-1
 64 472 l 1,6,-1
 354 472 l 1,7,-1
 354 766 l 1,8,-1
 520 766 l 1,9,-1
 520 472 l 1,10,-1
 822 472 l 1,11,-1
 822 302 l 1,0,-1
EndSplineSet
EndChar

StartChar: comma
Encoding: 44 44 14
Width: 376
GlyphClass: 2
Flags: W
LayerCount: 2
Fore
SplineSet
322 144 m 0,0,1
 322 -78 322 -78 266 -140 c 0,2,3
 218 -194 218 -194 138 -194 c 0,4,5
 122 -192 122 -192 114 -192 c 1,6,-1
 120 -100 l 1,7,8
 164 -88 164 -88 174 -80 c 0,9,10
 210 -58 210 -58 210 0 c 1,11,12
 162 0 162 0 131 7 c 128,-1,13
 100 14 100 14 78 34 c 0,14,15
 32 76 32 76 32 148 c 0,16,17
 32 208 32 208 74 250 c 128,-1,18
 116 292 116 292 178 292 c 0,19,20
 238 292 238 292 280 251 c 128,-1,21
 322 210 322 210 322 144 c 0,0,1
EndSplineSet
EndChar

StartChar: hyphen
Encoding: 45 45 15
Width: 1000
GlyphClass: 2
Flags: W
LayerCount: 2
Fore
SplineSet
936 296 m 1,0,-1
 64 296 l 1,1,-1
 64 476 l 1,2,-1
 936 476 l 1,3,-1
 936 296 l 1,0,-1
EndSplineSet
EndChar

StartChar: period
Encoding: 46 46 16
Width: 302
GlyphClass: 2
Flags: W
LayerCount: 2
Fore
SplineSet
248 110 m 256,0,1
 248 64 248 64 216 32 c 128,-1,2
 184 0 184 0 142 0 c 0,3,4
 96 0 96 0 62 28 c 1,5,6
 30 60 30 60 30 106 c 256,7,8
 30 152 30 152 60 188 c 1,9,10
 92 220 92 220 138 220 c 256,11,12
 184 220 184 220 216 188 c 128,-1,13
 248 156 248 156 248 110 c 256,0,1
EndSplineSet
EndChar

StartChar: slash
Encoding: 47 47 17
Width: 536
GlyphClass: 2
Flags: W
LayerCount: 2
Fore
SplineSet
544 1188 m 1,0,-1
 168 -112 l 1,1,-1
 42 -82 l 1,2,-1
 414 1224 l 1,3,-1
 544 1188 l 1,0,-1
EndSplineSet
EndChar

StartChar: zero
Encoding: 48 48 18
Width: 818
GlyphClass: 2
Flags: W
LayerCount: 2
Fore
SplineSet
756 320 m 2,0,1
 756 186 756 186 644 88 c 0,2,3
 592 44 592 44 538 22 c 128,-1,4
 484 0 484 0 420 0 c 0,5,6
 286 0 286 0 175 91 c 128,-1,7
 64 182 64 182 64 292 c 2,8,-1
 64 766 l 2,9,10
 64 892 64 892 166 984 c 128,-1,11
 268 1076 268 1076 402 1076 c 0,12,13
 554 1076 554 1076 655 985 c 128,-1,14
 756 894 756 894 756 754 c 2,15,-1
 756 320 l 2,0,1
568 348 m 2,16,-1
 568 722 l 2,17,18
 568 790 568 790 526 844 c 128,-1,19
 484 898 484 898 416 898 c 0,20,21
 252 898 252 898 252 728 c 2,22,-1
 252 340 l 2,23,24
 252 272 252 272 295 225 c 128,-1,25
 338 178 338 178 412 178 c 0,26,27
 484 178 484 178 526 231 c 128,-1,28
 568 284 568 284 568 348 c 2,16,-1
EndSplineSet
EndChar

StartChar: one
Encoding: 49 49 19
Width: 422
GlyphClass: 2
Flags: W
LayerCount: 2
Fore
SplineSet
356 0 m 1,0,-1
 170 0 l 1,1,-1
 170 862 l 1,2,-1
 40 862 l 1,3,-1
 40 1040 l 1,4,-1
 356 1040 l 1,5,-1
 356 0 l 1,0,-1
EndSplineSet
EndChar

StartChar: two
Encoding: 50 50 20
Width: 770
GlyphClass: 2
Flags: W
LayerCount: 2
Fore
SplineSet
730 720 m 0,0,1
 730 606 730 606 650 494 c 0,2,3
 596 422 596 422 482 326 c 1,4,-1
 318 176 l 1,5,-1
 728 176 l 1,6,-1
 728 0 l 1,7,-1
 50 0 l 1,8,-1
 50 176 l 1,9,-1
 372 472 l 2,10,11
 452 546 452 546 490 594 c 0,12,13
 540 662 540 662 540 730 c 0,14,15
 540 800 540 800 498 842 c 128,-1,16
 456 884 456 884 386 884 c 0,17,18
 308 884 308 884 266 824 c 0,19,20
 248 794 248 794 241 762 c 128,-1,21
 234 730 234 730 234 684 c 1,22,-1
 42 684 l 1,23,24
 40 698 40 698 40 724 c 0,25,26
 40 848 40 848 128 948 c 0,27,28
 232 1064 232 1064 382 1064 c 0,29,30
 520 1064 520 1064 625 963 c 128,-1,31
 730 862 730 862 730 720 c 0,0,1
EndSplineSet
EndChar

StartChar: three
Encoding: 51 51 21
Width: 782
GlyphClass: 2
Flags: W
LayerCount: 2
Fore
SplineSet
742 344 m 0,0,1
 742 206 742 206 639 103 c 128,-1,2
 536 0 536 0 392 0 c 0,3,4
 254 0 254 0 156 89 c 128,-1,5
 58 178 58 178 40 336 c 1,6,-1
 234 336 l 1,7,8
 234 268 234 268 282 220 c 0,9,10
 330 176 330 176 396 176 c 256,11,12
 462 176 462 176 509 225 c 128,-1,13
 556 274 556 274 556 336 c 0,14,15
 556 514 556 514 324 514 c 1,16,-1
 324 692 l 1,17,-1
 378 692 l 2,18,19
 418 692 418 692 453 722 c 128,-1,20
 488 752 488 752 488 804 c 0,21,22
 488 896 488 896 400 896 c 0,23,24
 316 896 316 896 304 804 c 1,25,-1
 118 804 l 1,26,27
 118 868 118 868 143 920 c 128,-1,28
 168 972 168 972 216 1012 c 0,29,30
 290 1076 290 1076 396 1076 c 0,31,32
 500 1076 500 1076 585 994 c 128,-1,33
 670 912 670 912 670 792 c 0,34,35
 670 684 670 684 582 608 c 1,36,37
 634 590 634 590 680 536 c 0,38,39
 742 458 742 458 742 344 c 0,0,1
EndSplineSet
EndChar

StartChar: four
Encoding: 52 52 22
Width: 804
GlyphClass: 2
Flags: W
LayerCount: 2
Fore
SplineSet
778 156 m 1,0,-1
 668 156 l 1,1,-1
 668 0 l 1,2,-1
 482 0 l 1,3,-1
 482 158 l 1,4,-1
 32 158 l 1,5,-1
 32 312 l 1,6,-1
 514 1042 l 1,7,-1
 674 1042 l 1,8,-1
 674 334 l 1,9,-1
 778 334 l 1,10,-1
 778 156 l 1,0,-1
484 338 m 1,11,-1
 484 724 l 1,12,-1
 236 338 l 1,13,-1
 484 338 l 1,11,-1
EndSplineSet
EndChar

StartChar: five
Encoding: 53 53 23
Width: 788
GlyphClass: 2
Flags: W
LayerCount: 2
Fore
SplineSet
748 364 m 0,0,1
 748 216 748 216 642 108 c 128,-1,2
 536 0 536 0 390 0 c 0,3,4
 252 0 252 0 146 100 c 128,-1,5
 40 200 40 200 40 332 c 1,6,-1
 228 332 l 1,7,8
 234 268 234 268 277 223 c 128,-1,9
 320 178 320 178 388 178 c 0,10,11
 458 178 458 178 510 232 c 0,12,13
 558 286 558 286 558 362 c 0,14,15
 558 426 558 426 510 484 c 0,16,17
 484 512 484 512 457 526 c 128,-1,18
 430 540 430 540 394 540 c 0,19,20
 338 540 338 540 304 518 c 0,21,22
 288 510 288 510 250 472 c 1,23,-1
 84 514 l 1,24,-1
 186 1056 l 1,25,-1
 650 1056 l 1,26,-1
 650 878 l 1,27,-1
 328 878 l 1,28,-1
 290 690 l 1,29,30
 350 718 350 718 422 718 c 0,31,32
 554 718 554 718 651 612 c 128,-1,33
 748 506 748 506 748 364 c 0,0,1
EndSplineSet
EndChar

StartChar: six
Encoding: 54 54 24
Width: 836
GlyphClass: 2
Flags: W
LayerCount: 2
Fore
SplineSet
794 368 m 0,0,1
 794 214 794 214 690 107 c 128,-1,2
 586 0 586 0 424 0 c 0,3,4
 268 0 268 0 154 120 c 128,-1,5
 40 240 40 240 40 404 c 2,6,-1
 40 694 l 2,7,8
 40 884 40 884 150 992 c 0,9,10
 248 1084 248 1084 416 1084 c 0,11,12
 554 1084 554 1084 654 992 c 0,13,14
 704 948 704 948 733 889 c 128,-1,15
 762 830 762 830 762 764 c 1,16,-1
 564 772 l 1,17,18
 556 826 556 826 508 864 c 128,-1,19
 460 902 460 902 404 902 c 0,20,21
 232 902 232 902 232 676 c 1,22,23
 318 752 318 752 432 752 c 0,24,25
 582 752 582 752 688 634 c 128,-1,26
 794 516 794 516 794 368 c 0,0,1
608 360 m 0,27,28
 608 436 608 436 550 495 c 128,-1,29
 492 554 492 554 416 554 c 0,30,31
 348 554 348 554 297 500 c 128,-1,32
 246 446 246 446 246 376 c 0,33,34
 246 298 246 298 303 243 c 128,-1,35
 360 188 360 188 442 188 c 0,36,37
 508 188 508 188 558 238 c 128,-1,38
 608 288 608 288 608 360 c 0,27,28
EndSplineSet
EndChar

StartChar: seven
Encoding: 55 55 25
Width: 660
GlyphClass: 2
Flags: W
LayerCount: 2
Fore
SplineSet
636 850 m 1,0,-1
 256 0 l 1,1,-1
 44 0 l 1,2,-1
 444 856 l 1,3,-1
 30 856 l 1,4,-1
 30 1040 l 1,5,-1
 636 1040 l 1,6,-1
 636 850 l 1,0,-1
EndSplineSet
EndChar

StartChar: eight
Encoding: 56 56 26
Width: 776
GlyphClass: 2
Flags: W
LayerCount: 2
Fore
SplineSet
736 338 m 0,0,1
 736 200 736 200 633 100 c 128,-1,2
 530 0 530 0 390 0 c 0,3,4
 316 0 316 0 256 22 c 128,-1,5
 196 44 196 44 142 94 c 0,6,7
 40 188 40 188 40 338 c 0,8,9
 40 516 40 516 200 602 c 1,10,11
 160 630 160 630 134 684 c 0,12,13
 128 698 128 698 118 729 c 128,-1,14
 108 760 108 760 108 788 c 0,15,16
 108 908 108 908 187 995 c 128,-1,17
 266 1082 266 1082 390 1082 c 0,18,19
 512 1082 512 1082 595 997 c 128,-1,20
 678 912 678 912 678 794 c 0,21,22
 678 670 678 670 582 598 c 1,23,24
 646 574 646 574 691 499 c 128,-1,25
 736 424 736 424 736 338 c 0,0,1
502 788 m 0,26,27
 502 836 502 836 471 869 c 128,-1,28
 440 902 440 902 392 902 c 0,29,30
 352 902 352 902 316 872 c 0,31,32
 286 842 286 842 286 794 c 0,33,34
 286 750 286 750 316 714 c 1,35,36
 348 682 348 682 388 682 c 0,37,38
 432 682 432 682 467 712 c 128,-1,39
 502 742 502 742 502 788 c 0,26,27
548 336 m 0,40,41
 548 396 548 396 499 447 c 128,-1,42
 450 498 450 498 388 498 c 0,43,44
 320 498 320 498 275 451 c 128,-1,45
 230 404 230 404 230 336 c 0,46,47
 230 274 230 274 274 224 c 1,48,49
 320 178 320 178 386 178 c 0,50,51
 454 178 454 178 501 223 c 128,-1,52
 548 268 548 268 548 336 c 0,40,41
EndSplineSet
EndChar

StartChar: nine
Encoding: 57 57 27
Width: 824
GlyphClass: 2
Flags: W
LayerCount: 2
Fore
SplineSet
784 352 m 2,0,1
 784 190 784 190 678 92 c 0,2,3
 580 0 580 0 428 0 c 0,4,5
 282 0 282 0 180 99 c 128,-1,6
 78 198 78 198 78 350 c 1,7,-1
 268 350 l 1,8,9
 286 182 286 182 436 182 c 0,10,11
 514 182 514 182 558 246 c 0,12,13
 576 276 576 276 585 317 c 128,-1,14
 594 358 594 358 594 412 c 1,15,16
 496 342 496 342 402 342 c 0,17,18
 244 342 244 342 138 468 c 0,19,20
 40 584 40 584 40 732 c 0,21,22
 40 878 40 878 147 985 c 128,-1,23
 254 1092 254 1092 402 1092 c 0,24,25
 564 1092 564 1092 674 970 c 128,-1,26
 784 848 784 848 784 684 c 2,27,-1
 784 352 l 2,0,1
580 712 m 0,28,29
 580 788 580 788 526 846 c 128,-1,30
 472 904 472 904 394 904 c 0,31,32
 328 904 328 904 279 855 c 128,-1,33
 230 806 230 806 230 734 c 0,34,35
 230 654 230 654 281 597 c 128,-1,36
 332 540 332 540 408 540 c 0,37,38
 478 540 478 540 529 589 c 128,-1,39
 580 638 580 638 580 712 c 0,28,29
EndSplineSet
EndChar

StartChar: colon
Encoding: 58 58 28
Width: 302
GlyphClass: 2
Flags: W
LayerCount: 2
Fore
SplineSet
248 504 m 256,0,1
 248 458 248 458 216 426 c 128,-1,2
 184 394 184 394 142 394 c 0,3,4
 96 394 96 394 62 422 c 1,5,6
 30 454 30 454 30 500 c 256,7,8
 30 546 30 546 60 582 c 1,9,10
 92 614 92 614 138 614 c 256,11,12
 184 614 184 614 216 582 c 128,-1,13
 248 550 248 550 248 504 c 256,0,1
248 110 m 256,14,15
 248 64 248 64 216 32 c 128,-1,16
 184 0 184 0 142 0 c 0,17,18
 96 0 96 0 62 28 c 1,19,20
 30 60 30 60 30 106 c 256,21,22
 30 152 30 152 60 188 c 1,23,24
 92 220 92 220 138 220 c 256,25,26
 184 220 184 220 216 188 c 128,-1,27
 248 156 248 156 248 110 c 256,14,15
EndSplineSet
EndChar

StartChar: semicolon
Encoding: 59 59 29
Width: 302
GlyphClass: 2
Flags: W
LayerCount: 2
Fore
SplineSet
248 504 m 256,0,1
 248 458 248 458 216 426 c 128,-1,2
 184 394 184 394 142 394 c 0,3,4
 96 394 96 394 62 422 c 1,5,6
 30 454 30 454 30 500 c 256,7,8
 30 546 30 546 60 582 c 1,9,10
 92 614 92 614 138 614 c 256,11,12
 184 614 184 614 216 582 c 128,-1,13
 248 550 248 550 248 504 c 256,0,1
248 106 m 0,14,15
 248 -56 248 -56 209 -100 c 128,-1,16
 170 -144 170 -144 116 -144 c 0,17,18
 102 -142 102 -142 94 -142 c 1,19,-1
 98 -74 l 1,20,21
 126 -72 126 -72 138 -62 c 0,22,23
 164 -42 164 -42 164 0 c 1,24,25
 148 -2 148 -2 140 -2 c 0,26,27
 32 -2 32 -2 32 110 c 0,28,29
 32 152 32 152 64 185 c 128,-1,30
 96 218 96 218 140 218 c 256,31,32
 184 218 184 218 216 186 c 0,33,34
 232 170 232 170 240 152 c 128,-1,35
 248 134 248 134 248 106 c 0,14,15
EndSplineSet
EndChar

StartChar: less
Encoding: 60 60 30
Width: 1274
GlyphClass: 2
Flags: W
LayerCount: 2
Fore
SplineSet
1152 874 m 1,0,-1
 420 545 l 1,1,-1
 1152 217 l 1,2,-1
 1152 6 l 1,3,-1
 163 487 l 1,4,-1
 163 605 l 1,5,-1
 1152 1076 l 1,6,-1
 1152 874 l 1,0,-1
EndSplineSet
EndChar

StartChar: equal
Encoding: 61 61 31
Width: 1000
GlyphClass: 2
Flags: W
LayerCount: 2
Fore
SplineSet
936 396 m 1,0,-1
 64 396 l 1,1,-1
 64 576 l 1,2,-1
 936 576 l 1,3,-1
 936 396 l 1,0,-1
936 176 m 1,4,-1
 64 176 l 1,5,-1
 64 356 l 1,6,-1
 936 356 l 1,7,-1
 936 176 l 1,4,-1
EndSplineSet
EndChar

StartChar: greater
Encoding: 62 62 32
Width: 1306
GlyphClass: 2
Flags: W
LayerCount: 2
Fore
SplineSet
242 202 m 1,0,-1
 974 531 l 1,1,-1
 242 859 l 1,2,-1
 242 1070 l 1,3,-1
 1231 589 l 1,4,-1
 1231 471 l 1,5,-1
 242 0 l 1,6,-1
 242 202 l 1,0,-1
EndSplineSet
EndChar

StartChar: question
Encoding: 63 63 33
Width: 592
GlyphClass: 2
Flags: W
LayerCount: 2
Fore
SplineSet
528 552 m 0,0,1
 528 466 528 466 438 376 c 0,2,3
 356 296 356 296 356 234 c 1,4,-1
 224 234 l 1,5,6
 224 280 224 280 233 316 c 128,-1,7
 242 352 242 352 264 384 c 1,8,-1
 346 468 l 2,9,10
 392 510 392 510 392 556 c 0,11,12
 392 592 392 592 364 620 c 128,-1,13
 336 648 336 648 296 648 c 0,14,15
 206 648 206 648 206 550 c 1,16,-1
 66 550 l 1,17,18
 66 644 66 644 132 716 c 128,-1,19
 198 788 198 788 304 788 c 0,20,21
 398 788 398 788 463 720 c 128,-1,22
 528 652 528 652 528 552 c 0,0,1
402 76 m 256,23,24
 402 30 402 30 370 -2 c 128,-1,25
 338 -34 338 -34 296 -34 c 0,26,27
 252 -34 252 -34 218 -5 c 128,-1,28
 184 24 184 24 184 72 c 0,29,30
 184 118 184 118 214 154 c 1,31,32
 246 186 246 186 292 186 c 256,33,34
 338 186 338 186 370 154 c 128,-1,35
 402 122 402 122 402 76 c 256,23,24
EndSplineSet
EndChar

StartChar: at
Encoding: 64 64 34
Width: 1619
GlyphClass: 2
Flags: W
LayerCount: 2
Fore
SplineSet
877 71 m 0,0,1
 870 83 870 83 867 104 c 1,2,3
 849 87 849 87 827.5 71 c 128,-1,4
 806 55 806 55 783 41 c 0,5,6
 711 -2 711 -2 640 -2 c 0,7,8
 564 -2 564 -2 495 41 c 128,-1,9
 426 84 426 84 381 178 c 0,10,11
 336 269 336 269 336 371 c 0,12,13
 336 493 336 493 401 626 c 0,14,15
 467 758 467 758 568 824 c 0,16,17
 668 890 668 890 764 890 c 0,18,19
 843 890 843 890 903 851 c 0,20,21
 929 837 929 837 950.5 818.5 c 128,-1,22
 972 800 972 800 991 774 c 1,23,24
 996 798 996 798 1002 821.5 c 128,-1,25
 1008 845 1008 845 1013 865 c 1,26,-1
 1190 865 l 1,27,-1
 1073 320 l 1,28,-1
 1050 195 l 2,29,30
 1051 190 1051 190 1054 185.5 c 128,-1,31
 1057 181 1057 181 1062 176 c 2,32,-1
 1060 178 l 2,33,34
 1072 168 1072 168 1085 168 c 0,35,36
 1122 168 1122 168 1181 210 c 0,37,38
 1263 267 1263 267 1316 371 c 0,39,40
 1370 474 1370 474 1370 583 c 0,41,42
 1370 702 1370 702 1304 813 c 0,43,44
 1272 869 1272 869 1223.5 913 c 128,-1,45
 1175 957 1175 957 1112 991 c 0,46,47
 1048 1021 1048 1021 977.5 1040.5 c 128,-1,48
 907 1060 907 1060 829 1060 c 0,49,50
 648 1060 648 1060 503 976 c 0,51,52
 429 934 429 934 372.5 874 c 128,-1,53
 316 814 316 814 274 733 c 0,54,55
 191 570 191 570 191 402 c 0,56,57
 191 311 191 311 211 230.5 c 128,-1,58
 231 150 231 150 271 83.5 c 128,-1,59
 311 17 311 17 369 -34 c 128,-1,60
 427 -85 427 -85 504 -118 c 0,61,62
 582 -152 582 -152 668 -168 c 128,-1,63
 754 -184 754 -184 849 -184 c 0,64,65
 1050 -184 1050 -184 1181 -119 c 0,66,67
 1315 -54 1315 -54 1393 54 c 1,68,-1
 1574 54 l 1,69,70
 1519 -65 1519 -65 1421 -148 c 0,71,72
 1374 -188 1374 -188 1310.5 -223.5 c 128,-1,73
 1247 -259 1247 -259 1181 -285 c 0,74,75
 1152 -295 1152 -295 1113 -305.5 c 128,-1,76
 1074 -316 1074 -316 1031 -324 c 0,77,78
 993 -331 993 -331 951 -334.5 c 128,-1,79
 909 -338 909 -338 852 -338 c 0,80,81
 716 -338 716 -338 599 -312 c 128,-1,82
 482 -286 482 -286 387 -235.5 c 128,-1,83
 292 -185 292 -185 220.5 -110.5 c 128,-1,84
 149 -36 149 -36 104 61 c 0,85,86
 37 219 37 219 37 388 c 0,87,88
 37 488 37 488 57.5 580 c 128,-1,89
 78 672 78 672 117 760 c 0,90,91
 217 973 217 973 394 1091 c 0,92,93
 575 1210 575 1210 835 1210 c 0,94,95
 935 1210 935 1210 1022 1190.5 c 128,-1,96
 1109 1171 1109 1171 1191 1129 c 0,97,98
 1272 1090 1272 1090 1335.5 1029 c 128,-1,99
 1399 968 1399 968 1448 883 c 0,100,101
 1523 740 1523 740 1523 581 c 0,102,103
 1523 464 1523 464 1480.5 359 c 128,-1,104
 1438 254 1438 254 1358 163 c 0,105,106
 1285 85 1285 85 1202.5 41.5 c 128,-1,107
 1120 -2 1120 -2 1033 -2 c 2,108,-1
 1012 -2 l 1,109,-1
 977 0 l 2,110,111
 954 4 954 4 933 18 c 1,112,-1
 934 18 l 1,113,114
 917 27 917 27 903.5 40.5 c 128,-1,115
 890 54 890 54 877 71 c 0,0,1
521 360 m 0,116,117
 521 261 521 261 566 207 c 0,118,119
 610 154 610 154 667 154 c 0,120,121
 707 154 707 154 753.5 178.5 c 128,-1,122
 800 203 800 203 839 251 c 0,123,124
 859 274 859 274 876.5 305.5 c 128,-1,125
 894 337 894 337 907 376 c 0,126,127
 936 455 936 455 936 530 c 0,128,129
 936 627 936 627 889 682 c 0,130,131
 844 735 844 735 774 735 c 0,132,133
 751 735 751 735 730 729.5 c 128,-1,134
 709 724 709 724 690 711 c 0,135,136
 646 687 646 687 611 636 c 128,-1,137
 576 585 576 585 545 500 c 1,138,-1
 545 501 l 1,139,140
 521 427 521 427 521 360 c 0,116,117
EndSplineSet
EndChar

StartChar: bracketleft
Encoding: 91 91 35
Width: 426
GlyphClass: 2
Flags: W
LayerCount: 2
Fore
SplineSet
89 1496 m 1,0,-1
 404 1496 l 1,1,-1
 404 1328 l 1,2,-1
 252 1328 l 1,3,-1
 252 -81 l 1,4,-1
 404 -81 l 1,5,-1
 404 -259 l 1,6,-1
 89 -259 l 1,7,-1
 89 1496 l 1,0,-1
EndSplineSet
EndChar

StartChar: backslash
Encoding: 92 92 36
Width: 865
GlyphClass: 2
Flags: W
LayerCount: 2
Fore
SplineSet
184 1239 m 1,0,-1
 838 -119 l 1,1,-1
 674 -119 l 1,2,-1
 16 1239 l 1,3,-1
 184 1239 l 1,0,-1
EndSplineSet
EndChar

StartChar: bracketright
Encoding: 93 93 37
Width: 428
GlyphClass: 2
Flags: W
LayerCount: 2
Fore
SplineSet
331 -259 m 1,0,-1
 16 -259 l 1,1,-1
 16 -81 l 1,2,-1
 169 -81 l 1,3,-1
 169 1328 l 1,4,-1
 16 1328 l 1,5,-1
 16 1496 l 1,6,-1
 331 1496 l 1,7,-1
 331 -259 l 1,0,-1
EndSplineSet
EndChar

StartChar: asciicircum
Encoding: 94 94 38
Width: 719
GlyphClass: 2
Flags: W
LayerCount: 2
Fore
SplineSet
180 450 m 1,0,-1
 43 450 l 1,1,-1
 306 1234 l 1,2,-1
 414 1234 l 1,3,-1
 674 450 l 1,4,-1
 540 450 l 1,5,-1
 358 1032 l 1,6,-1
 180 450 l 1,0,-1
EndSplineSet
EndChar

StartChar: underscore
Encoding: 95 95 39
Width: 1192
GlyphClass: 2
Flags: W
LayerCount: 2
Fore
SplineSet
108 -333 m 1,0,-1
 108 -226 l 1,1,-1
 1083 -226 l 1,2,-1
 1083 -333 l 1,3,-1
 108 -333 l 1,0,-1
EndSplineSet
EndChar

StartChar: grave.001
Encoding: 65539 -1 40
Width: 985
GlyphClass: 2
Flags: W
LayerCount: 2
Fore
SplineSet
127 1260 m 2,0,-1
 930 1260 l 1,1,-1
 930 1259 l 1,2,3
 860 1146 860 1146 851 1141 c 1,4,-1
 636 1141 l 1,5,6
 680 1088 680 1088 697 1012 c 1,7,-1
 925 1012 l 2,8,9
 928 1012 928 1012 928 1008 c 0,10,11
 851 892 851 892 851 892 c 1,12,-1
 702 892 l 1,13,14
 697 832 697 832 646 749 c 1,15,16
 577 664 577 664 514 637 c 0,17,18
 396 581 396 581 290 581 c 1,19,-1
 290 581 l 1,20,21
 290 572 290 572 342 509 c 2,22,-1
 739 25 l 1,23,-1
 739 2 l 2,24,25
 739 0 739 0 736 0 c 2,26,-1
 560 0 l 1,27,28
 89 554 89 554 89 558 c 2,29,-1
 89 668 l 1,30,-1
 92 674 l 1,31,32
 132 667 132 667 188 667 c 0,33,34
 454 667 454 667 517 841 c 0,35,36
 527 866 527 866 527 892 c 1,37,-1
 49 892 l 2,38,39
 47 892 47 892 47 896 c 0,40,41
 127 1012 127 1012 127 1012 c 1,42,-1
 506 1012 l 1,43,-1
 506 1013 l 1,44,45
 473 1080 473 1080 379 1120 c 1,46,47
 312 1141 312 1141 260 1141 c 2,48,-1
 48 1141 l 1,49,-1
 48 1144 l 1,50,51
 124 1260 124 1260 127 1260 c 2,0,-1
EndSplineSet
EndChar

StartChar: braceleft
Encoding: 123 123 41
Width: 623
GlyphClass: 2
Flags: W
LayerCount: 2
Fore
SplineSet
124 705 m 1,0,1
 178 705 178 705 213.5 737.5 c 128,-1,2
 249 770 249 770 260 823 c 1,3,-1
 260 820 l 1,4,-1
 265 921 l 2,5,6
 267 948 267 948 269 977.5 c 128,-1,7
 271 1007 271 1007 273 1034 c 0,8,9
 273 1111 273 1111 274 1164.5 c 128,-1,10
 275 1218 275 1218 277 1247 c 0,11,12
 279 1277 279 1277 284.5 1305.5 c 128,-1,13
 290 1334 290 1334 299 1358 c 0,14,15
 318 1407 318 1407 345 1437.5 c 128,-1,16
 372 1468 372 1468 420 1485 c 0,17,18
 460 1500 460 1500 518 1500 c 2,19,-1
 578 1500 l 1,20,-1
 578 1319 l 1,21,-1
 533 1319 l 2,22,23
 473 1319 473 1319 451 1287 c 1,24,-1
 452 1288 l 1,25,26
 432 1259 432 1259 432 1151 c 2,27,-1
 432 960 l 1,28,-1
 429 892 l 2,29,30
 429 867 429 867 423 851 c 0,31,32
 417 804 417 804 404.5 764.5 c 128,-1,33
 392 725 392 725 376 698 c 0,34,35
 363 678 363 678 342 655.5 c 128,-1,36
 321 633 321 633 297 613 c 1,37,38
 363 567 363 567 394 494 c 0,39,40
 412 449 412 449 422 376 c 128,-1,41
 432 303 432 303 432 203 c 2,42,-1
 434 -5 l 2,43,44
 437 -58 437 -58 454 -78 c 1,45,-1
 482 -93 l 1,46,47
 501 -97 501 -97 533 -97 c 2,48,-1
 578 -97 l 1,49,-1
 578 -275 l 1,50,-1
 518 -275 l 2,51,52
 442 -275 442 -275 409 -261 c 0,53,54
 363 -237 363 -237 324 -189 c 1,55,56
 298 -148 298 -148 281 -64 c 0,57,58
 277 -29 277 -29 275 31.5 c 128,-1,59
 273 92 273 92 273 177 c 0,60,61
 273 258 273 258 270 313.5 c 128,-1,62
 267 369 267 369 260 399 c 0,63,64
 248 454 248 454 220 485 c 1,65,66
 200 499 200 499 176.5 507 c 128,-1,67
 153 515 153 515 124 515 c 1,68,-1
 124 705 l 1,0,1
EndSplineSet
EndChar

StartChar: bar
Encoding: 124 124 42
Width: 313
GlyphClass: 2
Flags: W
LayerCount: 2
Fore
SplineSet
70 -259 m 1,0,-1
 70 1586 l 1,1,-1
 242 1586 l 1,2,-1
 239 -259 l 1,3,-1
 70 -259 l 1,0,-1
EndSplineSet
EndChar

StartChar: braceright
Encoding: 125 125 43
Width: 547
GlyphClass: 2
Flags: W
LayerCount: 2
Fore
SplineSet
489 517 m 1,0,1
 458 517 458 517 435 510 c 128,-1,2
 412 503 412 503 395 489 c 0,3,4
 379 472 379 472 368 451 c 128,-1,5
 357 430 357 430 351 401 c 0,6,7
 339 341 339 341 339 179 c 0,8,9
 339 11 339 11 330 -59 c 0,10,11
 316 -146 316 -146 289 -187 c 0,12,13
 270 -210 270 -210 248.5 -228.5 c 128,-1,14
 227 -247 227 -247 203 -259 c 0,15,16
 170 -273 170 -273 94 -273 c 2,17,-1
 33 -273 l 1,18,-1
 33 -95 l 1,19,-1
 79 -95 l 2,20,21
 96 -95 96 -95 108 -93.5 c 128,-1,22
 120 -92 120 -92 131 -90 c 2,23,-1
 158 -76 l 1,24,25
 176 -55 176 -55 179 -2 c 0,26,27
 179 49 179 49 180 101 c 128,-1,28
 181 153 181 153 181 205 c 0,29,30
 181 306 181 306 190 378.5 c 128,-1,31
 199 451 199 451 218 496 c 0,32,33
 252 572 252 572 315 615 c 1,34,35
 290 635 290 635 269 657.5 c 128,-1,36
 248 680 248 680 235 700 c 0,37,38
 219 726 219 726 207.5 767 c 128,-1,39
 196 808 196 808 188 853 c 0,40,41
 185 861 185 861 184.5 870.5 c 128,-1,42
 184 880 184 880 184 894 c 2,43,-1
 181 962 l 1,44,-1
 181 1153 l 2,45,46
 181 1261 181 1261 161 1290 c 1,47,-1
 162 1289 l 1,48,49
 140 1321 140 1321 79 1321 c 2,50,-1
 33 1321 l 1,51,-1
 33 1502 l 1,52,-1
 94 1502 l 2,53,54
 153 1502 153 1502 191 1487 c 0,55,56
 237 1470 237 1470 265.5 1439 c 128,-1,57
 294 1408 294 1408 311 1360 c 0,58,59
 321 1336 321 1336 326.5 1307.5 c 128,-1,60
 332 1279 332 1279 334 1249 c 0,61,62
 336 1220 336 1220 337.5 1166 c 128,-1,63
 339 1112 339 1112 339 1037 c 1,64,-1
 348 923 l 1,65,-1
 352 825 l 1,66,67
 364 773 364 773 399 740 c 128,-1,68
 434 707 434 707 489 707 c 1,69,-1
 489 517 l 1,0,1
EndSplineSet
EndChar

StartChar: asciitilde
Encoding: 126 126 44
Width: 1161
GlyphClass: 2
Flags: W
LayerCount: 2
Fore
SplineSet
1045 747 m 1,0,-1
 1086 747 l 1,1,2
 1082 571 1082 571 1014 469.5 c 128,-1,3
 946 368 946 368 850 368 c 0,4,5
 807 368 807 368 757.5 389 c 128,-1,6
 708 410 708 410 503 535 c 0,7,8
 356 620 356 620 294 620 c 0,9,10
 229 620 229 620 183.5 562 c 128,-1,11
 138 504 138 504 118 371 c 1,12,-1
 75 371 l 1,13,14
 83 557 83 557 148.5 654.5 c 128,-1,15
 214 752 214 752 302 752 c 0,16,17
 342 752 342 752 387 732 c 0,18,19
 484 691 484 691 642.5 592.5 c 128,-1,20
 801 494 801 494 867 494 c 0,21,22
 936 494 936 494 985 559.5 c 128,-1,23
 1034 625 1034 625 1045 747 c 1,0,-1
EndSplineSet
EndChar

StartChar: cent
Encoding: 162 162 45
Width: 721
GlyphClass: 2
Flags: W
LayerCount: 2
Fore
SplineSet
598 156 m 1,0,1
 537 71 537 71 467 31 c 128,-1,2
 397 -9 397 -9 304 -17 c 1,3,-1
 228 -265 l 1,4,-1
 187 -265 l 1,5,-1
 262 -17 l 1,6,7
 177 -8 177 -8 128.5 47 c 128,-1,8
 80 102 80 102 80 188 c 0,9,10
 80 345 80 345 191.5 478.5 c 128,-1,11
 303 612 303 612 457 638 c 1,12,-1
 541 917 l 1,13,-1
 580 917 l 1,14,-1
 499 638 l 1,15,16
 580 638 580 638 616.5 607 c 128,-1,17
 653 576 653 576 653 523 c 0,18,19
 653 482 653 482 631.5 455.5 c 128,-1,20
 610 429 610 429 580 429 c 0,21,22
 557 429 557 429 544 442 c 128,-1,23
 531 455 531 455 531 476 c 0,24,25
 531 491 531 491 536 502 c 128,-1,26
 541 513 541 513 560.5 534.5 c 128,-1,27
 580 556 580 556 580 570 c 0,28,29
 580 578 580 578 575 585 c 0,30,31
 565 596 565 596 549.5 601 c 128,-1,32
 534 606 534 606 489 606 c 1,33,-1
 322 49 l 1,34,-1
 352 47 l 1,35,36
 470 47 470 47 580 173 c 1,37,-1
 598 156 l 1,0,1
284 57 m 1,38,-1
 445 598 l 1,39,40
 383 570 383 570 342 533 c 0,41,42
 274 467 274 467 237 380.5 c 128,-1,43
 200 294 200 294 200 205 c 0,44,45
 200 146 200 146 224 108 c 0,46,47
 243 81 243 81 284 57 c 1,38,-1
EndSplineSet
EndChar

StartChar: multiply
Encoding: 215 215 46
Width: 975
GlyphClass: 2
Flags: W
LayerCount: 2
Fore
SplineSet
267 230 m 1,0,-1
 515 479 l 1,1,-1
 267 728 l 1,2,-1
 308 768 l 1,3,-1
 556 520 l 1,4,-1
 805 768 l 1,5,-1
 844 728 l 1,6,-1
 595 480 l 1,7,-1
 845 230 l 1,8,-1
 805 190 l 1,9,-1
 555 439 l 1,10,-1
 307 190 l 1,11,-1
 267 230 l 1,0,-1
EndSplineSet
EndChar

StartChar: divide
Encoding: 247 247 47
Width: 864
GlyphClass: 2
Flags: W
LayerCount: 2
Fore
SplineSet
518 650 m 0,0,1
 518 612 518 612 491 586 c 128,-1,2
 464 560 464 560 426 560 c 256,3,4
 388 560 388 560 360 586 c 128,-1,5
 332 612 332 612 332 650 c 0,6,7
 332 686 332 686 360 713 c 128,-1,8
 388 740 388 740 426 740 c 256,9,10
 464 740 464 740 491 713 c 128,-1,11
 518 686 518 686 518 650 c 0,0,1
864 430 m 0,12,13
 864 384 864 384 816 384 c 2,14,-1
 52 384 l 2,15,16
 -4 384 -4 384 -4 426 c 0,17,18
 -4 484 -4 484 54 484 c 2,19,-1
 806 482 l 2,20,21
 864 482 864 482 864 430 c 0,12,13
526 222 m 0,22,23
 526 184 526 184 497 155 c 128,-1,24
 468 126 468 126 428 126 c 256,25,26
 388 126 388 126 358 155 c 128,-1,27
 328 184 328 184 328 222 c 0,28,29
 328 262 328 262 358 291 c 128,-1,30
 388 320 388 320 428 320 c 256,31,32
 468 320 468 320 497 291 c 128,-1,33
 526 262 526 262 526 222 c 0,22,23
EndSplineSet
EndChar

StartChar: tm_visarga
Encoding: 2947 2947 48
Width: 1044
GlyphClass: 2
Flags: W
LayerCount: 2
Fore
SplineSet
764 640 m 0,0,1
 764 546 764 546 699 489 c 128,-1,2
 634 432 634 432 540 432 c 0,3,4
 450 432 450 432 387 490 c 128,-1,5
 324 548 324 548 324 642 c 0,6,7
 324 726 324 726 386 779 c 128,-1,8
 448 832 448 832 540 832 c 0,9,10
 636 832 636 832 700 780 c 0,11,12
 764 732 764 732 764 640 c 0,0,1
458 206 m 0,13,14
 458 112 458 112 393 56 c 128,-1,15
 328 0 328 0 234 0 c 0,16,17
 142 0 142 0 80 56 c 1,18,19
 14 110 14 110 14 206 c 0,20,21
 14 290 14 290 77 345 c 128,-1,22
 140 400 140 400 232 400 c 0,23,24
 330 400 330 400 394 348 c 128,-1,25
 458 296 458 296 458 206 c 0,13,14
1028 202 m 256,26,27
 1028 108 1028 108 965 52 c 128,-1,28
 902 -4 902 -4 806 -4 c 0,29,30
 714 -4 714 -4 650 53 c 128,-1,31
 586 110 586 110 586 204 c 0,32,33
 586 288 586 288 649 342 c 128,-1,34
 712 396 712 396 804 396 c 0,35,36
 900 396 900 396 964 344 c 0,37,38
 1028 296 1028 296 1028 202 c 256,26,27
612 636 m 0,39,40
 612 712 612 712 548 712 c 0,41,42
 474 712 474 712 474 632 c 256,43,44
 474 552 474 552 546 552 c 0,45,46
 612 552 612 552 612 636 c 0,39,40
306 206 m 0,47,48
 306 280 306 280 240 280 c 0,49,50
 168 280 168 280 168 202 c 0,51,52
 168 120 168 120 234 120 c 0,53,54
 306 120 306 120 306 206 c 0,47,48
874 200 m 0,55,56
 874 278 874 278 806 278 c 0,57,58
 736 278 736 278 736 198 c 256,59,60
 736 118 736 118 804 118 c 0,61,62
 874 118 874 118 874 200 c 0,55,56
EndSplineSet
EndChar

StartChar: tm_a
Encoding: 2949 2949 49
Width: 1668
GlyphClass: 2
Flags: W
LayerCount: 2
Fore
SplineSet
1628 -148 m 1,0,-1
 1416 -148 l 1,1,-1
 1416 264 l 1,2,-1
 1238 264 l 1,3,-1
 1240 216 l 1,4,5
 1240 42 1240 42 1098 -70 c 0,6,7
 972 -166 972 -166 804 -166 c 2,8,-1
 484 -166 l 2,9,10
 280 -166 280 -166 156 -84 c 0,11,12
 24 4 24 4 24 154 c 2,13,-1
 24 306 l 2,14,15
 24 440 24 440 192 440 c 2,16,-1
 1034 440 l 1,17,-1
 1034 748 l 2,18,19
 1034 936 1034 936 810 936 c 0,20,21
 622 936 622 936 622 892 c 1,22,23
 664 904 664 904 706 904 c 0,24,25
 794 904 794 904 853 850 c 128,-1,26
 912 796 912 796 912 706 c 0,27,28
 912 610 912 610 838 551 c 128,-1,29
 764 492 764 492 654 492 c 0,30,31
 554 492 554 492 484 552 c 0,32,33
 402 624 402 624 402 762 c 0,34,35
 402 926 402 926 472 1002 c 0,36,37
 562 1104 562 1104 798 1104 c 0,38,39
 1016 1104 1016 1104 1136 972 c 0,40,41
 1238 854 1238 854 1238 664 c 2,42,-1
 1238 438 l 1,43,-1
 1422 438 l 1,44,-1
 1422 1054 l 1,45,-1
 1628 1054 l 1,46,-1
 1628 -148 l 1,0,-1
704 702 m 0,47,48
 704 754 704 754 658 754 c 0,49,50
 614 754 614 754 614 702 c 0,51,52
 614 654 614 654 656 654 c 0,53,54
 704 654 704 654 704 702 c 0,47,48
1028 274 m 1,55,-1
 314 274 l 2,56,57
 260 274 260 274 245 269 c 128,-1,58
 230 264 230 264 230 222 c 2,59,-1
 230 144 l 2,60,61
 230 78 230 78 282 38 c 1,62,63
 340 0 340 0 414 0 c 2,64,-1
 790 0 l 2,65,66
 906 0 906 0 974 70 c 0,67,68
 1032 132 1032 132 1032 226 c 0,69,70
 1032 258 1032 258 1028 274 c 1,55,-1
EndSplineSet
EndChar

StartChar: tm_aa
Encoding: 2950 2950 50
Width: 2028
GlyphClass: 2
Flags: W
LayerCount: 2
Fore
SplineSet
2014 -124 m 2,0,1
 2014 -268 2014 -268 1898 -336 c 1,2,3
 1804 -386 1804 -386 1668 -386 c 2,4,-1
 1354 -386 l 2,5,6
 1134 -386 1134 -386 1134 -112 c 1,7,-1
 1328 -112 l 1,8,9
 1328 -158 1328 -158 1337 -184 c 128,-1,10
 1346 -210 1346 -210 1402 -210 c 2,11,-1
 1674 -210 l 2,12,13
 1722 -210 1722 -210 1761 -185 c 128,-1,14
 1800 -160 1800 -160 1800 -114 c 2,15,-1
 1800 62 l 2,16,17
 1800 152 1800 152 1752 152 c 2,18,-1
 1728 152 l 2,19,20
 1696 152 1696 152 1650 100 c 1,21,-1
 1650 -106 l 1,22,-1
 1440 -106 l 1,23,-1
 1440 270 l 1,24,-1
 1256 270 l 1,25,-1
 1260 220 l 1,26,27
 1260 46 1260 46 1114 -68 c 0,28,29
 986 -168 986 -168 828 -168 c 2,30,-1
 464 -168 l 2,31,32
 264 -168 264 -168 144 -82 c 128,-1,33
 24 4 24 4 24 160 c 2,34,-1
 24 306 l 2,35,36
 24 444 24 444 192 444 c 2,37,-1
 1046 444 l 1,38,-1
 1046 710 l 2,39,40
 1046 806 1046 806 979 873 c 128,-1,41
 912 940 912 940 812 940 c 0,42,43
 648 940 648 940 642 888 c 1,44,45
 672 900 672 900 726 900 c 0,46,47
 818 900 818 900 876 848 c 1,48,49
 936 800 936 800 936 710 c 0,50,51
 936 614 936 614 860 553 c 128,-1,52
 784 492 784 492 676 492 c 0,53,54
 574 492 574 492 504 554 c 0,55,56
 422 626 422 626 422 764 c 0,57,58
 422 926 422 926 484 1002 c 0,59,60
 568 1102 568 1102 798 1102 c 0,61,62
 1040 1102 1040 1102 1152 988 c 0,63,64
 1254 882 1254 882 1254 664 c 2,65,-1
 1254 444 l 1,66,-1
 1436 444 l 1,67,-1
 1436 1058 l 1,68,-1
 1650 1058 l 1,69,-1
 1650 294 l 1,70,71
 1688 328 1688 328 1770 328 c 0,72,73
 1866 328 1866 328 1940 254 c 128,-1,74
 2014 180 2014 180 2014 80 c 2,75,-1
 2014 -124 l 2,0,1
724 702 m 0,76,77
 724 758 724 758 682 758 c 0,78,79
 636 758 636 758 636 702 c 0,80,81
 636 648 636 648 680 648 c 256,82,83
 724 648 724 648 724 702 c 0,76,77
1040 276 m 1,84,-1
 312 276 l 2,85,86
 254 276 254 276 236 252 c 0,87,88
 228 236 228 236 228 204 c 2,89,-1
 228 138 l 2,90,91
 228 4 228 4 438 4 c 2,92,-1
 790 4 l 2,93,94
 906 4 906 4 980 78 c 0,95,96
 1044 146 1044 146 1044 234 c 0,97,98
 1044 262 1044 262 1040 276 c 1,84,-1
EndSplineSet
EndChar

StartChar: tm_i
Encoding: 2951 2951 51
Width: 1860
GlyphClass: 2
Flags: W
LayerCount: 2
Fore
SplineSet
1836 52 m 2,0,1
 1836 -242 1836 -242 1346 -242 c 0,2,3
 1094 -242 1094 -242 890 -172 c 1,4,-1
 750 -212 l 1,5,6
 616 -244 616 -244 456 -244 c 0,7,8
 238 -244 238 -244 136 -174 c 0,9,10
 24 -98 24 -98 24 72 c 2,11,-1
 24 222 l 2,12,13
 24 318 24 318 112 380 c 0,14,15
 154 408 154 408 205 423 c 128,-1,16
 256 438 256 438 318 438 c 1,17,-1
 318 912 l 2,18,19
 318 1120 318 1120 488 1248 c 0,20,21
 646 1366 646 1366 868 1366 c 2,22,-1
 1162 1366 l 2,23,24
 1460 1366 1460 1366 1594 1218 c 0,25,26
 1714 1086 1714 1086 1714 816 c 2,27,-1
 1714 576 l 1,28,-1
 1506 576 l 1,29,-1
 1506 850 l 2,30,31
 1506 1052 1506 1052 1402 1130 c 0,32,33
 1316 1194 1316 1194 1108 1194 c 2,34,-1
 942 1194 l 2,35,36
 690 1194 690 1194 600 1090 c 0,37,38
 524 998 524 998 524 746 c 2,39,-1
 524 462 l 1,40,-1
 1204 462 l 1,41,-1
 1204 700 l 2,42,43
 1204 798 1204 798 1143 868 c 128,-1,44
 1082 938 1082 938 994 938 c 0,45,46
 826 938 826 938 808 878 c 1,47,48
 848 898 848 898 902 898 c 0,49,50
 986 898 986 898 1048 844 c 128,-1,51
 1110 790 1110 790 1110 704 c 0,52,53
 1110 602 1110 602 1031 542 c 128,-1,54
 952 482 952 482 840 482 c 0,55,56
 740 482 740 482 670 542 c 0,57,58
 588 614 588 614 588 754 c 0,59,60
 588 918 588 918 654 996 c 0,61,62
 744 1098 744 1098 978 1098 c 0,63,64
 1188 1098 1188 1098 1300 992 c 0,65,66
 1406 896 1406 896 1406 722 c 2,67,-1
 1406 454 l 1,68,69
 1530 454 1530 454 1616 434 c 128,-1,70
 1702 414 1702 414 1748 382 c 0,71,72
 1836 324 1836 324 1836 180 c 2,73,-1
 1836 52 l 2,0,1
896 698 m 0,74,75
 896 748 896 748 846 748 c 0,76,77
 804 748 804 748 804 698 c 0,78,79
 804 640 804 640 852 640 c 0,80,81
 896 640 896 640 896 698 c 0,74,75
1196 226 m 2,82,-1
 1196 314 l 1,83,-1
 528 314 l 1,84,85
 528 184 528 184 615 99 c 128,-1,86
 702 14 702 14 890 -30 c 1,87,88
 976 -2 976 -2 1074 66 c 0,89,90
 1196 152 1196 152 1196 226 c 2,82,-1
1600 40 m 2,91,-1
 1600 190 l 2,92,93
 1600 254 1600 254 1536 284 c 0,94,95
 1516 294 1516 294 1481 301 c 128,-1,96
 1446 308 1446 308 1404 308 c 1,97,98
 1406 296 1406 296 1406 274 c 0,99,100
 1406 160 1406 160 1330 68 c 0,101,102
 1272 -2 1272 -2 1128 -80 c 1,103,-1
 1276 -88 l 1,104,-1
 1308 -88 l 1,105,-1
 1334 -88 l 2,106,107
 1422 -88 1422 -88 1452 -82 c 0,108,109
 1600 -58 1600 -58 1600 40 c 2,91,-1
632 -82 m 1,110,111
 516 -58 516 -58 420 62 c 0,112,113
 336 170 336 170 318 282 c 1,114,115
 242 258 242 258 228 220 c 0,116,117
 224 208 224 208 222 185 c 128,-1,118
 220 162 220 162 220 108 c 0,119,120
 220 22 220 22 240 -13 c 128,-1,121
 260 -48 260 -48 321 -70 c 128,-1,122
 382 -92 382 -92 490 -92 c 0,123,124
 518 -92 518 -92 554 -90 c 128,-1,125
 590 -88 590 -88 632 -82 c 1,110,111
EndSplineSet
EndChar

StartChar: tm_ii
Encoding: 2952 2952 52
Width: 886
GlyphClass: 2
Flags: W
LayerCount: 2
Fore
SplineSet
840 622 m 1,0,-1
 638 622 l 1,1,-1
 638 0 l 1,2,-1
 466 0 l 1,3,-1
 466 622 l 1,4,-1
 216 622 l 1,5,-1
 216 0 l 1,6,-1
 40 0 l 1,7,-1
 40 768 l 1,8,-1
 840 768 l 1,9,-1
 840 622 l 1,0,-1
872 368 m 0,10,11
 872 252 872 252 758 252 c 0,12,13
 662 252 662 252 662 364 c 0,14,15
 662 420 662 420 688 456 c 128,-1,16
 714 492 714 492 762 492 c 0,17,18
 808 492 808 492 842 456 c 0,19,20
 872 420 872 420 872 368 c 0,10,11
442 366 m 0,21,22
 442 250 442 250 332 250 c 0,23,24
 234 250 234 250 234 360 c 0,25,26
 234 412 234 412 264 453 c 128,-1,27
 294 494 294 494 338 494 c 0,28,29
 384 494 384 494 413 456 c 128,-1,30
 442 418 442 418 442 366 c 0,21,22
EndSplineSet
EndChar

StartChar: tm_u
Encoding: 2953 2953 53
Width: 1312
GlyphClass: 2
Flags: W
LayerCount: 2
Fore
SplineSet
1296 0 m 1,0,-1
 194 0 l 2,1,2
 134 0 134 0 92 28 c 0,3,4
 30 66 30 66 30 144 c 2,5,-1
 30 210 l 2,6,7
 30 286 30 286 84 334 c 0,8,9
 134 374 134 374 216 374 c 2,10,-1
 392 374 l 2,11,12
 458 374 458 374 504 420 c 1,13,14
 548 470 548 470 548 532 c 2,15,-1
 548 702 l 2,16,17
 548 800 548 800 488 834 c 0,18,19
 456 850 456 850 390 850 c 0,20,21
 294 850 294 850 288 840 c 1,22,23
 460 810 460 810 460 624 c 0,24,25
 460 526 460 526 398 467 c 128,-1,26
 336 408 336 408 248 408 c 0,27,28
 158 408 158 408 98 466 c 0,29,30
 24 534 24 534 24 648 c 0,31,32
 24 994 24 994 370 994 c 0,33,34
 550 994 550 994 648 888 c 0,35,36
 726 804 726 804 726 686 c 2,37,-1
 726 516 l 2,38,39
 726 390 726 390 627 309 c 128,-1,40
 528 228 528 228 400 228 c 2,41,-1
 262 228 l 2,42,43
 212 228 212 228 212 194 c 2,44,-1
 212 174 l 2,45,46
 212 144 212 144 254 144 c 2,47,-1
 1296 144 l 1,48,-1
 1296 0 l 1,0,-1
278 592 m 2,49,-1
 278 678 l 2,50,51
 278 720 278 720 242 720 c 0,52,53
 202 720 202 720 202 664 c 2,54,-1
 202 590 l 2,55,56
 202 550 202 550 238 550 c 0,57,58
 278 550 278 550 278 592 c 2,49,-1
EndSplineSet
EndChar

StartChar: tm_uu
Encoding: 2954 2954 54
Width: 1814
GlyphClass: 2
Flags: W
LayerCount: 2
Fore
SplineSet
1800 0 m 1,0,-1
 198 0 l 2,1,2
 130 0 130 0 83 49 c 128,-1,3
 36 98 36 98 36 150 c 2,4,-1
 36 212 l 2,5,6
 36 278 36 278 92 327 c 128,-1,7
 148 376 148 376 222 376 c 2,8,-1
 396 376 l 2,9,10
 462 376 462 376 508 422 c 1,11,12
 552 472 552 472 552 534 c 2,13,-1
 552 702 l 2,14,15
 552 858 552 858 374 858 c 0,16,17
 306 858 306 858 292 842 c 1,18,19
 464 818 464 818 464 626 c 0,20,21
 464 528 464 528 404 468 c 1,22,23
 342 412 342 412 252 412 c 0,24,25
 166 412 166 412 102 470 c 0,26,27
 30 536 30 536 30 654 c 0,28,29
 30 1000 30 1000 374 1000 c 0,30,31
 556 1000 556 1000 652 892 c 0,32,33
 730 802 730 802 730 670 c 2,34,-1
 730 520 l 2,35,36
 730 394 730 394 630 312 c 128,-1,37
 530 230 530 230 404 230 c 2,38,-1
 266 230 l 2,39,40
 216 230 216 230 216 196 c 2,41,-1
 216 174 l 2,42,43
 216 146 216 146 260 146 c 2,44,-1
 1800 146 l 1,45,-1
 1800 0 l 1,0,-1
1800 642 m 1,46,-1
 1632 642 l 1,47,-1
 1632 182 l 1,48,-1
 1468 182 l 1,49,-1
 1468 638 l 1,50,51
 1452 640 1452 640 1444 640 c 0,52,53
 1374 640 1374 640 1374 586 c 2,54,-1
 1374 182 l 1,55,-1
 1218 182 l 1,56,-1
 1218 552 l 2,57,58
 1218 646 1218 646 1104 646 c 0,59,60
 998 646 998 646 980 580 c 1,61,-1
 1016 584 l 1,62,63
 1080 584 1080 584 1128 544 c 0,64,65
 1176 508 1176 508 1176 448 c 2,66,-1
 1176 324 l 2,67,68
 1176 276 1176 276 1131 231 c 128,-1,69
 1086 186 1086 186 1000 186 c 0,70,71
 916 186 916 186 860 235 c 128,-1,72
 804 284 804 284 804 366 c 2,73,-1
 804 526 l 2,74,75
 804 646 804 646 886 714 c 0,76,77
 958 774 958 774 1064 774 c 0,78,79
 1238 774 1238 774 1278 726 c 1,80,81
 1320 768 1320 768 1454 768 c 2,82,-1
 1800 768 l 1,83,-1
 1800 642 l 1,46,-1
282 594 m 2,84,-1
 282 680 l 2,85,86
 282 720 282 720 246 720 c 0,87,88
 208 720 208 720 208 666 c 2,89,-1
 208 590 l 2,90,91
 208 552 208 552 244 552 c 0,92,93
 282 552 282 552 282 594 c 2,84,-1
1020 322 m 2,94,-1
 1020 430 l 2,95,96
 1020 460 1020 460 992 462 c 0,97,98
 960 462 960 462 960 428 c 2,99,-1
 960 318 l 2,100,101
 960 296 960 296 990 292 c 0,102,103
 1020 292 1020 292 1020 322 c 2,94,-1
EndSplineSet
EndChar

StartChar: tm_e
Encoding: 2958 2958 55
Width: 974
GlyphClass: 2
Flags: W
LayerCount: 2
Fore
SplineSet
960 622 m 1,0,-1
 758 622 l 1,1,-1
 758 0 l 1,2,-1
 580 0 l 1,3,-1
 580 622 l 1,4,-1
 360 622 l 2,5,6
 224 622 224 622 224 544 c 0,7,8
 224 528 224 528 228 520 c 1,9,10
 258 532 258 532 292 532 c 0,11,12
 362 532 362 532 413 482 c 128,-1,13
 464 432 464 432 464 336 c 2,14,-1
 464 230 l 2,15,16
 464 130 464 130 390 64 c 0,17,18
 322 8 322 8 230 8 c 0,19,20
 144 8 144 8 87 64 c 128,-1,21
 30 120 30 120 30 222 c 2,22,-1
 30 442 l 2,23,24
 30 588 30 588 70 656 c 0,25,26
 136 768 136 768 350 768 c 2,27,-1
 960 768 l 1,28,-1
 960 622 l 1,0,-1
282 192 m 2,29,-1
 282 318 l 2,30,31
 282 352 282 352 248 352 c 0,32,33
 210 352 210 352 210 316 c 2,34,-1
 210 190 l 2,35,36
 210 158 210 158 246 158 c 256,37,38
 282 158 282 158 282 192 c 2,29,-1
EndSplineSet
EndChar

StartChar: tm_ee
Encoding: 2959 2959 56
Width: 974
GlyphClass: 2
Flags: W
LayerCount: 2
Fore
SplineSet
960 622 m 1,0,-1
 758 622 l 1,1,-1
 758 -24 l 1,2,-1
 316 -296 l 1,3,-1
 240 -176 l 1,4,-1
 582 40 l 1,5,-1
 582 622 l 1,6,-1
 362 622 l 2,7,8
 224 622 224 622 224 544 c 0,9,10
 224 528 224 528 228 520 c 1,11,12
 258 532 258 532 290 532 c 0,13,14
 356 532 356 532 410 482 c 128,-1,15
 464 432 464 432 464 336 c 2,16,-1
 464 230 l 2,17,18
 464 122 464 122 390 60 c 0,19,20
 326 8 326 8 232 8 c 0,21,22
 140 8 140 8 85 61 c 128,-1,23
 30 114 30 114 30 220 c 2,24,-1
 30 440 l 2,25,26
 30 590 30 590 70 656 c 0,27,28
 136 768 136 768 350 768 c 2,29,-1
 960 768 l 1,30,-1
 960 622 l 1,0,-1
282 184 m 2,31,-1
 282 314 l 2,32,33
 282 350 282 350 250 352 c 0,34,35
 212 352 212 352 212 314 c 2,36,-1
 212 184 l 2,37,38
 212 152 212 152 246 152 c 0,39,40
 282 152 282 152 282 184 c 2,31,-1
EndSplineSet
EndChar

StartChar: tm_ai
Encoding: 2960 2960 57
Width: 1080
GlyphClass: 2
Flags: W
LayerCount: 2
Fore
SplineSet
1050 366 m 2,0,1
 1050 238 1050 238 952 161 c 128,-1,2
 854 84 854 84 716 84 c 2,3,-1
 360 84 l 2,4,5
 308 84 308 84 262 59 c 128,-1,6
 216 34 216 34 216 -14 c 2,7,-1
 216 -70 l 2,8,9
 216 -144 216 -144 324 -144 c 0,10,11
 456 -144 456 -144 456 -24 c 2,12,-1
 456 40 l 1,13,-1
 632 40 l 1,14,-1
 632 -14 l 2,15,16
 632 -146 632 -146 760 -146 c 0,17,18
 868 -146 868 -146 868 -76 c 0,19,20
 868 -42 868 -42 858 -29 c 128,-1,21
 848 -16 848 -16 810 2 c 1,22,-1
 936 116 l 1,23,24
 1046 60 1046 60 1046 -28 c 2,25,-1
 1046 -120 l 2,26,27
 1046 -186 1046 -186 985 -235 c 128,-1,28
 924 -284 924 -284 840 -284 c 2,29,-1
 734 -284 l 2,30,31
 604 -284 604 -284 556 -186 c 1,32,33
 478 -286 478 -286 356 -286 c 2,34,-1
 280 -286 l 2,35,36
 190 -286 190 -286 118 -238 c 0,37,38
 38 -182 38 -182 38 -98 c 2,39,-1
 38 -2 l 2,40,41
 38 228 38 228 376 228 c 2,42,-1
 700 228 l 2,43,44
 874 228 874 228 874 426 c 256,45,46
 874 624 874 624 776 624 c 0,47,48
 730 624 730 624 705 586 c 128,-1,49
 680 548 680 548 680 496 c 2,50,-1
 680 318 l 1,51,-1
 504 318 l 1,52,-1
 504 474 l 2,53,54
 504 568 504 568 456 608 c 0,55,56
 428 630 428 630 344 630 c 0,57,58
 236 630 236 630 222 592 c 1,59,-1
 292 600 l 1,60,61
 374 600 374 600 422 550 c 0,62,63
 462 504 462 504 462 434 c 0,64,65
 462 358 462 358 402 304 c 1,66,67
 342 256 342 256 262 256 c 0,68,69
 30 256 30 256 30 480 c 0,70,71
 30 646 30 646 134 724 c 0,72,73
 196 768 196 768 340 768 c 0,74,75
 432 768 432 768 460 758 c 0,76,77
 516 740 516 740 580 670 c 1,78,79
 654 768 654 768 756 768 c 2,80,-1
 848 768 l 2,81,82
 926 768 926 768 988 688 c 128,-1,83
 1050 608 1050 608 1050 516 c 2,84,-1
 1050 366 l 2,0,1
286 438 m 0,85,86
 286 468 286 468 248 468 c 0,87,88
 212 468 212 468 210 436 c 0,89,90
 210 400 210 400 250 400 c 0,91,92
 286 400 286 400 286 438 c 0,85,86
EndSplineSet
EndChar

StartChar: tm_o
Encoding: 2962 2962 58
Width: 1068
GlyphClass: 2
Flags: W
LayerCount: 2
Fore
SplineSet
1044 390 m 2,0,1
 1044 302 1044 302 982 239 c 128,-1,2
 920 176 920 176 848 176 c 2,3,-1
 794 176 l 2,4,5
 726 176 726 176 676 246 c 0,6,7
 640 300 640 300 640 340 c 1,8,9
 630 326 630 326 630 294 c 0,10,11
 630 76 630 76 800 76 c 2,12,-1
 1000 76 l 1,13,-1
 1000 -68 l 1,14,-1
 866 -68 l 2,15,16
 784 -68 784 -68 756 -122 c 1,17,-1
 720 -230 l 1,18,19
 678 -320 678 -320 508 -320 c 2,20,-1
 398 -320 l 2,21,22
 306 -320 306 -320 237 -258 c 128,-1,23
 168 -196 168 -196 168 -114 c 2,24,-1
 168 52 l 1,25,-1
 340 52 l 1,26,-1
 340 -82 l 2,27,28
 340 -174 340 -174 420 -174 c 2,29,-1
 512 -174 l 2,30,31
 566 -174 566 -174 592 -100 c 128,-1,32
 618 -26 618 -26 686 -6 c 1,33,34
 476 52 476 52 476 298 c 0,35,36
 476 398 476 398 530 486 c 128,-1,37
 584 574 584 574 664 574 c 2,38,-1
 790 574 l 2,39,40
 842 574 842 574 842 534 c 2,41,-1
 842 484 l 1,42,43
 812 484 812 484 793 459 c 128,-1,44
 774 434 774 434 774 406 c 0,45,46
 774 318 774 318 824 318 c 0,47,48
 868 318 868 318 868 442 c 2,49,-1
 868 532 l 2,50,51
 868 764 868 764 746 764 c 2,52,-1
 346 764 l 2,53,54
 302 764 302 764 256 720 c 0,55,56
 218 684 218 684 206 652 c 1,57,58
 238 668 238 668 276 668 c 0,59,60
 346 668 346 668 401 620 c 128,-1,61
 456 572 456 572 456 494 c 2,62,-1
 456 312 l 2,63,64
 456 244 456 244 391 191 c 128,-1,65
 326 138 326 138 242 138 c 0,66,67
 152 138 152 138 88 195 c 128,-1,68
 24 252 24 252 24 356 c 2,69,-1
 24 576 l 2,70,71
 24 694 24 694 125 804 c 128,-1,72
 226 914 226 914 372 914 c 2,73,-1
 732 914 l 2,74,75
 882 914 882 914 970 796 c 0,76,77
 1044 692 1044 692 1044 550 c 2,78,-1
 1044 390 l 2,0,1
278 318 m 2,79,-1
 278 444 l 2,80,81
 278 488 278 488 238 488 c 0,82,83
 202 488 202 488 202 450 c 2,84,-1
 202 322 l 2,85,86
 202 282 202 282 240 282 c 256,87,88
 278 282 278 282 278 318 c 2,79,-1
EndSplineSet
EndChar

StartChar: tm_oo
Encoding: 2963 2963 59
Width: 1068
GlyphClass: 2
Flags: W
LayerCount: 2
Fore
SplineSet
1044 390 m 2,0,1
 1044 300 1044 300 986 240 c 128,-1,2
 928 180 928 180 856 180 c 2,3,-1
 804 180 l 2,4,5
 684 180 684 180 636 346 c 1,6,7
 624 316 624 316 624 248 c 0,8,9
 624 188 624 188 658 142 c 0,10,11
 700 84 700 84 780 84 c 2,12,-1
 1006 84 l 1,13,-1
 1006 -60 l 1,14,-1
 856 -60 l 2,15,16
 788 -60 788 -60 768 -116 c 1,17,-1
 736 -230 l 1,18,19
 694 -320 694 -320 518 -320 c 2,20,-1
 390 -320 l 2,21,22
 294 -320 294 -320 231 -275 c 128,-1,23
 168 -230 168 -230 168 -148 c 2,24,-1
 168 -96 l 2,25,26
 168 -54 168 -54 212 -13 c 128,-1,27
 256 28 256 28 304 28 c 2,28,-1
 384 28 l 2,29,30
 468 28 468 28 510 -38 c 0,31,32
 526 -62 526 -62 532 -96 c 128,-1,33
 538 -130 538 -130 538 -168 c 1,34,35
 572 -156 572 -156 598 -87 c 128,-1,36
 624 -18 624 -18 684 4 c 1,37,38
 478 28 478 28 478 302 c 0,39,40
 478 410 478 410 533 493 c 128,-1,41
 588 576 588 576 676 576 c 2,42,-1
 798 576 l 2,43,44
 840 576 840 576 840 534 c 2,45,-1
 840 484 l 1,46,47
 810 484 810 484 791 456 c 128,-1,48
 772 428 772 428 772 400 c 256,49,50
 772 372 772 372 786 348 c 128,-1,51
 800 324 800 324 822 320 c 0,52,53
 844 320 844 320 857 361 c 128,-1,54
 870 402 870 402 870 444 c 2,55,-1
 870 550 l 2,56,57
 870 768 870 768 752 768 c 2,58,-1
 356 768 l 2,59,60
 308 768 308 768 262 728 c 0,61,62
 238 708 238 708 226 691 c 128,-1,63
 214 674 214 674 214 654 c 1,64,65
 246 670 246 670 280 670 c 0,66,67
 346 670 346 670 402 620 c 128,-1,68
 458 570 458 570 458 490 c 2,69,-1
 458 348 l 2,70,71
 458 250 458 250 390 190 c 0,72,73
 328 140 328 140 240 140 c 0,74,75
 146 140 146 140 85 198 c 128,-1,76
 24 256 24 256 24 374 c 2,77,-1
 24 560 l 2,78,79
 24 688 24 688 123 801 c 128,-1,80
 222 914 222 914 362 914 c 2,81,-1
 742 914 l 2,82,83
 882 914 882 914 968 802 c 0,84,85
 1044 704 1044 704 1044 568 c 2,86,-1
 1044 390 l 2,0,1
278 320 m 2,87,-1
 278 452 l 2,88,89
 278 488 278 488 244 488 c 0,90,91
 204 488 204 488 204 452 c 2,92,-1
 204 318 l 2,93,94
 204 282 204 282 242 282 c 0,95,96
 278 282 278 282 278 320 c 2,87,-1
384 -170 m 2,97,-1
 384 -140 l 2,98,99
 384 -122 384 -122 364 -120 c 0,100,101
 346 -120 346 -120 342 -144 c 1,102,-1
 342 -170 l 2,103,104
 342 -188 342 -188 364 -190 c 0,105,106
 382 -190 382 -190 384 -170 c 2,97,-1
EndSplineSet
EndChar

StartChar: tm_ka
Encoding: 2965 2965 61
Width: 984
GlyphClass: 2
Flags: W
LayerCount: 2
Fore
SplineSet
960 202 m 2,0,1
 960 112 960 112 876 46 c 0,2,3
 800 -12 800 -12 722 -12 c 0,4,5
 632 -12 632 -12 608 4 c 1,6,-1
 676 150 l 1,7,-1
 718 140 l 2,8,9
 732 140 732 140 758 168 c 128,-1,10
 784 196 784 196 784 228 c 2,11,-1
 784 296 l 2,12,13
 784 352 784 352 706 352 c 2,14,-1
 658 352 l 1,15,-1
 658 244 l 2,16,17
 658 0 658 0 320 0 c 0,18,19
 204 0 204 0 114 62 c 128,-1,20
 24 124 24 124 24 216 c 2,21,-1
 24 362 l 2,22,23
 24 412 24 412 56 456 c 128,-1,24
 88 500 88 500 150 500 c 1,25,-1
 178 498 l 1,26,-1
 178 768 l 1,27,-1
 862 768 l 1,28,-1
 862 620 l 1,29,-1
 662 620 l 1,30,-1
 662 494 l 1,31,-1
 740 494 l 2,32,33
 838 494 838 494 899 451 c 128,-1,34
 960 408 960 408 960 326 c 2,35,-1
 960 202 l 2,0,1
484 498 m 1,36,-1
 484 622 l 1,37,-1
 356 622 l 1,38,-1
 356 498 l 1,39,-1
 484 498 l 1,36,-1
480 240 m 2,40,-1
 480 356 l 1,41,-1
 218 356 l 1,42,-1
 218 228 l 2,43,44
 218 194 218 194 266 166 c 1,45,46
 310 146 310 146 350 146 c 0,47,48
 386 146 386 146 426 166 c 0,49,50
 480 194 480 194 480 240 c 2,40,-1
EndSplineSet
EndChar

StartChar: tm_nga
Encoding: 2969 2969 62
Width: 1194
GlyphClass: 2
Flags: W
LayerCount: 2
Fore
SplineSet
1154 0 m 1,0,-1
 572 0 l 1,1,-1
 572 154 l 1,2,3
 656 176 656 176 656 242 c 2,4,-1
 656 318 l 2,5,6
 656 380 656 380 604 380 c 0,7,8
 568 380 568 380 532 338 c 1,9,-1
 532 0 l 1,10,-1
 354 0 l 1,11,-1
 354 624 l 1,12,-1
 226 624 l 1,13,-1
 226 0 l 1,14,-1
 40 0 l 1,15,-1
 40 770 l 1,16,-1
 738 770 l 1,17,-1
 738 624 l 1,18,-1
 532 624 l 1,19,-1
 532 504 l 1,20,21
 576 524 576 524 624 524 c 0,22,23
 700 524 700 524 766 470 c 128,-1,24
 832 416 832 416 832 324 c 0,25,26
 832 238 832 238 794 192 c 0,27,28
 780 172 780 172 736 144 c 1,29,-1
 978 144 l 1,30,-1
 978 758 l 1,31,-1
 1154 758 l 1,32,-1
 1154 0 l 1,0,-1
EndSplineSet
EndChar

StartChar: tm_ca
Encoding: 2970 2970 63
Width: 918
GlyphClass: 2
Flags: W
LayerCount: 2
Fore
SplineSet
904 350 m 1,0,-1
 652 350 l 1,1,-1
 652 242 l 2,2,3
 652 0 652 0 316 0 c 0,4,5
 200 0 200 0 112 64 c 128,-1,6
 24 128 24 128 24 220 c 2,7,-1
 24 360 l 2,8,9
 24 410 24 410 56 454 c 128,-1,10
 88 498 88 498 150 498 c 1,11,-1
 178 496 l 1,12,-1
 178 766 l 1,13,-1
 854 766 l 1,14,-1
 854 618 l 1,15,-1
 652 618 l 1,16,-1
 652 494 l 1,17,-1
 904 494 l 1,18,-1
 904 350 l 1,0,-1
474 496 m 1,19,-1
 474 622 l 1,20,-1
 350 622 l 1,21,-1
 350 496 l 1,22,-1
 474 496 l 1,19,-1
472 238 m 2,23,-1
 472 352 l 1,24,-1
 220 352 l 1,25,-1
 220 224 l 2,26,27
 220 190 220 190 263 168 c 128,-1,28
 306 146 306 146 344 146 c 0,29,30
 388 146 388 146 430 170 c 128,-1,31
 472 194 472 194 472 238 c 2,23,-1
EndSplineSet
EndChar

StartChar: tm_ja
Encoding: 2972 2972 64
Width: 1058
GlyphClass: 2
Flags: W
LayerCount: 2
Fore
SplineSet
1034 384 m 2,0,1
 1034 296 1034 296 986 218 c 1,2,3
 938 148 938 148 884 132 c 1,4,5
 1030 84 1030 84 1030 -38 c 2,6,-1
 1030 -116 l 2,7,8
 1030 -180 1030 -180 968 -233 c 128,-1,9
 906 -286 906 -286 820 -286 c 2,10,-1
 676 -286 l 2,11,12
 588 -286 588 -286 530 -190 c 1,13,-1
 624 -60 l 1,14,15
 660 -142 660 -142 718 -142 c 2,16,-1
 796 -142 l 2,17,18
 812 -142 812 -142 832 -126 c 128,-1,19
 852 -110 852 -110 854 -84 c 2,20,-1
 854 -52 l 2,21,22
 854 -34 854 -34 836 -16 c 0,23,24
 820 -4 820 -4 788 0 c 1,25,-1
 702 0 l 2,26,27
 654 0 654 0 592 -74 c 2,28,-1
 482 -214 l 1,29,30
 408 -288 408 -288 320 -288 c 2,31,-1
 262 -288 l 2,32,33
 164 -288 164 -288 93 -228 c 128,-1,34
 22 -168 22 -168 22 -80 c 2,35,-1
 22 4 l 2,36,37
 22 100 22 100 101 163 c 128,-1,38
 180 226 180 226 330 226 c 2,39,-1
 702 226 l 2,40,41
 774 226 774 226 816 274 c 128,-1,42
 858 322 858 322 858 390 c 2,43,-1
 858 472 l 2,44,45
 858 624 858 624 764 624 c 0,46,47
 718 624 718 624 688 580 c 1,48,49
 662 534 662 534 662 484 c 2,50,-1
 662 316 l 1,51,-1
 490 316 l 1,52,-1
 490 460 l 2,53,54
 490 632 490 632 352 632 c 2,55,-1
 292 632 l 2,56,57
 226 632 226 632 204 592 c 1,58,59
 232 598 232 598 243 600 c 128,-1,60
 254 602 254 602 280 602 c 0,61,62
 358 602 358 602 403 555 c 128,-1,63
 448 508 448 508 448 442 c 0,64,65
 448 364 448 364 386 308 c 0,66,67
 324 256 324 256 244 256 c 0,68,69
 162 256 162 256 94 307 c 128,-1,70
 26 358 26 358 26 450 c 2,71,-1
 26 512 l 2,72,73
 26 768 26 768 312 768 c 2,74,-1
 382 768 l 2,75,76
 442 768 442 768 504 730 c 0,77,78
 552 700 552 700 566 668 c 1,79,-1
 620 726 l 1,80,81
 674 768 674 768 752 768 c 2,82,-1
 836 768 l 2,83,84
 918 768 918 768 980 682 c 0,85,86
 1034 604 1034 604 1034 522 c 2,87,-1
 1034 384 l 2,0,1
276 426 m 2,88,-1
 276 448 l 2,89,90
 276 472 276 472 248 472 c 2,91,-1
 224 472 l 2,92,93
 200 472 200 472 200 450 c 2,94,-1
 200 432 l 2,95,96
 200 402 200 402 230 402 c 2,97,-1
 252 402 l 2,98,99
 276 402 276 402 276 426 c 2,88,-1
554 80 m 1,100,-1
 376 80 l 2,101,102
 198 80 198 80 198 -14 c 2,103,-1
 198 -68 l 2,104,105
 198 -146 198 -146 284 -146 c 2,106,-1
 342 -146 l 1,107,108
 364 -136 364 -136 441 -38 c 128,-1,109
 518 60 518 60 554 80 c 1,100,-1
EndSplineSet
EndChar

StartChar: tm_nya
Encoding: 2974 2974 65
Width: 1378
GlyphClass: 2
Flags: W
LayerCount: 2
Fore
SplineSet
1354 62 m 2,0,1
 1354 -82 1354 -82 1236 -180 c 0,2,3
 1128 -270 1128 -270 982 -270 c 2,4,-1
 480 -270 l 2,5,6
 296 -270 296 -270 168 -154 c 128,-1,7
 40 -38 40 -38 40 124 c 2,8,-1
 40 392 l 2,9,10
 40 622 40 622 302 776 c 1,11,-1
 362 658 l 1,12,13
 218 544 218 544 218 388 c 2,14,-1
 218 150 l 2,15,16
 218 42 218 42 303 -43 c 128,-1,17
 388 -128 388 -128 512 -128 c 2,18,-1
 960 -128 l 2,19,20
 1038 -128 1038 -128 1106 -78 c 128,-1,21
 1174 -28 1174 -28 1174 50 c 2,22,-1
 1174 236 l 2,23,24
 1174 312 1174 312 1124 312 c 0,25,26
 1094 312 1094 312 1050 268 c 1,27,-1
 1050 0 l 1,28,-1
 874 0 l 1,29,-1
 874 620 l 1,30,-1
 648 620 l 2,31,32
 598 620 598 620 554 580 c 128,-1,33
 510 540 510 540 504 508 c 1,34,35
 534 526 534 526 570 526 c 0,36,37
 634 526 634 526 687 470 c 128,-1,38
 740 414 740 414 740 332 c 2,39,-1
 740 204 l 2,40,41
 740 100 740 100 670 48 c 0,42,43
 612 2 612 2 522 2 c 0,44,45
 434 2 434 2 375 56 c 128,-1,46
 316 110 316 110 316 216 c 2,47,-1
 316 436 l 2,48,49
 316 566 316 566 412 666 c 128,-1,50
 508 766 508 766 648 766 c 2,51,-1
 1250 766 l 1,52,-1
 1250 620 l 1,53,-1
 1050 620 l 1,54,-1
 1050 428 l 1,55,56
 1096 454 1096 454 1148 454 c 0,57,58
 1220 454 1220 454 1278 408 c 0,59,60
 1354 350 1354 350 1354 244 c 2,61,-1
 1354 62 l 2,0,1
570 176 m 2,62,-1
 570 306 l 2,63,64
 570 342 570 342 534 342 c 0,65,66
 494 342 494 342 494 308 c 2,67,-1
 494 174 l 2,68,69
 494 146 494 146 534 146 c 0,70,71
 570 146 570 146 570 176 c 2,62,-1
EndSplineSet
EndChar

StartChar: tm_tta
Encoding: 2975 2975 66
Width: 958
GlyphClass: 2
Flags: W
LayerCount: 2
Fore
SplineSet
944 0 m 1,0,-1
 40 0 l 1,1,-1
 40 770 l 1,2,-1
 222 770 l 1,3,-1
 222 146 l 1,4,-1
 944 146 l 1,5,-1
 944 0 l 1,0,-1
EndSplineSet
EndChar

StartChar: tm_nna
Encoding: 2979 2979 67
Width: 1896
GlyphClass: 2
Flags: W
LayerCount: 2
Fore
SplineSet
1882 626 m 1,0,-1
 1678 626 l 1,1,-1
 1678 0 l 1,2,-1
 1494 0 l 1,3,-1
 1494 622 l 1,4,-1
 1366 622 l 1,5,6
 1388 604 1388 604 1409 548 c 128,-1,7
 1430 492 1430 492 1430 440 c 2,8,-1
 1430 184 l 2,9,10
 1430 106 1430 106 1368 53 c 128,-1,11
 1306 0 1306 0 1212 0 c 0,12,13
 1122 0 1122 0 1062 54 c 128,-1,14
 1002 108 1002 108 1002 194 c 2,15,-1
 1002 450 l 2,16,17
 1002 532 1002 532 1090 620 c 1,18,-1
 882 620 l 1,19,20
 912 608 912 608 938 555 c 128,-1,21
 964 502 964 502 964 442 c 2,22,-1
 964 196 l 2,23,24
 964 100 964 100 892 46 c 0,25,26
 830 0 830 0 736 0 c 0,27,28
 660 0 660 0 593 52 c 128,-1,29
 526 104 526 104 526 188 c 2,30,-1
 526 432 l 2,31,32
 526 518 526 518 618 622 c 1,33,-1
 376 622 l 2,34,35
 282 622 282 622 216 512 c 1,36,37
 250 530 250 530 288 530 c 0,38,39
 360 530 360 530 415 475 c 128,-1,40
 470 420 470 420 470 352 c 2,41,-1
 470 200 l 2,42,43
 470 96 470 96 390 40 c 0,44,45
 328 0 328 0 236 0 c 0,46,47
 156 0 156 0 98 50 c 0,48,49
 30 112 30 112 30 212 c 2,50,-1
 30 412 l 2,51,52
 30 556 30 556 123 662 c 128,-1,53
 216 768 216 768 366 768 c 2,54,-1
 526 768 l 2,55,56
 694 768 694 768 724 718 c 1,57,58
 836 768 836 768 876 768 c 2,59,-1
 1020 768 l 2,60,61
 1134 768 1134 768 1204 716 c 1,62,63
 1216 728 1216 728 1262 748 c 128,-1,64
 1308 768 1308 768 1338 768 c 2,65,-1
 1882 768 l 1,66,-1
 1882 626 l 1,0,-1
786 192 m 2,67,-1
 786 486 l 2,68,69
 786 524 786 524 754 568 c 1,70,71
 712 544 712 544 712 490 c 2,72,-1
 712 192 l 2,73,74
 712 152 712 152 752 152 c 0,75,76
 786 152 786 152 786 192 c 2,67,-1
1252 184 m 2,77,-1
 1252 464 l 2,78,79
 1252 522 1252 522 1222 564 c 1,80,81
 1182 496 1182 496 1182 442 c 2,82,-1
 1182 184 l 2,83,84
 1182 150 1182 150 1216 150 c 0,85,86
 1252 150 1252 150 1252 184 c 2,77,-1
284 180 m 2,87,-1
 284 320 l 2,88,89
 284 350 284 350 252 350 c 0,90,91
 212 350 212 350 212 316 c 2,92,-1
 212 184 l 2,93,94
 212 152 212 152 250 152 c 0,95,96
 282 152 282 152 284 180 c 2,87,-1
EndSplineSet
EndChar

StartChar: tm_ta
Encoding: 2980 2980 68
Width: 976
GlyphClass: 2
Flags: W
LayerCount: 2
Fore
SplineSet
952 136 m 2,0,1
 952 -18 952 -18 846 -117 c 128,-1,2
 740 -216 740 -216 576 -216 c 2,3,-1
 242 -216 l 2,4,5
 166 -216 166 -216 166 -272 c 2,6,-1
 166 -414 l 1,7,-1
 -12 -414 l 1,8,-1
 -12 -252 l 2,9,10
 -12 -182 -12 -182 42 -126 c 128,-1,11
 96 -70 96 -70 194 -70 c 2,12,-1
 582 -70 l 2,13,14
 652 -70 652 -70 713 -18 c 128,-1,15
 774 34 774 34 774 106 c 2,16,-1
 774 280 l 2,17,18
 774 352 774 352 704 352 c 2,19,-1
 656 352 l 1,20,-1
 656 248 l 2,21,22
 656 0 656 0 316 0 c 0,23,24
 200 0 200 0 112 64 c 128,-1,25
 24 128 24 128 24 220 c 2,26,-1
 24 362 l 2,27,28
 24 422 24 422 61 461 c 128,-1,29
 98 500 98 500 148 500 c 1,30,-1
 176 496 l 1,31,-1
 176 768 l 1,32,-1
 854 768 l 1,33,-1
 854 620 l 1,34,-1
 658 620 l 1,35,-1
 658 496 l 1,36,-1
 738 496 l 2,37,38
 830 496 830 496 891 444 c 128,-1,39
 952 392 952 392 952 312 c 2,40,-1
 952 136 l 2,0,1
482 496 m 1,41,-1
 482 622 l 1,42,-1
 356 622 l 1,43,-1
 356 496 l 1,44,-1
 482 496 l 1,41,-1
480 238 m 2,45,-1
 480 352 l 1,46,-1
 218 352 l 1,47,-1
 218 224 l 2,48,49
 218 188 218 188 274 162 c 0,50,51
 314 144 314 144 346 144 c 0,52,53
 390 144 390 144 435 168 c 128,-1,54
 480 192 480 192 480 238 c 2,45,-1
EndSplineSet
EndChar

StartChar: tm_na
Encoding: 2984 2984 69
Width: 874
GlyphClass: 2
Flags: W
LayerCount: 2
Fore
SplineSet
850 6 m 2,0,1
 850 -128 850 -128 746 -184 c 0,2,3
 664 -226 664 -226 494 -226 c 2,4,-1
 250 -226 l 2,5,6
 212 -226 212 -226 196 -236 c 128,-1,7
 180 -246 180 -246 180 -284 c 2,8,-1
 180 -428 l 1,9,-1
 -4 -428 l 1,10,-1
 -4 -274 l 2,11,12
 -4 -202 -4 -202 53 -141 c 128,-1,13
 110 -80 110 -80 220 -80 c 2,14,-1
 522 -80 l 2,15,16
 664 -80 664 -80 664 18 c 2,17,-1
 664 240 l 2,18,19
 664 312 664 312 612 312 c 0,20,21
 538 312 538 312 538 240 c 2,22,-1
 538 -2 l 1,23,-1
 356 -2 l 1,24,-1
 356 624 l 1,25,-1
 228 624 l 1,26,-1
 228 -2 l 1,27,-1
 42 -2 l 1,28,-1
 42 768 l 1,29,-1
 740 768 l 1,30,-1
 740 624 l 1,31,-1
 538 624 l 1,32,-1
 538 438 l 1,33,34
 596 456 596 456 644 456 c 0,35,36
 746 456 746 456 806 378 c 0,37,38
 826 350 826 350 838 318 c 128,-1,39
 850 286 850 286 850 256 c 2,40,-1
 850 6 l 2,0,1
EndSplineSet
EndChar

StartChar: tm_nnna
Encoding: 2985 2985 70
Width: 1448
GlyphClass: 2
Flags: W
LayerCount: 2
Fore
SplineSet
1436 624 m 1,0,-1
 1232 624 l 1,1,-1
 1232 -10 l 1,2,-1
 1054 -10 l 1,3,-1
 1054 622 l 1,4,-1
 886 622 l 1,5,6
 906 606 906 606 938 550 c 1,7,8
 966 488 966 488 966 442 c 2,9,-1
 966 184 l 2,10,11
 966 104 966 104 902 52 c 128,-1,12
 838 0 838 0 736 0 c 0,13,14
 646 0 646 0 581 54 c 128,-1,15
 516 108 516 108 516 194 c 2,16,-1
 516 452 l 2,17,18
 516 500 516 500 548 553 c 128,-1,19
 580 606 580 606 604 618 c 1,20,-1
 372 618 l 2,21,22
 288 618 288 618 212 506 c 1,23,24
 250 528 250 528 290 528 c 0,25,26
 362 528 362 528 418 469 c 128,-1,27
 474 410 474 410 474 334 c 2,28,-1
 474 198 l 2,29,30
 474 0 474 0 232 0 c 0,31,32
 156 0 156 0 98 52 c 0,33,34
 30 114 30 114 30 216 c 2,35,-1
 30 416 l 2,36,37
 30 560 30 560 123 664 c 128,-1,38
 216 768 216 768 364 768 c 2,39,-1
 582 768 l 2,40,41
 622 768 622 768 668 753 c 128,-1,42
 714 738 714 738 736 716 c 1,43,44
 746 730 746 730 803 749 c 128,-1,45
 860 768 860 768 916 768 c 2,46,-1
 1436 768 l 1,47,-1
 1436 624 l 1,0,-1
780 186 m 2,48,-1
 780 482 l 2,49,50
 780 526 780 526 742 570 c 1,51,52
 706 530 706 530 706 478 c 2,53,-1
 706 186 l 2,54,55
 706 148 706 148 746 148 c 0,56,57
 780 148 780 148 780 186 c 2,48,-1
288 176 m 2,58,-1
 288 306 l 2,59,60
 288 344 288 344 248 344 c 0,61,62
 216 344 216 344 216 306 c 2,63,-1
 216 178 l 2,64,65
 216 144 216 144 250 144 c 0,66,67
 286 144 286 144 288 176 c 2,58,-1
EndSplineSet
EndChar

StartChar: tm_pa
Encoding: 2986 2986 71
Width: 804
GlyphClass: 2
Flags: W
LayerCount: 2
Fore
SplineSet
764 0 m 1,0,-1
 40 0 l 1,1,-1
 40 770 l 1,2,-1
 220 770 l 1,3,-1
 220 148 l 1,4,-1
 590 148 l 1,5,-1
 590 770 l 1,6,-1
 764 770 l 1,7,-1
 764 0 l 1,0,-1
EndSplineSet
EndChar

StartChar: tm_ma
Encoding: 2990 2990 72
Width: 944
GlyphClass: 2
Flags: W
LayerCount: 2
Fore
SplineSet
914 194 m 2,0,1
 914 0 914 0 764 0 c 2,2,-1
 40 0 l 1,3,-1
 40 768 l 1,4,-1
 218 768 l 1,5,-1
 218 144 l 1,6,-1
 438 144 l 1,7,-1
 438 594 l 2,8,9
 438 676 438 676 510 728 c 0,10,11
 572 768 572 768 664 768 c 0,12,13
 778 768 778 768 846 700 c 128,-1,14
 914 632 914 632 914 516 c 2,15,-1
 914 194 l 2,0,1
736 146 m 1,16,-1
 736 524 l 2,17,18
 736 624 736 624 674 624 c 0,19,20
 636 624 636 624 626 609 c 128,-1,21
 616 594 616 594 616 554 c 2,22,-1
 616 146 l 1,23,-1
 736 146 l 1,16,-1
EndSplineSet
EndChar

StartChar: tm_ya
Encoding: 2991 2991 73
Width: 1020
GlyphClass: 2
Flags: W
LayerCount: 2
Fore
SplineSet
980 0 m 1,0,-1
 342 0 l 1,1,-1
 342 56 l 1,2,3
 270 2 270 2 162 2 c 0,4,5
 40 2 40 2 40 110 c 2,6,-1
 40 766 l 1,7,-1
 216 766 l 1,8,-1
 216 166 l 2,9,10
 216 138 216 138 252 138 c 0,11,12
 312 138 312 138 342 216 c 1,13,-1
 342 766 l 1,14,-1
 522 766 l 1,15,-1
 522 144 l 1,16,-1
 806 144 l 1,17,-1
 806 766 l 1,18,-1
 980 766 l 1,19,-1
 980 0 l 1,0,-1
EndSplineSet
EndChar

StartChar: tm_ra
Encoding: 2992 2992 74
Width: 780
GlyphClass: 2
Flags: W
LayerCount: 2
Fore
SplineSet
766 620 m 1,0,-1
 562 620 l 1,1,-1
 562 -28 l 1,2,-1
 126 -304 l 1,3,-1
 48 -186 l 1,4,-1
 388 34 l 1,5,-1
 388 622 l 1,6,-1
 214 622 l 1,7,-1
 214 0 l 1,8,-1
 40 0 l 1,9,-1
 40 770 l 1,10,-1
 766 770 l 1,11,-1
 766 620 l 1,0,-1
EndSplineSet
EndChar

StartChar: tm_rra
Encoding: 2993 2993 75
Width: 890
GlyphClass: 2
Flags: W
LayerCount: 2
Fore
SplineSet
860 114 m 2,0,1
 860 -32 860 -32 778 -116 c 0,2,3
 686 -208 686 -208 508 -208 c 2,4,-1
 202 -208 l 2,5,6
 172 -208 172 -208 162 -216 c 1,7,8
 156 -226 156 -226 156 -258 c 2,9,-1
 156 -408 l 1,10,-1
 -26 -408 l 1,11,-1
 -26 -248 l 2,12,13
 -26 -60 -26 -60 228 -60 c 2,14,-1
 528 -60 l 2,15,16
 678 -60 678 -60 678 140 c 2,17,-1
 678 514 l 2,18,19
 678 552 678 552 655 585 c 128,-1,20
 632 618 632 618 590 618 c 0,21,22
 510 618 510 618 510 516 c 2,23,-1
 510 0 l 1,24,-1
 332 0 l 1,25,-1
 332 538 l 2,26,27
 332 616 332 616 278 616 c 0,28,29
 212 616 212 616 212 544 c 2,30,-1
 212 0 l 1,31,-1
 30 0 l 1,32,-1
 30 532 l 2,33,34
 30 630 30 630 103 698 c 128,-1,35
 176 766 176 766 250 766 c 0,36,37
 356 766 356 766 444 686 c 1,38,39
 516 768 516 768 636 768 c 0,40,41
 708 768 708 768 784 698 c 128,-1,42
 860 628 860 628 860 522 c 2,43,-1
 860 114 l 2,0,1
EndSplineSet
EndChar

StartChar: tm_la
Encoding: 2994 2994 76
Width: 1046
GlyphClass: 2
Flags: W
LayerCount: 2
Fore
SplineSet
278 182 m 2,0,-1
 278 312 l 2,1,2
 278 348 278 348 240 348 c 0,3,4
 204 348 204 348 204 312 c 2,5,-1
 204 180 l 2,6,7
 204 152 204 152 242 152 c 0,8,9
 278 152 278 152 278 182 c 2,0,-1
774 812 m 1,10,-1
 850 780 l 1,11,12
 1016 690 1016 690 1016 518 c 2,13,-1
 1016 256 l 2,14,15
 1016 140 1016 140 936 70 c 128,-1,16
 856 0 856 0 748 0 c 0,17,18
 652 0 652 0 576 54 c 0,19,20
 496 116 496 116 496 220 c 2,21,-1
 496 440 l 2,22,23
 496 542 496 542 480 576 c 0,24,25
 458 622 458 622 392 622 c 2,26,-1
 322 622 l 2,27,28
 266 622 266 622 232 590 c 0,29,30
 206 566 206 566 206 522 c 2,31,-1
 206 502 l 1,32,33
 242 528 242 528 282 528 c 0,34,35
 356 528 356 528 405 479 c 128,-1,36
 454 430 454 430 454 346 c 2,37,-1
 454 196 l 2,38,39
 454 126 454 126 386 60 c 0,40,41
 320 0 320 0 236 0 c 256,42,43
 152 0 152 0 88 54 c 0,44,45
 30 108 30 108 30 198 c 2,46,-1
 30 518 l 2,47,48
 30 632 30 632 98 702 c 1,49,50
 170 770 170 770 302 770 c 2,51,-1
 432 770 l 2,52,53
 536 770 536 770 606 692 c 0,54,55
 666 622 666 622 666 526 c 2,56,-1
 666 230 l 2,57,58
 666 150 666 150 752 150 c 0,59,60
 844 150 844 150 844 242 c 2,61,-1
 844 486 l 2,62,63
 844 586 844 586 796 620 c 1,64,65
 768 630 768 630 740 646 c 128,-1,66
 712 662 712 662 684 678 c 1,67,68
 700 712 700 712 716 748 c 1,69,70
 764 808 764 808 774 812 c 1,10,-1
EndSplineSet
EndChar

StartChar: tm_lla
Encoding: 2995 2995 77
Width: 1224
GlyphClass: 2
Flags: W
LayerCount: 2
Fore
SplineSet
1210 624 m 1,0,-1
 1006 624 l 1,1,-1
 1006 -2 l 1,2,-1
 834 -2 l 1,3,-1
 834 624 l 1,4,-1
 776 624 l 2,5,6
 710 624 710 624 710 544 c 2,7,-1
 710 -2 l 1,8,-1
 530 -2 l 1,9,-1
 530 498 l 2,10,11
 530 620 530 620 418 620 c 2,12,-1
 336 620 l 2,13,14
 284 620 284 620 246 592 c 128,-1,15
 208 564 208 564 214 504 c 1,16,17
 254 524 254 524 292 524 c 0,18,19
 356 524 356 524 407 477 c 128,-1,20
 458 430 458 430 458 352 c 2,21,-1
 458 190 l 2,22,23
 458 100 458 100 386 46 c 0,24,25
 322 0 322 0 232 0 c 0,26,27
 148 0 148 0 94 52 c 1,28,29
 30 106 30 106 30 210 c 2,30,-1
 30 436 l 2,31,32
 30 590 30 590 68 652 c 0,33,34
 138 766 138 766 320 766 c 2,35,-1
 450 766 l 2,36,37
 530 766 530 766 606 698 c 1,38,-1
 654 738 l 1,39,40
 702 768 702 768 766 768 c 2,41,-1
 1210 768 l 1,42,-1
 1210 624 l 1,0,-1
286 178 m 2,43,-1
 286 326 l 2,44,45
 286 362 286 362 246 362 c 0,46,47
 208 362 208 362 208 324 c 2,48,-1
 208 176 l 2,49,50
 208 144 208 144 244 144 c 0,51,52
 286 144 286 144 286 178 c 2,43,-1
EndSplineSet
EndChar

StartChar: tm_llla
Encoding: 2996 2996 78
Width: 966
GlyphClass: 2
Flags: W
LayerCount: 2
Fore
SplineSet
936 160 m 2,0,1
 936 104 936 104 906 58 c 0,2,3
 868 2 868 2 796 2 c 2,4,-1
 626 2 l 1,5,6
 614 -76 614 -76 720 -76 c 2,7,-1
 846 -76 l 1,8,-1
 846 -220 l 1,9,-1
 686 -220 l 2,10,11
 638 -220 638 -220 600 -266 c 2,12,-1
 544 -342 l 1,13,14
 456 -420 456 -420 292 -420 c 0,15,16
 178 -420 178 -420 96 -360 c 0,17,18
 6 -290 6 -290 6 -162 c 2,19,-1
 6 -112 l 1,20,-1
 194 -112 l 1,21,-1
 192 -156 l 1,22,23
 192 -276 192 -276 294 -276 c 0,24,25
 378 -276 378 -276 441 -213 c 128,-1,26
 504 -150 504 -150 528 -144 c 1,27,28
 448 -100 448 -100 448 0 c 1,29,-1
 40 0 l 1,30,-1
 40 766 l 1,31,-1
 214 766 l 1,32,-1
 214 146 l 1,33,-1
 446 146 l 1,34,-1
 446 614 l 2,35,36
 446 674 446 674 508 722 c 0,37,38
 538 744 538 744 580 756 c 128,-1,39
 622 768 622 768 680 768 c 0,40,41
 936 768 936 768 936 498 c 2,42,-1
 936 160 l 2,0,1
756 146 m 1,43,-1
 756 510 l 2,44,45
 756 626 756 626 690 626 c 0,46,47
 626 626 626 626 626 550 c 2,48,-1
 626 146 l 1,49,-1
 756 146 l 1,43,-1
EndSplineSet
EndChar

StartChar: tm_va
Encoding: 2997 2997 79
Width: 1120
GlyphClass: 2
Flags: W
LayerCount: 2
Fore
SplineSet
1078 0 m 1,0,-1
 484 0 l 1,1,-1
 484 142 l 1,2,3
 560 166 560 166 586 236 c 0,4,5
 602 280 602 280 602 376 c 2,6,-1
 602 472 l 2,7,8
 602 624 602 624 466 624 c 2,9,-1
 376 624 l 2,10,11
 206 624 206 624 218 510 c 1,12,13
 254 528 254 528 292 528 c 0,14,15
 358 528 358 528 409 478 c 128,-1,16
 460 428 460 428 460 366 c 2,17,-1
 460 196 l 2,18,19
 460 116 460 116 393 59 c 128,-1,20
 326 2 326 2 242 2 c 0,21,22
 30 2 30 2 30 210 c 2,23,-1
 30 462 l 2,24,25
 30 632 30 632 106 700 c 128,-1,26
 182 768 182 768 342 768 c 2,27,-1
 508 768 l 2,28,29
 636 768 636 768 707 694 c 128,-1,30
 778 620 778 620 778 504 c 2,31,-1
 778 332 l 2,32,33
 778 270 778 270 741 217 c 128,-1,34
 704 164 704 164 654 146 c 1,35,-1
 900 146 l 1,36,-1
 900 768 l 1,37,-1
 1078 768 l 1,38,-1
 1078 0 l 1,0,-1
284 178 m 2,39,-1
 284 310 l 2,40,41
 284 346 284 346 248 346 c 0,42,43
 206 346 206 346 206 310 c 2,44,-1
 206 176 l 2,45,46
 206 144 206 144 250 144 c 0,47,48
 284 144 284 144 284 178 c 2,39,-1
EndSplineSet
EndChar

StartChar: tm_ssa
Encoding: 2999 2999 80
Width: 1382
GlyphClass: 2
Flags: W
LayerCount: 2
Fore
SplineSet
1362 0 m 1,0,-1
 1066 0 l 1,1,-1
 970 -98 l 1,2,3
 904 -176 904 -176 904 -254 c 2,4,-1
 904 -394 l 1,5,-1
 722 -394 l 1,6,-1
 722 -244 l 2,7,8
 722 -160 722 -160 874 0 c 1,9,-1
 478 0 l 1,10,-1
 478 134 l 1,11,12
 528 170 528 170 570 244 c 0,13,14
 600 302 600 302 602 332 c 2,15,-1
 602 482 l 2,16,17
 602 622 602 622 456 622 c 2,18,-1
 364 622 l 2,19,20
 274 622 274 622 240 582 c 0,21,22
 224 562 224 562 224 512 c 1,23,24
 260 530 260 530 296 530 c 0,25,26
 362 530 362 530 412 477 c 128,-1,27
 462 424 462 424 462 362 c 2,28,-1
 462 208 l 2,29,30
 462 116 462 116 390 56 c 0,31,32
 318 0 318 0 228 0 c 0,33,34
 142 0 142 0 86 52 c 128,-1,35
 30 104 30 104 30 200 c 2,36,-1
 30 490 l 2,37,38
 30 766 30 766 328 766 c 2,39,-1
 514 766 l 2,40,41
 622 766 622 766 703 693 c 128,-1,42
 784 620 784 620 784 516 c 2,43,-1
 784 340 l 2,44,45
 784 274 784 274 749 223 c 128,-1,46
 714 172 714 172 664 150 c 1,47,-1
 914 150 l 1,48,49
 844 204 844 204 844 342 c 2,50,-1
 844 578 l 2,51,52
 844 664 844 664 911 717 c 128,-1,53
 978 770 978 770 1064 770 c 0,54,55
 1148 770 1148 770 1213 716 c 128,-1,56
 1278 662 1278 662 1278 578 c 2,57,-1
 1278 350 l 2,58,59
 1278 230 1278 230 1184 142 c 1,60,-1
 1362 142 l 1,61,-1
 1362 0 l 1,0,-1
1100 302 m 2,62,-1
 1100 584 l 2,63,64
 1100 620 1100 620 1058 620 c 0,65,66
 1024 620 1024 620 1024 578 c 2,67,-1
 1024 306 l 2,68,69
 1024 262 1024 262 1058 226 c 1,70,71
 1100 272 1100 272 1100 302 c 2,62,-1
280 184 m 2,72,-1
 280 312 l 2,73,74
 280 348 280 348 246 348 c 0,75,76
 210 348 210 348 210 312 c 2,77,-1
 210 180 l 2,78,79
 210 148 210 148 248 148 c 0,80,81
 280 148 280 148 280 184 c 2,72,-1
EndSplineSet
EndChar

StartChar: tm_sa
Encoding: 3000 3000 81
Width: 1416
GlyphClass: 2
Flags: W
LayerCount: 2
Fore
SplineSet
1386 246 m 2,0,1
 1386 140 1386 140 1305 71 c 128,-1,2
 1224 2 1224 2 1110 2 c 0,3,4
 1004 2 1004 2 930 62 c 128,-1,5
 856 122 856 122 856 234 c 2,6,-1
 856 502 l 2,7,8
 856 622 856 622 776 622 c 0,9,10
 682 622 682 622 682 532 c 2,11,-1
 682 0 l 1,12,-1
 506 0 l 1,13,-1
 506 504 l 2,14,15
 506 622 506 622 388 622 c 2,16,-1
 342 622 l 2,17,18
 294 622 294 622 251 594 c 128,-1,19
 208 566 208 566 208 524 c 1,20,-1
 210 504 l 1,21,22
 260 524 260 524 302 524 c 0,23,24
 372 524 372 524 418 478 c 128,-1,25
 464 432 464 432 464 354 c 2,26,-1
 464 190 l 2,27,28
 464 100 464 100 396 46 c 0,29,30
 336 -2 336 -2 246 -2 c 0,31,32
 164 -2 164 -2 100 50 c 0,33,34
 30 108 30 108 30 194 c 2,35,-1
 30 440 l 2,36,37
 30 592 30 592 61 645 c 128,-1,38
 92 698 92 698 165 732 c 128,-1,39
 238 766 238 766 310 766 c 2,40,-1
 440 766 l 2,41,42
 506 766 506 766 554 732 c 1,43,-1
 616 678 l 1,44,45
 684 770 684 770 810 770 c 0,46,47
 892 770 892 770 958 716 c 1,48,49
 1032 648 1032 648 1032 524 c 2,50,-1
 1032 224 l 2,51,52
 1032 146 1032 146 1112 146 c 0,53,54
 1208 146 1208 146 1208 230 c 2,55,-1
 1208 506 l 2,56,57
 1208 640 1208 640 1050 684 c 1,58,-1
 1142 808 l 1,59,60
 1212 802 1212 802 1290 726 c 0,61,62
 1386 636 1386 636 1386 514 c 2,63,-1
 1386 246 l 2,0,1
288 176 m 2,64,-1
 288 308 l 2,65,66
 288 340 288 340 248 340 c 0,67,68
 206 340 206 340 206 310 c 2,69,-1
 206 178 l 2,70,71
 206 138 206 138 248 138 c 0,72,73
 288 138 288 138 288 176 c 2,64,-1
EndSplineSet
EndChar

StartChar: tm_ha
Encoding: 3001 3001 82
Width: 1694
GlyphClass: 2
Flags: W
LayerCount: 2
Fore
SplineSet
1664 114 m 2,0,1
 1664 -214 1664 -214 1310 -214 c 2,2,-1
 236 -214 l 2,3,4
 196 -214 196 -214 183 -223 c 128,-1,5
 170 -232 170 -232 170 -262 c 2,6,-1
 170 -414 l 1,7,-1
 -8 -414 l 1,8,-1
 -8 -250 l 2,9,10
 -8 -66 -8 -66 224 -66 c 2,11,-1
 1330 -66 l 2,12,13
 1486 -66 1486 -66 1486 140 c 2,14,-1
 1486 512 l 2,15,16
 1486 550 1486 550 1460 586 c 128,-1,17
 1434 622 1434 622 1392 622 c 0,18,19
 1310 622 1310 622 1310 518 c 2,20,-1
 1310 0 l 1,21,-1
 1138 0 l 1,22,-1
 1138 540 l 2,23,24
 1138 622 1138 622 1082 622 c 0,25,26
 1012 622 1012 622 1012 528 c 2,27,-1
 1012 0 l 1,28,-1
 482 0 l 1,29,-1
 482 134 l 1,30,31
 606 206 606 206 606 322 c 2,32,-1
 606 490 l 2,33,34
 606 624 606 624 448 624 c 2,35,-1
 358 624 l 2,36,37
 262 624 262 624 230 580 c 0,38,39
 214 558 214 558 214 504 c 1,40,41
 252 526 252 526 292 526 c 0,42,43
 358 526 358 526 409 477 c 128,-1,44
 460 428 460 428 460 364 c 2,45,-1
 460 208 l 2,46,47
 460 118 460 118 392 59 c 128,-1,48
 324 0 324 0 236 0 c 256,49,50
 148 0 148 0 92 50 c 0,51,52
 30 106 30 106 30 200 c 2,53,-1
 30 498 l 2,54,55
 30 768 30 768 342 768 c 2,56,-1
 508 768 l 2,57,58
 618 768 618 768 696 697 c 128,-1,59
 774 626 774 626 774 518 c 2,60,-1
 774 332 l 2,61,62
 774 210 774 210 656 146 c 1,63,-1
 834 146 l 1,64,-1
 834 534 l 2,65,66
 834 632 834 632 907 699 c 128,-1,67
 980 766 980 766 1054 766 c 0,68,69
 1168 766 1168 766 1248 684 c 1,70,71
 1308 768 1308 768 1430 768 c 0,72,73
 1508 768 1508 768 1580 708 c 0,74,75
 1664 638 1664 638 1664 524 c 2,76,-1
 1664 114 l 2,0,1
280 184 m 2,77,-1
 280 314 l 2,78,79
 280 348 280 348 246 348 c 0,80,81
 206 348 206 348 206 312 c 2,82,-1
 206 180 l 2,83,84
 206 148 206 148 248 148 c 0,85,86
 280 148 280 148 280 184 c 2,77,-1
EndSplineSet
EndChar

StartChar: tm_aakaar
Encoding: 3006 3006 83
Width: 792
GlyphClass: 2
Flags: W
LayerCount: 2
Fore
SplineSet
778 618 m 1,0,-1
 580 618 l 1,1,-1
 580 0 l 1,2,-1
 402 0 l 1,3,-1
 402 620 l 1,4,-1
 216 620 l 1,5,-1
 216 0 l 1,6,-1
 40 0 l 1,7,-1
 40 768 l 1,8,-1
 778 768 l 1,9,-1
 778 618 l 1,0,-1
EndSplineSet
EndChar

StartChar: tm_ikaar
Encoding: 3007 3007 84
Width: 836
GlyphClass: 2
Flags: W
LayerCount: 2
Fore
SplineSet
1160 -2 m 1,0,-1
 990 -2 l 1,1,-1
 990 784 l 2,2,3
 990 990 990 990 784 990 c 0,4,5
 706 990 706 990 660 944 c 0,6,7
 614 902 614 902 614 842 c 0,8,9
 614 802 614 802 626 768 c 1,10,-1
 450 768 l 1,11,12
 446 782 446 782 443 795 c 128,-1,13
 440 808 440 808 440 832 c 0,14,15
 440 988 440 988 552 1068 c 0,16,17
 648 1134 648 1134 802 1134 c 0,18,19
 960 1134 960 1134 1060 1034 c 128,-1,20
 1160 934 1160 934 1160 746 c 2,21,-1
 1160 -2 l 1,0,-1
EndSplineSet
EndChar

StartChar: tm_iikaar
Encoding: 3008 3008 85
Width: 890
GlyphClass: 4
Flags: W
LayerCount: 2
Fore
SplineSet
990 942 m 2,0,1
 990 902 990 902 943 864 c 128,-1,2
 896 826 896 826 840 826 c 2,3,-1
 772 826 l 2,4,5
 708 826 708 826 665 873 c 128,-1,6
 622 920 622 920 622 980 c 0,7,8
 622 1000 622 1000 626 1010 c 1,9,10
 574 988 574 988 574 900 c 0,11,12
 574 828 574 828 610 768 c 1,13,-1
 436 768 l 1,14,15
 404 826 404 826 404 874 c 2,16,-1
 404 964 l 2,17,18
 404 1054 404 1054 488 1114 c 0,19,20
 562 1166 562 1166 648 1166 c 2,21,-1
 780 1166 l 2,22,23
 862 1166 862 1166 928 1124 c 0,24,25
 990 1080 990 1080 990 1026 c 2,26,-1
 990 942 l 2,0,1
820 992 m 2,27,-1
 820 1020 l 2,28,29
 820 1038 820 1038 798 1038 c 0,30,31
 774 1038 774 1038 774 1020 c 2,32,-1
 774 994 l 2,33,34
 774 976 774 976 798 972 c 0,35,36
 818 972 818 972 820 992 c 2,27,-1
EndSplineSet
EndChar

StartChar: tm_ukaar
Encoding: 3009 3009 86
Width: 560
GlyphClass: 4
Flags: W
LayerCount: 2
Fore
SplineSet
348 418 m 2,0,-1
 348 544 l 2,1,2
 348 568 348 568 308 588 c 1,3,4
 272 576 272 576 272 542 c 2,5,-1
 272 408 l 2,6,7
 272 378 272 378 298 378 c 2,8,-1
 316 378 l 2,9,10
 348 378 348 378 348 418 c 2,0,-1
-250 632 m 1,11,12
 -272 640 -272 640 -286 648 c 0,13,14
 -326 670 -326 670 -346 674 c 1,15,-1
 -254 794 l 1,16,17
 -216 794 -216 794 -210 768 c 1,18,-1
 318 768 l 2,19,20
 386 768 386 768 448 724 c 0,21,22
 524 670 524 670 524 570 c 2,23,-1
 524 418 l 2,24,25
 524 338 524 338 457 285 c 128,-1,26
 390 232 390 232 304 232 c 0,27,28
 214 232 214 232 152 292 c 128,-1,29
 90 352 90 352 90 430 c 2,30,-1
 90 498 l 2,31,32
 90 528 90 528 103 575 c 128,-1,33
 116 622 116 622 144 628 c 1,34,-1
 -250 632 l 1,11,12
EndSplineSet
EndChar

StartChar: tm_uukaar
Encoding: 3010 3010 87
Width: 540
GlyphClass: 4
Flags: W
LayerCount: 2
Fore
SplineSet
336 412 m 2,0,-1
 336 546 l 2,1,2
 336 580 336 580 310 598 c 0,3,4
 288 610 288 610 258 606 c 1,5,-1
 258 404 l 2,6,7
 258 374 258 374 282 374 c 2,8,-1
 308 374 l 2,9,10
 336 374 336 374 336 412 c 2,0,-1
-360 676 m 1,11,-1
 -270 808 l 1,12,13
 -246 806 -246 806 -182 770 c 1,14,-1
 96 770 l 1,15,-1
 96 974 l 2,16,17
 96 1070 96 1070 162 1123 c 128,-1,18
 228 1176 228 1176 320 1176 c 0,19,20
 390 1176 390 1176 459 1125 c 128,-1,21
 528 1074 528 1074 528 994 c 2,22,-1
 528 884 l 1,23,-1
 354 884 l 1,24,-1
 354 990 l 2,25,26
 354 1032 354 1032 314 1032 c 256,27,28
 274 1032 274 1032 274 988 c 2,29,-1
 274 762 l 1,30,-1
 316 768 l 1,31,32
 388 768 388 768 449 713 c 128,-1,33
 510 658 510 658 510 570 c 2,34,-1
 510 432 l 2,35,36
 510 348 510 348 443 288 c 128,-1,37
 376 228 376 228 286 228 c 0,38,39
 192 228 192 228 137 286 c 128,-1,40
 82 344 82 344 82 422 c 2,41,-1
 82 626 l 1,42,-1
 -244 624 l 1,43,44
 -268 638 -268 638 -282 644 c 0,45,46
 -328 666 -328 666 -360 676 c 1,11,-1
EndSplineSet
EndChar

StartChar: tm_ekaar
Encoding: 3014 3014 88
Width: 848
GlyphClass: 2
Flags: W
LayerCount: 2
Fore
SplineSet
808 0 m 1,0,-1
 634 0 l 1,1,-1
 634 740 l 2,2,3
 634 924 634 924 488 924 c 2,4,-1
 396 924 l 2,5,6
 302 924 302 924 260 883 c 128,-1,7
 218 842 218 842 218 732 c 2,8,-1
 218 508 l 1,9,10
 262 528 262 528 298 528 c 0,11,12
 366 528 366 528 416 477 c 128,-1,13
 466 426 466 426 466 346 c 2,14,-1
 466 192 l 2,15,16
 466 98 466 98 403 47 c 128,-1,17
 340 -4 340 -4 252 -4 c 0,18,19
 162 -4 162 -4 101 56 c 128,-1,20
 40 116 40 116 40 212 c 2,21,-1
 40 788 l 2,22,23
 40 910 40 910 139 990 c 128,-1,24
 238 1070 238 1070 382 1070 c 2,25,-1
 512 1070 l 2,26,27
 632 1070 632 1070 720 996 c 128,-1,28
 808 922 808 922 808 794 c 2,29,-1
 808 0 l 1,0,-1
294 176 m 2,30,-1
 294 308 l 2,31,32
 294 344 294 344 254 344 c 0,33,34
 218 344 218 344 218 310 c 2,35,-1
 218 174 l 2,36,37
 218 142 218 142 258 142 c 0,38,39
 294 142 294 142 294 176 c 2,30,-1
EndSplineSet
EndChar

StartChar: tm_eekaar
Encoding: 3015 3015 89
Width: 836
GlyphClass: 2
Flags: W
LayerCount: 2
Fore
SplineSet
806 194 m 2,0,1
 806 120 806 120 730 58 c 0,2,3
 654 0 654 0 548 0 c 2,4,-1
 352 0 l 2,5,6
 222 0 222 0 131 111 c 128,-1,7
 40 222 40 222 40 354 c 2,8,-1
 40 870 l 2,9,10
 40 998 40 998 144 1072 c 1,11,12
 242 1136 242 1136 394 1136 c 2,13,-1
 554 1136 l 2,14,15
 650 1136 650 1136 721 1077 c 128,-1,16
 792 1018 792 1018 792 916 c 2,17,-1
 792 832 l 2,18,19
 792 746 792 746 718 690 c 0,20,21
 654 644 654 644 572 644 c 0,22,23
 488 644 488 644 424 694 c 128,-1,24
 360 744 360 744 360 832 c 2,25,-1
 360 908 l 2,26,27
 360 938 360 938 378 962 c 2,28,-1
 404 990 l 1,29,-1
 382 990 l 2,30,31
 328 990 328 990 284 964 c 0,32,33
 216 920 216 920 216 818 c 2,34,-1
 216 348 l 2,35,36
 216 264 216 264 266 200 c 1,37,38
 318 140 318 140 390 140 c 1,39,-1
 430 146 l 1,40,41
 370 168 370 168 370 282 c 2,42,-1
 370 390 l 2,43,44
 370 454 370 454 438 507 c 128,-1,45
 506 560 506 560 598 560 c 0,46,47
 688 560 688 560 748 498 c 0,48,49
 778 466 778 466 792 434 c 128,-1,50
 806 402 806 402 806 358 c 2,51,-1
 806 194 l 2,0,1
606 814 m 2,52,-1
 606 956 l 2,53,54
 606 988 606 988 570 988 c 0,55,56
 540 988 540 988 538 960 c 2,57,-1
 538 816 l 2,58,59
 538 788 538 788 572 788 c 0,60,61
 604 788 604 788 606 814 c 2,52,-1
630 192 m 2,62,-1
 630 388 l 2,63,64
 630 418 630 418 590 418 c 0,65,66
 554 418 554 418 554 386 c 2,67,-1
 554 192 l 2,68,69
 554 158 554 158 594 158 c 0,70,71
 630 158 630 158 630 192 c 2,62,-1
EndSplineSet
EndChar

StartChar: tm_aikaar
Encoding: 3016 3016 90
Width: 1326
GlyphClass: 2
Flags: W
LayerCount: 2
Fore
SplineSet
1296 290 m 2,0,1
 1296 168 1296 168 1200 72 c 0,2,3
 1124 -2 1124 -2 1018 -26 c 1,4,-1
 984 96 l 1,5,6
 1024 104 1024 104 1068 156 c 128,-1,7
 1112 208 1112 208 1112 268 c 2,8,-1
 1112 448 l 2,9,10
 1112 510 1112 510 1083 564 c 128,-1,11
 1054 618 1054 618 1002 618 c 2,12,-1
 896 618 l 1,13,14
 924 594 924 594 945 531 c 128,-1,15
 966 468 966 468 966 412 c 2,16,-1
 966 196 l 2,17,18
 966 104 966 104 902 52 c 128,-1,19
 838 0 838 0 750 0 c 256,20,21
 662 0 662 0 596 53 c 128,-1,22
 530 106 530 106 530 190 c 2,23,-1
 530 422 l 2,24,25
 530 500 530 500 566 560 c 1,26,-1
 610 620 l 1,27,-1
 380 620 l 2,28,29
 278 620 278 620 218 510 c 1,30,31
 254 524 254 524 284 524 c 0,32,33
 358 524 358 524 416 469 c 128,-1,34
 474 414 474 414 474 328 c 2,35,-1
 474 184 l 2,36,37
 474 98 474 98 402 44 c 1,38,39
 332 0 332 0 244 0 c 0,40,41
 150 0 150 0 90 53 c 128,-1,42
 30 106 30 106 30 212 c 2,43,-1
 30 418 l 2,44,45
 30 554 30 554 127 660 c 128,-1,46
 224 766 224 766 368 766 c 2,47,-1
 548 766 l 2,48,49
 678 766 678 766 724 714 c 1,50,51
 810 766 810 766 868 766 c 2,52,-1
 1022 766 l 2,53,54
 1124 766 1124 766 1210 662 c 128,-1,55
 1296 558 1296 558 1296 434 c 2,56,-1
 1296 290 l 2,0,1
786 194 m 2,57,-1
 786 468 l 2,58,59
 786 542 786 542 752 560 c 1,60,61
 714 554 714 554 714 470 c 2,62,-1
 714 188 l 2,63,64
 714 150 714 150 754 150 c 0,65,66
 786 150 786 150 786 194 c 2,57,-1
286 174 m 2,67,-1
 286 310 l 2,68,69
 286 340 286 340 250 340 c 256,70,71
 214 340 214 340 212 308 c 2,72,-1
 212 174 l 2,73,74
 212 144 212 144 250 144 c 0,75,76
 286 144 286 144 286 174 c 2,67,-1
EndSplineSet
EndChar

StartChar: tm_halant
Encoding: 3021 3021 94
Width: 339
GlyphClass: 4
Flags: W
LayerCount: 2
Fore
SplineSet
223 1149 m 0,0,1
 157 1149 157 1149 109.5 1196.5 c 128,-1,2
 62 1244 62 1244 62 1310 c 0,3,4
 62 1378 62 1378 109.5 1424.5 c 128,-1,5
 157 1471 157 1471 223 1471 c 0,6,7
 290 1471 290 1471 337 1424.5 c 128,-1,8
 384 1378 384 1378 384 1310 c 0,9,10
 384 1244 384 1244 337 1196.5 c 128,-1,11
 290 1149 290 1149 223 1149 c 0,0,1
EndSplineSet
EndChar

StartChar: tm_two
Encoding: 3048 3048 97
Width: 1425
GlyphClass: 2
Flags: W
LayerCount: 2
Fore
SplineSet
1244 70 m 1,0,-1
 1226 0 l 1,1,-1
 586 0 l 2,2,3
 429 0 429 0 429 106 c 0,4,5
 429 153 429 153 478 181.5 c 128,-1,6
 527 210 527 210 586 210 c 2,7,-1
 779 210 l 2,8,9
 867 210 867 210 928 271.5 c 128,-1,10
 989 333 989 333 989 420 c 0,11,12
 989 500 989 500 945 560.5 c 128,-1,13
 901 621 901 621 831 621 c 0,14,15
 793 621 793 621 744 595 c 1,16,17
 814 555 814 555 814 437 c 0,18,19
 814 382 814 382 772.5 344.5 c 128,-1,20
 731 307 731 307 675 307 c 0,21,22
 618 307 618 307 580 351 c 128,-1,23
 542 395 542 395 542 455 c 0,24,25
 542 565 542 565 646.5 632.5 c 128,-1,26
 751 700 751 700 884 700 c 0,27,28
 987 700 987 700 1058 629 c 128,-1,29
 1129 558 1129 558 1129 455 c 0,30,31
 1129 321 1129 321 1025.5 230.5 c 128,-1,32
 922 140 922 140 779 140 c 2,33,-1
 595 140 l 2,34,35
 551 140 551 140 551 106 c 0,36,37
 551 70 551 70 604 70 c 2,38,-1
 1244 70 l 1,0,-1
675 560 m 1,39,40
 621 516 621 516 621 473 c 0,41,42
 621 386 621 386 666 386 c 0,43,44
 709 386 709 386 709 473 c 0,45,46
 709 518 709 518 675 560 c 1,39,40
EndSplineSet
EndChar

StartChar: tm_three
Encoding: 3049 3049 98
Width: 1424
GlyphClass: 2
Flags: W
LayerCount: 2
Fore
SplineSet
1270 70 m 1,0,-1
 1252 0 l 1,1,-1
 640 0 l 1,2,-1
 657 70 l 1,3,-1
 780 70 l 2,4,5
 874 70 874 70 941 130.5 c 128,-1,6
 1008 191 1008 191 1008 280 c 0,7,8
 1008 317 1008 317 982.5 342.5 c 128,-1,9
 957 368 957 368 920 368 c 0,10,11
 890 368 890 368 865 341 c 128,-1,12
 840 314 840 314 833 280 c 2,13,-1
 815 193 l 1,14,-1
 675 193 l 1,15,-1
 764 630 l 1,16,-1
 571 630 l 1,17,-1
 444 0 l 1,18,-1
 378 0 l 1,19,-1
 517 700 l 1,20,-1
 1095 700 l 1,21,-1
 1077 630 l 1,22,-1
 902 630 l 1,23,-1
 859 403 l 1,24,25
 918 455 918 455 990 455 c 0,26,27
 1057 455 1057 455 1102.5 403.5 c 128,-1,28
 1148 352 1148 352 1148 280 c 0,29,30
 1148 209 1148 209 1090 151 c 128,-1,31
 1032 93 1032 93 947 70 c 1,32,-1
 1270 70 l 1,0,-1
EndSplineSet
EndChar

StartChar: tm_four
Encoding: 3050 3050 99
Width: 1427
GlyphClass: 2
Flags: W
LayerCount: 2
Fore
SplineSet
915 316 m 1,0,-1
 644 316 l 2,1,2
 601 316 601 316 570.5 291 c 128,-1,3
 540 266 540 266 540 228 c 0,4,5
 540 158 540 158 609.5 114 c 128,-1,6
 679 70 679 70 766 70 c 0,7,8
 811 70 811 70 844 99.5 c 128,-1,9
 877 129 877 129 887 175 c 2,10,-1
 915 316 l 1,0,-1
979 630 m 1,11,-1
 784 630 l 1,12,-1
 735 386 l 1,13,-1
 930 386 l 1,14,-1
 979 630 l 1,11,-1
1042 245 m 2,15,16
 1017 125 1017 125 940 62.5 c 128,-1,17
 863 0 863 0 766 0 c 0,18,19
 651 0 651 0 559.5 64 c 128,-1,20
 468 128 468 128 468 228 c 0,21,22
 468 294 468 294 520.5 340 c 128,-1,23
 573 386 573 386 644 386 c 2,24,-1
 669 386 l 1,25,-1
 731 700 l 1,26,-1
 1344 700 l 1,27,-1
 1329 630 l 1,28,-1
 1118 630 l 1,29,-1
 1068 386 l 1,30,-1
 1232 386 l 1,31,-1
 1248 464 l 1,32,-1
 1309 464 l 1,33,-1
 1279 316 l 1,34,-1
 1055 316 l 1,35,-1
 1042 245 l 2,15,16
EndSplineSet
EndChar

StartChar: tm_five
Encoding: 3051 3051 100
Width: 1424
GlyphClass: 2
Flags: W
LayerCount: 2
Fore
SplineSet
1412 517 m 1,0,-1
 1359 526 l 1,1,2
 1369 563 1369 563 1369 598 c 0,3,4
 1369 723 1369 723 1253.5 825.5 c 128,-1,5
 1138 928 1138 928 965 928 c 0,6,7
 728 928 728 928 575.5 716 c 128,-1,8
 423 504 423 504 423 228 c 0,9,10
 423 -43 423 -43 515 -179.5 c 128,-1,11
 607 -316 607 -316 790 -316 c 0,12,13
 979 -316 979 -316 1103.5 -163.5 c 128,-1,14
 1228 -11 1228 -11 1228 193 c 0,15,16
 1228 257 1228 257 1200 304.5 c 128,-1,17
 1172 352 1172 352 1126 352 c 0,18,19
 1099 352 1099 352 1072.5 336.5 c 128,-1,20
 1046 321 1046 321 1039 298 c 2,21,-1
 980 0 l 1,22,-1
 840 0 l 1,23,-1
 965 630 l 1,24,-1
 759 630 l 1,25,-1
 634 0 l 1,26,-1
 566 0 l 1,27,-1
 706 700 l 1,28,-1
 1237 700 l 1,29,-1
 1219 630 l 1,30,-1
 1105 630 l 1,31,-1
 1057 386 l 1,32,33
 1101 437 1101 437 1171 437 c 0,34,35
 1261 437 1261 437 1314.5 368.5 c 128,-1,36
 1368 300 1368 300 1368 193 c 0,37,38
 1368 -47 1368 -47 1202.5 -216 c 128,-1,39
 1037 -385 1037 -385 799 -385 c 0,40,41
 589 -385 589 -385 471.5 -223 c 128,-1,42
 354 -61 354 -61 354 193 c 0,43,44
 354 513 354 513 519 764 c 128,-1,45
 684 1015 684 1015 948 1015 c 0,46,47
 1152 1015 1152 1015 1288.5 889.5 c 128,-1,48
 1425 764 1425 764 1425 613 c 0,49,50
 1425 566 1425 566 1412 517 c 1,0,-1
EndSplineSet
EndChar

StartChar: tm_six
Encoding: 3052 3052 101
Width: 1424
GlyphClass: 2
Flags: W
LayerCount: 2
Fore
SplineSet
784 316 m 1,0,-1
 513 316 l 2,1,2
 469 316 469 316 438 291 c 128,-1,3
 407 266 407 266 407 228 c 0,4,5
 407 158 407 158 477 114 c 128,-1,6
 547 70 547 70 635 70 c 0,7,8
 680 70 680 70 713 99.5 c 128,-1,9
 746 129 746 129 756 175 c 2,10,-1
 784 316 l 1,0,-1
846 630 m 1,11,-1
 653 630 l 1,12,-1
 603 386 l 1,13,-1
 798 386 l 1,14,-1
 846 630 l 1,11,-1
910 245 m 2,15,16
 884 125 884 125 808 62.5 c 128,-1,17
 732 0 732 0 635 0 c 0,18,19
 518 0 518 0 428 64 c 128,-1,20
 338 128 338 128 338 228 c 0,21,22
 338 294 338 294 389.5 340 c 128,-1,23
 441 386 441 386 513 386 c 2,24,-1
 537 386 l 1,25,-1
 600 700 l 1,26,-1
 1229 700 l 1,27,-1
 1213 630 l 1,28,-1
 988 630 l 1,29,-1
 938 386 l 1,30,-1
 1422 386 l 1,31,-1
 1410 316 l 1,32,-1
 1353 316 l 1,33,-1
 1291 0 l 1,34,-1
 1151 0 l 1,35,-1
 1213 316 l 1,36,-1
 1116 316 l 1,37,-1
 1055 0 l 1,38,-1
 967 0 l 1,39,-1
 1028 316 l 1,40,-1
 924 316 l 1,41,-1
 910 245 l 2,15,16
EndSplineSet
EndChar

StartChar: tm_seven
Encoding: 3053 3053 102
Width: 1425
GlyphClass: 2
Flags: W
LayerCount: 2
Fore
SplineSet
643 88 m 1,0,1
 706 88 706 88 753 128 c 128,-1,2
 800 168 800 168 800 228 c 0,3,4
 800 269 800 269 781 301 c 128,-1,5
 762 333 762 333 729 333 c 0,6,7
 684 333 684 333 654.5 296.5 c 128,-1,8
 625 260 625 260 625 210 c 0,9,10
 625 135 625 135 643 88 c 1,0,1
1042 0 m 1,11,-1
 1167 630 l 1,12,-1
 852 630 l 2,13,14
 704 630 704 630 594.5 540.5 c 128,-1,15
 485 451 485 451 485 316 c 0,16,17
 485 247 485 247 507 194.5 c 128,-1,18
 529 142 529 142 572 106 c 1,19,20
 555 135 555 135 555 228 c 256,21,22
 555 321 555 321 614.5 388 c 128,-1,23
 674 455 674 455 765 455 c 0,24,25
 837 455 837 455 884 398 c 128,-1,26
 931 341 931 341 931 263 c 0,27,28
 931 155 931 155 863 77.5 c 128,-1,29
 795 0 795 0 695 0 c 0,30,31
 576 0 576 0 495.5 94 c 128,-1,32
 415 188 415 188 415 316 c 0,33,34
 415 481 415 481 545.5 590.5 c 128,-1,35
 676 700 676 700 852 700 c 2,36,-1
 1430 700 l 1,37,-1
 1412 630 l 1,38,-1
 1307 630 l 1,39,-1
 1181 0 l 1,40,-1
 1042 0 l 1,11,-1
EndSplineSet
EndChar

StartChar: tm_eight
Encoding: 3054 3054 103
Width: 1427
GlyphClass: 2
Flags: W
LayerCount: 2
Fore
SplineSet
849 629 m 1,0,1
 745 611 745 611 670 548.5 c 128,-1,2
 595 486 595 486 595 402 c 0,3,4
 595 338 595 338 638.5 291 c 128,-1,5
 682 244 682 244 744 244 c 0,6,7
 817 244 817 244 864 307.5 c 128,-1,8
 911 371 911 371 911 454 c 0,9,10
 911 580 911 580 849 629 c 1,0,1
1024 140 m 1,11,-1
 411 140 l 2,12,13
 381 140 381 140 357 125 c 128,-1,14
 333 110 333 110 333 87 c 0,15,16
 333 43 333 43 412 -13.5 c 128,-1,17
 491 -70 491 -70 639 -70 c 0,18,19
 743 -70 743 -70 839.5 -18 c 128,-1,20
 936 34 936 34 1024 140 c 1,11,-1
1414 -245 m 1,21,-1
 1269 -245 l 1,22,-1
 1348 140 l 1,23,-1
 1164 140 l 1,24,25
 1051 4 1051 4 915 -63.5 c 128,-1,26
 779 -131 779 -131 621 -131 c 0,27,28
 421 -131 421 -131 311.5 -52.5 c 128,-1,29
 202 26 202 26 202 123 c 0,30,31
 202 160 202 160 233 184.5 c 128,-1,32
 264 209 264 209 307 209 c 2,33,-1
 666 209 l 1,34,35
 604 231 604 231 565 284.5 c 128,-1,36
 526 338 526 338 526 402 c 0,37,38
 526 534 526 534 652 617 c 128,-1,39
 778 700 778 700 937 700 c 0,40,41
 1069 700 1069 700 1169 620.5 c 128,-1,42
 1269 541 1269 541 1269 420 c 0,43,44
 1269 306 1269 306 1213 209 c 1,45,-1
 1364 209 l 1,46,-1
 1463 700 l 1,47,-1
 1603 700 l 1,48,-1
 1414 -245 l 1,21,-1
989 620 m 1,49,50
 1042 530 1042 530 1042 411 c 0,51,52
 1042 267 1042 267 919 209 c 1,53,-1
 1077 209 l 1,54,55
 1146 308 1146 308 1146 402 c 0,56,57
 1146 486 1146 486 1103 553 c 128,-1,58
 1060 620 1060 620 989 620 c 1,49,50
EndSplineSet
EndChar

StartChar: tm_nine
Encoding: 3055 3055 104
Width: 1427
GlyphClass: 2
Flags: W
LayerCount: 2
Fore
SplineSet
692 316 m 1,0,-1
 422 316 l 2,1,2
 379 316 379 316 348 291 c 128,-1,3
 317 266 317 266 317 228 c 0,4,5
 317 158 317 158 387 114 c 128,-1,6
 457 70 457 70 544 70 c 0,7,8
 589 70 589 70 622 99.5 c 128,-1,9
 655 129 655 129 665 175 c 2,10,-1
 692 316 l 1,0,-1
756 630 m 1,11,-1
 562 630 l 1,12,-1
 513 386 l 1,13,-1
 707 386 l 1,14,-1
 756 630 l 1,11,-1
1157 175 m 0,15,16
 1157 259 1157 259 1052 298 c 1,17,18
 982 240 982 240 982 158 c 0,19,20
 982 121 982 121 1007.5 95.5 c 128,-1,21
 1033 70 1033 70 1068 70 c 0,22,23
 1107 70 1107 70 1132 101.5 c 128,-1,24
 1157 133 1157 133 1157 175 c 0,15,16
1297 0 m 1,25,26
 1375 93 1375 93 1375 193 c 0,27,28
 1375 263 1375 263 1332.5 315.5 c 128,-1,29
 1290 368 1290 368 1226 368 c 0,30,31
 1163 368 1163 368 1113 342 c 1,32,33
 1167 322 1167 322 1201 276.5 c 128,-1,34
 1235 231 1235 231 1235 175 c 0,35,36
 1235 104 1235 104 1187 52 c 128,-1,37
 1139 0 1139 0 1068 0 c 0,38,39
 1005 0 1005 0 958.5 46.5 c 128,-1,40
 912 93 912 93 912 158 c 0,41,42
 912 257 912 257 982 316 c 1,43,-1
 833 316 l 1,44,-1
 819 245 l 2,45,46
 795 125 795 125 718.5 62.5 c 128,-1,47
 642 0 642 0 544 0 c 0,48,49
 428 0 428 0 337 64 c 128,-1,50
 246 128 246 128 246 228 c 0,51,52
 246 294 246 294 299 340 c 128,-1,53
 352 386 352 386 422 386 c 2,54,-1
 446 386 l 1,55,-1
 508 700 l 1,56,-1
 1122 700 l 1,57,-1
 1104 630 l 1,58,-1
 896 630 l 1,59,-1
 847 386 l 1,60,-1
 947 386 l 2,61,62
 1014 386 1014 386 1052 368 c 1,63,64
 1111 420 1111 420 1226 420 c 0,65,66
 1327 420 1327 420 1399.5 354.5 c 128,-1,67
 1472 289 1472 289 1472 193 c 0,68,69
 1472 109 1472 109 1410 0 c 1,70,-1
 1297 0 l 1,25,26
EndSplineSet
EndChar

StartChar: tm_ten
Encoding: 3056 3056 105
Width: 1260
GlyphClass: 2
Flags: W
LayerCount: 2
Fore
SplineSet
597 149 m 1,0,1
 558 74 558 74 508 37 c 128,-1,2
 458 0 458 0 395 0 c 0,3,4
 302 0 302 0 242 64 c 128,-1,5
 182 128 182 128 182 200 c 0,6,7
 182 224 182 224 186 244 c 2,8,-1
 279 700 l 1,9,-1
 419 700 l 1,10,-1
 325 244 l 2,11,12
 320 223 320 223 320 205 c 0,13,14
 320 155 320 155 346.5 112.5 c 128,-1,15
 373 70 373 70 413 70 c 0,16,17
 472 70 472 70 525 146 c 128,-1,18
 578 222 578 222 606 359 c 2,19,-1
 675 700 l 1,20,-1
 815 700 l 1,21,-1
 746 351 l 2,22,23
 728 262 728 262 728 204 c 0,24,25
 728 150 728 150 760.5 110 c 128,-1,26
 793 70 793 70 841 70 c 0,27,28
 957 70 957 70 1026 204 c 128,-1,29
 1095 338 1095 338 1095 500 c 0,30,31
 1095 691 1095 691 995.5 840 c 128,-1,32
 896 989 896 989 737 989 c 1,33,-1
 755 1042 l 1,34,35
 960 1042 960 1042 1097.5 880.5 c 128,-1,36
 1235 719 1235 719 1235 500 c 0,37,38
 1235 300 1235 300 1118.5 150 c 128,-1,39
 1002 0 1002 0 824 0 c 0,40,41
 739 0 739 0 673.5 40.5 c 128,-1,42
 608 81 608 81 597 149 c 1,0,1
EndSplineSet
EndChar

StartChar: tm_hundred
Encoding: 3057 3057 106
Width: 1166
GlyphClass: 2
Flags: W
LayerCount: 2
Fore
SplineSet
1284 700 m 1,0,-1
 1267 629 l 1,1,-1
 1117 629 l 1,2,-1
 991 0 l 1,3,-1
 851 0 l 1,4,-1
 977 629 l 1,5,-1
 770 629 l 1,6,-1
 644 0 l 1,7,-1
 504 0 l 1,8,-1
 599 472 l 2,9,10
 606 507 606 507 606 534 c 0,11,12
 606 579 606 579 589 613 c 128,-1,13
 572 647 572 647 540 647 c 0,14,15
 483 647 483 647 440 595.5 c 128,-1,16
 397 544 397 544 382 472 c 2,17,-1
 285 0 l 1,18,-1
 146 0 l 1,19,-1
 242 472 l 2,20,21
 263 577 263 577 336.5 647 c 128,-1,22
 410 717 410 717 503 717 c 0,23,24
 567 717 567 717 614 679.5 c 128,-1,25
 661 642 661 642 661 585 c 1,26,-1
 685 700 l 1,27,-1
 1284 700 l 1,0,-1
EndSplineSet
EndChar

StartChar: tm_thousand
Encoding: 3058 3058 107
Width: 1256
GlyphClass: 2
Flags: W
LayerCount: 2
Fore
SplineSet
551 316 m 1,0,-1
 280 316 l 2,1,2
 237 316 237 316 206 291 c 128,-1,3
 175 266 175 266 175 228 c 0,4,5
 175 158 175 158 245.5 114 c 128,-1,6
 316 70 316 70 402 70 c 0,7,8
 447 70 447 70 480 99.5 c 128,-1,9
 513 129 513 129 523 175 c 2,10,-1
 551 316 l 1,0,-1
615 630 m 1,11,-1
 420 630 l 1,12,-1
 371 386 l 1,13,-1
 565 386 l 1,14,-1
 615 630 l 1,11,-1
677 245 m 2,15,16
 653 125 653 125 576 62.5 c 128,-1,17
 499 0 499 0 402 0 c 0,18,19
 285 0 285 0 195 64 c 128,-1,20
 105 128 105 128 105 228 c 0,21,22
 105 294 105 294 156.5 340 c 128,-1,23
 208 386 208 386 280 386 c 2,24,-1
 304 386 l 1,25,-1
 367 700 l 1,26,-1
 997 700 l 1,27,-1
 983 630 l 1,28,-1
 755 630 l 1,29,-1
 705 386 l 1,30,-1
 1120 386 l 1,31,-1
 1105 316 l 1,32,-1
 971 316 l 1,33,-1
 945 175 l 1,34,35
 990 228 990 228 1067 228 c 0,36,37
 1134 228 1134 228 1179.5 176 c 128,-1,38
 1225 124 1225 124 1225 53 c 0,39,40
 1225 -78 1225 -78 1108 -161 c 128,-1,41
 991 -244 991 -244 840 -244 c 0,42,43
 740 -244 740 -244 542 -205 c 0,44,45
 346 -167 346 -167 244 -167 c 0,46,47
 181 -167 181 -167 134 -206.5 c 128,-1,48
 87 -246 87 -246 87 -307 c 0,49,50
 87 -384 87 -384 158 -411 c 1,51,-1
 149 -445 l 1,52,53
 82 -433 82 -433 36.5 -387 c 128,-1,54
 -9 -341 -9 -341 -9 -280 c 0,55,56
 -9 -205 -9 -205 70.5 -159.5 c 128,-1,57
 150 -114 150 -114 244 -114 c 0,58,59
 346 -114 346 -114 542 -153 c 0,60,61
 740 -192 740 -192 840 -192 c 0,62,63
 938 -192 938 -192 1011.5 -135 c 128,-1,64
 1085 -78 1085 -78 1085 9 c 0,65,66
 1085 61 1085 61 1061 100.5 c 128,-1,67
 1037 140 1037 140 997 140 c 256,68,69
 957 140 957 140 927 88 c 1,70,-1
 910 0 l 1,71,-1
 769 0 l 1,72,-1
 831 316 l 1,73,-1
 691 316 l 1,74,-1
 677 245 l 2,15,16
EndSplineSet
EndChar

StartChar: zerowidthnonjoiner
Encoding: 8204 8204 108
Width: 0
GlyphClass: 2
Flags: W
LayerCount: 2
Fore
SplineSet
315 1225 m 1,0,-1
 -34 -516 l 1,1,-1
 -103 -516 l 1,2,-1
 244 1225 l 1,3,-1
 315 1225 l 1,0,-1
EndSplineSet
EndChar

StartChar: zerowidthjoiner
Encoding: 8205 8205 109
Width: 0
GlyphClass: 2
Flags: W
LayerCount: 2
Fore
SplineSet
415 997 m 1,0,-1
 363 953 l 1,1,-1
 270 1073 l 1,2,-1
 -24 -441 l 1,3,-1
 -87 -441 l 1,4,-1
 206 1073 l 1,5,-1
 65 953 l 1,6,-1
 32 997 l 1,7,-1
 210 1145 l 1,8,-1
 89 1292 l 1,9,-1
 140 1334 l 1,10,-1
 260 1185 l 1,11,-1
 437 1334 l 1,12,-1
 472 1292 l 1,13,-1
 294 1145 l 1,14,-1
 415 997 l 1,0,-1
EndSplineSet
EndChar

StartChar: u2013
Encoding: 8211 8211 110
Width: 722
GlyphClass: 2
Flags: W
LayerCount: 2
Fore
SplineSet
733 319 m 1,0,-1
 -12 319 l 1,1,-1
 -12 370 l 1,2,-1
 733 370 l 1,3,-1
 733 319 l 1,0,-1
EndSplineSet
EndChar

StartChar: u2014
Encoding: 8212 8212 111
Width: 1284
GlyphClass: 2
Flags: W
LayerCount: 2
Fore
SplineSet
1296 318 m 1,0,-1
 -13 319 l 1,1,-1
 -13 371 l 1,2,-1
 1296 370 l 1,3,-1
 1296 318 l 1,0,-1
EndSplineSet
EndChar

StartChar: u2018
Encoding: 8216 8216 112
Width: 282
GlyphClass: 2
Flags: W
LayerCount: 2
Fore
SplineSet
258 734 m 0,0,1
 258 688 258 688 223 653 c 128,-1,2
 188 618 188 618 140 618 c 256,3,4
 92 618 92 618 58 650 c 1,5,6
 26 686 26 686 26 736 c 0,7,8
 26 916 26 916 70 966 c 0,9,10
 90 990 90 990 118 998 c 128,-1,11
 146 1006 146 1006 192 1006 c 1,12,-1
 186 932 l 1,13,14
 152 926 152 926 142 916 c 0,15,16
 120 900 120 900 114 852 c 1,17,18
 188 852 188 852 223 825 c 128,-1,19
 258 798 258 798 258 734 c 0,0,1
EndSplineSet
EndChar

StartChar: u2019
Encoding: 8217 8217 113
Width: 282
GlyphClass: 2
Flags: W
LayerCount: 2
Fore
SplineSet
258 884 m 0,0,1
 258 704 258 704 214 654 c 0,2,3
 194 630 194 630 166 622 c 128,-1,4
 138 614 138 614 92 614 c 1,5,-1
 98 688 l 1,6,7
 132 694 132 694 142 704 c 0,8,9
 164 720 164 720 170 768 c 1,10,11
 96 768 96 768 61 795 c 128,-1,12
 26 822 26 822 26 886 c 0,13,14
 26 934 26 934 62 968 c 128,-1,15
 98 1002 98 1002 144 1002 c 0,16,17
 192 1002 192 1002 225 969 c 128,-1,18
 258 936 258 936 258 884 c 0,0,1
EndSplineSet
EndChar

StartChar: u2026
Encoding: 8230 8230 116
Width: 1283
GlyphClass: 2
Flags: W
LayerCount: 2
Fore
SplineSet
265 136 m 0,0,1
 298 136 298 136 320.5 114 c 128,-1,2
 343 92 343 92 343 58 c 0,3,4
 343 26 343 26 320.5 3 c 128,-1,5
 298 -20 298 -20 265 -20 c 0,6,7
 233 -20 233 -20 210 3 c 128,-1,8
 187 26 187 26 187 58 c 0,9,10
 187 92 187 92 210 114 c 128,-1,11
 233 136 233 136 265 136 c 0,0,1
638 136 m 256,12,13
 670 136 670 136 693 114 c 128,-1,14
 716 92 716 92 716 58 c 0,15,16
 716 26 716 26 692.5 3 c 128,-1,17
 669 -20 669 -20 638 -20 c 0,18,19
 606 -20 606 -20 583 3 c 128,-1,20
 560 26 560 26 560 58 c 0,21,22
 560 92 560 92 583 114 c 128,-1,23
 606 136 606 136 638 136 c 256,12,13
1010 136 m 0,24,25
 1043 136 1043 136 1066 114 c 128,-1,26
 1089 92 1089 92 1089 58 c 0,27,28
 1089 26 1089 26 1065.5 3 c 128,-1,29
 1042 -20 1042 -20 1010 -20 c 256,30,31
 978 -20 978 -20 955.5 3 c 128,-1,32
 933 26 933 26 933 58 c 0,33,34
 933 92 933 92 955.5 114 c 128,-1,35
 978 136 978 136 1010 136 c 0,24,25
EndSplineSet
EndChar

StartChar: u2212
Encoding: 8722 8722 117
Width: 974
GlyphClass: 2
Flags: W
LayerCount: 2
Fore
SplineSet
133 450 m 1,0,-1
 133 508 l 1,1,-1
 894 508 l 1,2,-1
 894 450 l 1,3,-1
 133 450 l 1,0,-1
EndSplineSet
EndChar

StartChar: u25CC
Encoding: 9676 9676 118
Width: 1167
GlyphClass: 2
Flags: W
LayerCount: 2
Fore
SplineSet
654 665 m 0,0,1
 626 665 626 665 612 679 c 128,-1,2
 598 693 598 693 598 724 c 0,3,4
 598 746 598 746 615 762.5 c 128,-1,5
 632 779 632 779 654 779 c 0,6,7
 683 779 683 779 697.5 765 c 128,-1,8
 712 751 712 751 712 724 c 0,9,10
 712 693 712 693 697.5 679 c 128,-1,11
 683 665 683 665 654 665 c 0,0,1
840 616 m 0,12,13
 811 616 811 616 796.5 630.5 c 128,-1,14
 782 645 782 645 782 674 c 0,15,16
 782 701 782 701 796.5 715 c 128,-1,17
 811 729 811 729 840 729 c 0,18,19
 862 729 862 729 879 713 c 128,-1,20
 896 697 896 697 896 674 c 0,21,22
 896 645 896 645 882 630.5 c 128,-1,23
 868 616 868 616 840 616 c 0,12,13
470 616 m 0,24,25
 442 616 442 616 428 630.5 c 128,-1,26
 414 645 414 645 414 674 c 0,27,28
 414 697 414 697 431 713 c 128,-1,29
 448 729 448 729 470 729 c 0,30,31
 494 729 494 729 510 713 c 128,-1,32
 526 697 526 697 526 674 c 0,33,34
 526 645 526 645 512.5 630.5 c 128,-1,35
 499 616 499 616 470 616 c 0,24,25
973 482 m 0,36,37
 951 482 951 482 933.5 498 c 128,-1,38
 916 514 916 514 916 538 c 0,39,40
 916 567 916 567 930.5 581 c 128,-1,41
 945 595 945 595 973 595 c 256,42,43
 1001 595 1001 595 1014.5 581 c 128,-1,44
 1028 567 1028 567 1028 538 c 0,45,46
 1028 514 1028 514 1012 498 c 128,-1,47
 996 482 996 482 973 482 c 0,36,37
336 482 m 0,48,49
 307 482 307 482 293 495.5 c 128,-1,50
 279 509 279 509 279 538 c 256,51,52
 279 567 279 567 293 581 c 128,-1,53
 307 595 307 595 336 595 c 0,54,55
 364 595 364 595 378 581 c 128,-1,56
 392 567 392 567 392 538 c 0,57,58
 392 514 392 514 375 498 c 128,-1,59
 358 482 358 482 336 482 c 0,48,49
1024 298 m 0,60,61
 994 298 994 298 979.5 311.5 c 128,-1,62
 965 325 965 325 965 354 c 0,63,64
 965 382 965 382 979.5 396 c 128,-1,65
 994 410 994 410 1024 410 c 0,66,67
 1046 410 1046 410 1063 393 c 128,-1,68
 1080 376 1080 376 1080 354 c 0,69,70
 1080 331 1080 331 1063 314.5 c 128,-1,71
 1046 298 1046 298 1024 298 c 0,60,61
287 298 m 0,72,73
 257 298 257 298 243 311.5 c 128,-1,74
 229 325 229 325 229 354 c 0,75,76
 229 382 229 382 243 396 c 128,-1,77
 257 410 257 410 287 410 c 0,78,79
 310 410 310 410 326.5 393 c 128,-1,80
 343 376 343 376 343 354 c 0,81,82
 343 331 343 331 326.5 314.5 c 128,-1,83
 310 298 310 298 287 298 c 0,72,73
973 112 m 256,84,85
 945 112 945 112 930.5 126.5 c 128,-1,86
 916 141 916 141 916 169 c 0,87,88
 916 193 916 193 933.5 209.5 c 128,-1,89
 951 226 951 226 973 226 c 0,90,91
 996 226 996 226 1012 209.5 c 128,-1,92
 1028 193 1028 193 1028 169 c 0,93,94
 1028 141 1028 141 1014.5 126.5 c 128,-1,95
 1001 112 1001 112 973 112 c 256,84,85
336 112 m 0,96,97
 307 112 307 112 293 126.5 c 128,-1,98
 279 141 279 141 279 169 c 0,99,100
 279 198 279 198 293 212 c 128,-1,101
 307 226 307 226 336 226 c 0,102,103
 358 226 358 226 375 209.5 c 128,-1,104
 392 193 392 193 392 169 c 0,105,106
 392 141 392 141 378 126.5 c 128,-1,107
 364 112 364 112 336 112 c 0,96,97
840 -22 m 0,108,109
 811 -22 811 -22 796.5 -8 c 128,-1,110
 782 6 782 6 782 34 c 0,111,112
 782 63 782 63 796.5 78 c 128,-1,113
 811 93 811 93 840 93 c 0,114,115
 863 93 863 93 879.5 75 c 128,-1,116
 896 57 896 57 896 34 c 256,117,118
 896 11 896 11 879 -5.5 c 128,-1,119
 862 -22 862 -22 840 -22 c 0,108,109
470 -22 m 0,120,121
 448 -22 448 -22 431 -5.5 c 128,-1,122
 414 11 414 11 414 34 c 256,123,124
 414 57 414 57 430.5 75 c 128,-1,125
 447 93 447 93 470 93 c 0,126,127
 495 93 495 93 510.5 75 c 128,-1,128
 526 57 526 57 526 34 c 256,129,130
 526 11 526 11 510 -5.5 c 128,-1,131
 494 -22 494 -22 470 -22 c 0,120,121
654 -72 m 0,132,133
 632 -72 632 -72 615 -55 c 128,-1,134
 598 -38 598 -38 598 -16 c 0,135,136
 598 14 598 14 612 28.5 c 128,-1,137
 626 43 626 43 654 43 c 0,138,139
 683 43 683 43 697.5 28.5 c 128,-1,140
 712 14 712 14 712 -16 c 0,141,142
 712 -44 712 -44 697.5 -58 c 128,-1,143
 683 -72 683 -72 654 -72 c 0,132,133
EndSplineSet
EndChar

StartChar: tm_k_ikaar
Encoding: 65540 -1 119
Width: 1200
GlyphClass: 2
Flags: W
LayerCount: 2
Fore
SplineSet
1160 -2 m 1,0,-1
 990 -2 l 1,1,-1
 990 784 l 2,2,3
 990 990 990 990 784 990 c 0,4,5
 706 990 706 990 660 944 c 0,6,7
 614 902 614 902 614 842 c 0,8,9
 614 802 614 802 626 768 c 1,10,-1
 852 768 l 1,11,-1
 852 620 l 1,12,-1
 646 620 l 1,13,-1
 646 498 l 1,14,-1
 734 498 l 2,15,16
 826 498 826 498 888 454 c 128,-1,17
 950 410 950 410 950 324 c 2,18,-1
 950 202 l 2,19,20
 950 116 950 116 868 48 c 0,21,22
 794 -10 794 -10 718 -10 c 0,23,24
 624 -10 624 -10 598 6 c 1,25,-1
 666 152 l 1,26,-1
 706 144 l 2,27,28
 720 144 720 144 744 168 c 128,-1,29
 768 192 768 192 768 226 c 2,30,-1
 768 298 l 2,31,32
 768 354 768 354 696 354 c 2,33,-1
 644 354 l 1,34,-1
 644 242 l 2,35,36
 644 0 644 0 314 0 c 0,37,38
 200 0 200 0 112 64 c 128,-1,39
 24 128 24 128 24 220 c 2,40,-1
 24 360 l 2,41,42
 24 408 24 408 56 454 c 128,-1,43
 88 500 88 500 150 500 c 1,44,-1
 176 498 l 1,45,-1
 176 768 l 1,46,-1
 450 768 l 1,47,48
 446 782 446 782 443 795 c 128,-1,49
 440 808 440 808 440 832 c 0,50,51
 440 988 440 988 552 1068 c 0,52,53
 648 1134 648 1134 802 1134 c 0,54,55
 960 1134 960 1134 1060 1034 c 128,-1,56
 1160 934 1160 934 1160 746 c 2,57,-1
 1160 -2 l 1,0,-1
472 498 m 1,58,-1
 472 622 l 1,59,-1
 348 622 l 1,60,-1
 348 498 l 1,61,-1
 472 498 l 1,58,-1
470 238 m 2,62,-1
 470 354 l 1,63,-1
 218 354 l 1,64,-1
 218 224 l 2,65,66
 218 188 218 188 270 164 c 0,67,68
 282 160 282 160 303 155 c 128,-1,69
 324 150 324 150 338 148 c 0,70,71
 380 148 380 148 425 173 c 128,-1,72
 470 198 470 198 470 238 c 2,62,-1
EndSplineSet
Ligature2: "'psts' Post Base Substitutions lookup 8 subtable" tm_ka tm_ikaar
EndChar

StartChar: tm_ng_ikaar
Encoding: 65541 -1 120
Width: 1483
GlyphClass: 2
Flags: W
LayerCount: 2
Fore
SplineSet
1438 40 m 1,0,-1
 1264 40 l 1,1,-1
 1264 890 l 2,2,3
 1264 966 1264 966 1212 1011 c 128,-1,4
 1160 1056 1160 1056 1078 1056 c 0,5,6
 914 1056 914 1056 914 886 c 2,7,-1
 914 772 l 2,8,9
 914 705 914 705 978 682 c 1,10,-1
 978 758 l 1,11,-1
 980 758 l 1,12,-1
 980 810 l 1,13,-1
 1154 810 l 1,14,-1
 1154 0 l 1,15,-1
 572 0 l 1,16,-1
 572 154 l 1,17,18
 656 176 656 176 656 242 c 2,19,-1
 656 318 l 2,20,21
 656 380 656 380 604 380 c 0,22,23
 568 380 568 380 532 338 c 1,24,-1
 532 0 l 1,25,-1
 354 0 l 1,26,-1
 354 624 l 1,27,-1
 226 624 l 1,28,-1
 226 0 l 1,29,-1
 40 0 l 1,30,-1
 40 770 l 1,31,-1
 730 770 l 1,32,33
 730 781 730 781 730 792 c 2,34,-1
 730 916 l 2,35,36
 730 1054 730 1054 832 1132 c 0,37,38
 926 1202 926 1202 1078 1202 c 0,39,40
 1438 1202 1438 1202 1438 814 c 2,41,-1
 1438 40 l 1,0,-1
532 624 m 1,42,-1
 532 504 l 1,43,44
 576 524 576 524 624 524 c 0,45,46
 700 524 700 524 766 470 c 128,-1,47
 832 416 832 416 832 324 c 0,48,49
 832 238 832 238 794 192 c 0,50,51
 780 172 780 172 736 144 c 1,52,-1
 978 144 l 1,53,-1
 978 532 l 1,54,55
 877 532 877 532 808 602 c 0,56,57
 755 653 755 653 738 722 c 1,58,-1
 738 624 l 1,59,-1
 532 624 l 1,42,-1
EndSplineSet
Ligature2: "'psts' Post Base Substitutions lookup 8 subtable" tm_nga tm_ikaar
EndChar

StartChar: tm_c_ikaar
Encoding: 65542 -1 121
Width: 1234
GlyphClass: 2
Flags: W
LayerCount: 2
Fore
SplineSet
1194 -2 m 1,0,-1
 1014 -2 l 1,1,-1
 1014 792 l 2,2,3
 1014 884 1014 884 954 942 c 0,4,5
 898 992 898 992 816 992 c 0,6,7
 738 992 738 992 684 952 c 0,8,9
 620 910 620 910 620 840 c 0,10,11
 620 802 620 802 630 766 c 1,12,-1
 868 766 l 1,13,-1
 868 620 l 1,14,-1
 656 620 l 1,15,-1
 656 496 l 1,16,-1
 902 496 l 1,17,-1
 902 350 l 1,18,-1
 654 350 l 1,19,-1
 654 242 l 2,20,21
 654 0 654 0 312 0 c 0,22,23
 198 0 198 0 110 65 c 128,-1,24
 22 130 22 130 22 222 c 2,25,-1
 22 362 l 2,26,27
 22 422 22 422 59 459 c 128,-1,28
 96 496 96 496 148 496 c 0,29,30
 168 496 168 496 178 492 c 1,31,-1
 178 766 l 1,32,-1
 450 766 l 1,33,34
 438 802 438 802 438 838 c 0,35,36
 438 994 438 994 572 1074 c 0,37,38
 682 1138 682 1138 836 1138 c 0,39,40
 982 1138 982 1138 1082 1044 c 0,41,42
 1194 942 1194 942 1194 768 c 2,43,-1
 1194 -2 l 1,0,-1
474 494 m 1,44,-1
 474 620 l 1,45,-1
 350 620 l 1,46,-1
 350 494 l 1,47,-1
 474 494 l 1,44,-1
472 230 m 2,48,-1
 472 352 l 1,49,-1
 218 352 l 1,50,-1
 218 224 l 2,51,52
 218 192 218 192 262 166 c 0,53,54
 302 146 302 146 342 146 c 0,55,56
 384 146 384 146 428 170 c 128,-1,57
 472 194 472 194 472 230 c 2,48,-1
EndSplineSet
Ligature2: "'psts' Post Base Substitutions lookup 8 subtable" tm_ca tm_ikaar
EndChar

StartChar: tm_j_ikaar
Encoding: 65543 -1 122
Width: 1364
GlyphClass: 2
Flags: W
LayerCount: 2
Fore
SplineSet
1324 0 m 1,0,-1
 1150 0 l 1,1,-1
 1150 778 l 2,2,3
 1150 984 1150 984 1008 984 c 0,4,5
 860 984 860 984 860 848 c 0,6,7
 860 810 860 810 874 766 c 1,8,9
 946 752 946 752 993 677 c 128,-1,10
 1040 602 1040 602 1040 532 c 2,11,-1
 1040 376 l 2,12,13
 1040 288 1040 288 990 214 c 0,14,15
 952 154 952 154 902 134 c 1,16,17
 952 122 952 122 992 78 c 0,18,19
 1042 28 1042 28 1042 -30 c 2,20,-1
 1042 -108 l 2,21,22
 1042 -188 1042 -188 981 -236 c 128,-1,23
 920 -284 920 -284 826 -284 c 2,24,-1
 690 -284 l 2,25,26
 630 -284 630 -284 584 -244 c 0,27,28
 554 -220 554 -220 542 -188 c 1,29,-1
 636 -58 l 1,30,31
 660 -138 660 -138 732 -138 c 2,32,-1
 786 -138 l 2,33,34
 866 -138 866 -138 866 -88 c 2,35,-1
 866 -56 l 2,36,37
 866 2 866 2 794 2 c 2,38,-1
 714 2 l 2,39,40
 666 2 666 2 604 -74 c 2,41,-1
 490 -218 l 1,42,43
 410 -294 410 -294 326 -294 c 2,44,-1
 268 -294 l 2,45,46
 168 -294 168 -294 97 -234 c 128,-1,47
 26 -174 26 -174 26 -90 c 2,48,-1
 26 -6 l 2,49,50
 26 94 26 94 96 158 c 0,51,52
 176 228 176 228 314 228 c 2,53,-1
 690 228 l 2,54,55
 768 228 768 228 817 271 c 128,-1,56
 866 314 866 314 866 376 c 2,57,-1
 866 488 l 2,58,59
 866 544 866 544 844 582 c 0,60,61
 820 630 820 630 766 630 c 0,62,63
 670 630 670 630 670 476 c 2,64,-1
 670 318 l 1,65,-1
 494 318 l 1,66,-1
 494 456 l 2,67,68
 494 634 494 634 356 634 c 2,69,-1
 278 634 l 2,70,71
 260 634 260 634 234 621 c 128,-1,72
 208 608 208 608 206 588 c 1,73,74
 230 594 230 594 248 598 c 128,-1,75
 266 602 266 602 288 602 c 0,76,77
 364 602 364 602 408 552 c 128,-1,78
 452 502 452 502 452 436 c 0,79,80
 452 360 452 360 390 306 c 0,81,82
 328 256 328 256 248 256 c 0,83,84
 160 256 160 256 98 300 c 0,85,86
 24 350 24 350 24 440 c 2,87,-1
 24 524 l 2,88,89
 24 638 24 638 101 703 c 128,-1,90
 178 768 178 768 280 768 c 2,91,-1
 386 768 l 2,92,93
 494 768 494 768 570 672 c 1,94,-1
 616 722 l 1,95,96
 650 750 650 750 698 762 c 1,97,98
 694 778 694 778 692 801 c 128,-1,99
 690 824 690 824 690 878 c 0,100,101
 690 1000 690 1000 777 1069 c 128,-1,102
 864 1138 864 1138 1006 1138 c 0,103,104
 1146 1138 1146 1138 1235 1061 c 128,-1,105
 1324 984 1324 984 1324 830 c 2,106,-1
 1324 0 l 1,0,-1
278 424 m 1,107,-1
 278 446 l 2,108,109
 278 470 278 470 250 470 c 2,110,-1
 224 470 l 2,111,112
 200 470 200 470 200 448 c 2,113,-1
 200 428 l 2,114,115
 200 402 200 402 232 400 c 2,116,-1
 256 400 l 2,117,118
 274 400 274 400 278 424 c 1,107,-1
560 82 m 1,119,-1
 384 82 l 2,120,121
 202 82 202 82 202 -16 c 2,122,-1
 202 -72 l 2,123,124
 202 -150 202 -150 288 -150 c 2,125,-1
 348 -150 l 1,126,127
 372 -136 372 -136 449 -40 c 128,-1,128
 526 56 526 56 560 82 c 1,119,-1
EndSplineSet
Ligature2: "'psts' Post Base Substitutions lookup 8 subtable" tm_ja tm_ikaar
EndChar

StartChar: tm_ny_ikaar
Encoding: 65544 -1 123
Width: 1604
GlyphClass: 2
Flags: W
LayerCount: 2
Fore
SplineSet
1354 62 m 2,0,1
 1354 -82 1354 -82 1236 -180 c 0,2,3
 1128 -270 1128 -270 982 -270 c 2,4,-1
 480 -270 l 2,5,6
 296 -270 296 -270 168 -154 c 128,-1,7
 40 -38 40 -38 40 124 c 2,8,-1
 40 392 l 2,9,10
 40 622 40 622 302 776 c 1,11,-1
 362 658 l 1,12,13
 218 544 218 544 218 388 c 2,14,-1
 218 150 l 2,15,16
 218 42 218 42 303 -43 c 128,-1,17
 388 -128 388 -128 512 -128 c 2,18,-1
 960 -128 l 2,19,20
 1038 -128 1038 -128 1106 -78 c 128,-1,21
 1174 -28 1174 -28 1174 50 c 2,22,-1
 1174 236 l 2,23,24
 1174 312 1174 312 1124 312 c 0,25,26
 1094 312 1094 312 1050 268 c 1,27,-1
 1050 0 l 1,28,-1
 874 0 l 1,29,-1
 874 620 l 1,30,-1
 648 620 l 2,31,32
 598 620 598 620 554 580 c 128,-1,33
 510 540 510 540 504 508 c 1,34,35
 534 526 534 526 570 526 c 0,36,37
 634 526 634 526 687 470 c 128,-1,38
 740 414 740 414 740 332 c 2,39,-1
 740 204 l 2,40,41
 740 100 740 100 670 48 c 0,42,43
 612 2 612 2 522 2 c 0,44,45
 434 2 434 2 375 56 c 128,-1,46
 316 110 316 110 316 216 c 2,47,-1
 316 436 l 2,48,49
 316 566 316 566 412 666 c 128,-1,50
 508 766 508 766 648 766 c 2,51,-1
 854 766 l 1,52,53
 853 777 853 777 852 791 c 0,54,55
 850 814 850 814 850 868 c 0,56,57
 850 990 850 990 937 1059 c 128,-1,58
 1024 1128 1024 1128 1246 1128 c 0,59,60
 1386 1128 1386 1128 1475 1051 c 128,-1,61
 1564 974 1564 974 1564 820 c 2,62,-1
 1564 -10 l 1,63,-1
 1390 -10 l 1,64,-1
 1390 768 l 2,65,66
 1390 974 1390 974 1248 974 c 0,67,68
 1020 974 1020 974 1020 838 c 0,69,70
 1020 804 1020 804 1031 766 c 1,71,-1
 1250 766 l 1,72,-1
 1250 620 l 1,73,-1
 1050 620 l 1,74,-1
 1050 428 l 1,75,76
 1096 454 1096 454 1148 454 c 0,77,78
 1220 454 1220 454 1278 408 c 0,79,80
 1354 350 1354 350 1354 244 c 2,81,-1
 1354 62 l 2,0,1
570 176 m 2,82,-1
 570 306 l 2,83,84
 570 342 570 342 534 342 c 0,85,86
 494 342 494 342 494 308 c 2,87,-1
 494 174 l 2,88,89
 494 146 494 146 534 146 c 0,90,91
 570 146 570 146 570 176 c 2,82,-1
EndSplineSet
Ligature2: "'psts' Post Base Substitutions lookup 8 subtable" tm_nya tm_ikaar
EndChar

StartChar: tm_tt_ikaar
Encoding: 65545 -1 124
Width: 952
GlyphClass: 2
Flags: W
LayerCount: 2
Fore
SplineSet
938 2 m 1,0,-1
 606 2 l 1,1,-1
 506 -112 l 2,2,3
 476 -146 476 -146 460 -179 c 128,-1,4
 444 -212 444 -212 444 -248 c 2,5,-1
 444 -400 l 1,6,-1
 266 -400 l 1,7,-1
 266 -260 l 2,8,9
 266 -182 266 -182 322 -108 c 1,10,-1
 420 2 l 1,11,-1
 40 2 l 1,12,-1
 40 766 l 1,13,-1
 220 766 l 1,14,-1
 220 146 l 1,15,-1
 464 146 l 1,16,17
 396 220 396 220 396 330 c 2,18,-1
 396 580 l 2,19,20
 396 664 396 664 456 718 c 128,-1,21
 516 772 516 772 614 772 c 0,22,23
 714 772 714 772 774 712 c 1,24,25
 824 656 824 656 824 568 c 2,26,-1
 824 326 l 2,27,28
 824 216 824 216 730 146 c 1,29,-1
 938 146 l 1,30,-1
 938 2 l 1,0,-1
646 328 m 2,31,-1
 646 586 l 2,32,33
 646 624 646 624 612 624 c 0,34,35
 574 624 574 624 574 590 c 2,36,-1
 574 328 l 2,37,38
 574 286 574 286 604 232 c 1,39,40
 646 284 646 284 646 328 c 2,31,-1
EndSplineSet
Ligature2: "'psts' Post Base Substitutions lookup 8 subtable" tm_tta tm_ikaar
EndChar

StartChar: tm_nn_ikaar
Encoding: 65546 -1 125
Width: 2202
GlyphClass: 2
Flags: W
LayerCount: 2
Fore
SplineSet
2160 0 m 1,0,-1
 1984 0 l 1,1,-1
 1984 782 l 2,2,3
 1984 996 1984 996 1828 996 c 0,4,5
 1760 996 1760 996 1709 959 c 128,-1,6
 1658 922 1658 922 1658 864 c 0,7,8
 1658 800 1658 800 1670 770 c 1,9,-1
 1908 770 l 1,10,-1
 1908 626 l 1,11,-1
 1686 626 l 1,12,-1
 1686 0 l 1,13,-1
 1510 0 l 1,14,-1
 1510 622 l 1,15,-1
 1374 622 l 1,16,17
 1394 606 1394 606 1418 548 c 128,-1,18
 1442 490 1442 490 1442 436 c 2,19,-1
 1442 186 l 2,20,21
 1442 108 1442 108 1377 54 c 128,-1,22
 1312 0 1312 0 1220 0 c 0,23,24
 1130 0 1130 0 1069 52 c 128,-1,25
 1008 104 1008 104 1008 186 c 2,26,-1
 1008 428 l 2,27,28
 1008 508 1008 508 1044 566 c 0,29,30
 1048 576 1048 576 1090 622 c 1,31,-1
 886 622 l 1,32,33
 916 604 916 604 941 543 c 128,-1,34
 966 482 966 482 966 422 c 2,35,-1
 966 192 l 2,36,37
 966 100 966 100 892 46 c 0,38,39
 830 0 830 0 742 0 c 0,40,41
 666 0 666 0 600 48 c 0,42,43
 528 102 528 102 528 186 c 2,44,-1
 528 428 l 2,45,46
 528 500 528 500 564 560 c 1,47,-1
 612 622 l 1,48,-1
 364 622 l 2,49,50
 274 622 274 622 220 510 c 1,51,52
 252 526 252 526 288 526 c 0,53,54
 356 526 356 526 414 467 c 128,-1,55
 472 408 472 408 472 336 c 2,56,-1
 472 202 l 2,57,58
 472 96 472 96 394 42 c 0,59,60
 334 0 334 0 240 0 c 0,61,62
 156 0 156 0 96 48 c 0,63,64
 30 102 30 102 30 208 c 2,65,-1
 30 428 l 2,66,67
 30 554 30 554 123 661 c 128,-1,68
 216 768 216 768 354 768 c 2,69,-1
 530 768 l 2,70,71
 674 768 674 768 720 716 c 1,72,-1
 780 748 l 2,73,74
 824 768 824 768 870 768 c 2,75,-1
 1024 768 l 2,76,77
 1136 768 1136 768 1202 716 c 1,78,79
 1214 728 1214 728 1268 748 c 128,-1,80
 1322 768 1322 768 1354 768 c 2,81,-1
 1488 768 l 1,82,-1
 1480 844 l 1,83,84
 1480 1148 1480 1148 1834 1148 c 0,85,86
 2160 1148 2160 1148 2160 780 c 2,87,-1
 2160 0 l 1,0,-1
1258 186 m 2,88,-1
 1258 472 l 2,89,90
 1258 526 1258 526 1228 568 c 1,91,92
 1188 524 1188 524 1188 476 c 2,93,-1
 1188 186 l 2,94,95
 1188 152 1188 152 1224 152 c 0,96,97
 1258 152 1258 152 1258 186 c 2,88,-1
786 196 m 2,98,-1
 786 482 l 2,99,100
 786 512 786 512 750 564 c 1,101,102
 708 546 708 546 708 488 c 2,103,-1
 708 194 l 2,104,105
 708 150 708 150 748 150 c 0,106,107
 786 150 786 150 786 196 c 2,98,-1
284 174 m 2,108,-1
 284 316 l 2,109,110
 284 348 284 348 250 348 c 0,111,112
 212 348 212 348 212 314 c 2,113,-1
 212 178 l 2,114,115
 212 148 212 148 248 148 c 256,116,117
 284 148 284 148 284 174 c 2,108,-1
EndSplineSet
Ligature2: "'psts' Post Base Substitutions lookup 8 subtable" tm_nna tm_ikaar
EndChar

StartChar: tm_t_ikaar
Encoding: 65547 -1 126
Width: 1210
GlyphClass: 2
Flags: W
LayerCount: 2
Fore
SplineSet
1170 -2 m 1,0,-1
 998 -2 l 1,1,-1
 998 770 l 2,2,3
 998 876 998 876 943 934 c 128,-1,4
 888 992 888 992 804 992 c 0,5,6
 736 992 736 992 678 952 c 128,-1,7
 620 912 620 912 620 842 c 0,8,9
 620 798 620 798 634 768 c 1,10,-1
 858 768 l 1,11,-1
 858 622 l 1,12,-1
 662 622 l 1,13,-1
 662 496 l 1,14,-1
 742 496 l 2,15,16
 834 496 834 496 896 444 c 128,-1,17
 958 392 958 392 958 310 c 2,18,-1
 958 134 l 2,19,20
 958 -14 958 -14 849 -113 c 128,-1,21
 740 -212 740 -212 576 -212 c 2,22,-1
 242 -212 l 2,23,24
 170 -212 170 -212 170 -272 c 2,25,-1
 170 -410 l 1,26,-1
 -12 -410 l 1,27,-1
 -12 -252 l 2,28,29
 -12 -178 -12 -178 46 -123 c 128,-1,30
 104 -68 104 -68 212 -68 c 2,31,-1
 582 -68 l 2,32,33
 654 -68 654 -68 718 -16 c 1,34,35
 784 32 784 32 784 106 c 2,36,-1
 784 284 l 2,37,38
 784 352 784 352 704 352 c 2,39,-1
 662 352 l 1,40,-1
 662 246 l 2,41,42
 662 0 662 0 318 0 c 0,43,44
 204 0 204 0 114 63 c 128,-1,45
 24 126 24 126 24 220 c 2,46,-1
 24 362 l 2,47,48
 24 410 24 410 55 453 c 128,-1,49
 86 496 86 496 146 496 c 2,50,-1
 176 494 l 1,51,-1
 176 768 l 1,52,-1
 448 768 l 1,53,-1
 442 842 l 1,54,55
 442 982 442 982 550 1066 c 0,56,57
 646 1138 646 1138 796 1138 c 0,58,59
 960 1138 960 1138 1060 1046 c 0,60,61
 1170 942 1170 942 1170 768 c 2,62,-1
 1170 -2 l 1,0,-1
484 496 m 1,63,-1
 484 622 l 1,64,-1
 356 622 l 1,65,-1
 356 496 l 1,66,-1
 484 496 l 1,63,-1
484 236 m 2,67,-1
 484 352 l 1,68,-1
 218 352 l 1,69,-1
 218 224 l 2,70,71
 218 188 218 188 274 164 c 0,72,73
 314 146 314 146 348 146 c 0,74,75
 392 146 392 146 438 170 c 128,-1,76
 484 194 484 194 484 236 c 2,67,-1
EndSplineSet
Ligature2: "'psts' Post Base Substitutions lookup 8 subtable" tm_ta tm_ikaar
EndChar

StartChar: tm_n_ikaar
Encoding: 65548 -1 127
Width: 1122
GlyphClass: 2
Flags: W
LayerCount: 2
Fore
SplineSet
1080 -2 m 1,0,-1
 906 -2 l 1,1,-1
 906 786 l 2,2,3
 906 988 906 988 716 988 c 0,4,5
 646 988 646 988 591 950 c 128,-1,6
 536 912 536 912 536 842 c 0,7,8
 536 796 536 796 552 766 c 1,9,-1
 732 766 l 1,10,-1
 732 622 l 1,11,-1
 530 622 l 1,12,-1
 530 440 l 1,13,14
 556 446 556 446 580 450 c 128,-1,15
 604 454 604 454 628 454 c 0,16,17
 736 454 736 454 794 372 c 0,18,19
 836 314 836 314 836 244 c 2,20,-1
 836 14 l 2,21,22
 836 -122 836 -122 744 -176 c 0,23,24
 666 -220 666 -220 488 -220 c 2,25,-1
 246 -220 l 2,26,27
 204 -220 204 -220 189 -228 c 128,-1,28
 174 -236 174 -236 174 -274 c 2,29,-1
 174 -418 l 1,30,-1
 -6 -418 l 1,31,-1
 -6 -272 l 2,32,33
 -6 -188 -6 -188 49 -132 c 128,-1,34
 104 -76 104 -76 216 -76 c 2,35,-1
 516 -76 l 2,36,37
 586 -76 586 -76 612 -60 c 0,38,39
 650 -34 650 -34 650 26 c 2,40,-1
 650 246 l 2,41,42
 650 310 650 310 598 310 c 0,43,44
 526 310 526 310 526 250 c 2,45,-1
 526 0 l 1,46,-1
 348 0 l 1,47,-1
 348 622 l 1,48,-1
 218 622 l 1,49,-1
 218 0 l 1,50,-1
 40 0 l 1,51,-1
 40 766 l 1,52,-1
 366 766 l 1,53,-1
 362 826 l 1,54,55
 362 976 362 976 466 1060 c 0,56,57
 560 1136 560 1136 706 1136 c 0,58,59
 870 1136 870 1136 970 1044 c 0,60,61
 1080 940 1080 940 1080 766 c 2,62,-1
 1080 -2 l 1,0,-1
EndSplineSet
Ligature2: "'psts' Post Base Substitutions lookup 8 subtable" tm_na tm_ikaar
EndChar

StartChar: tm_nnn_ikaar
Encoding: 65549 -1 128
Width: 1698
GlyphClass: 2
Flags: W
LayerCount: 2
Fore
SplineSet
1658 0 m 1,0,-1
 1484 0 l 1,1,-1
 1484 788 l 2,2,3
 1484 998 1484 998 1338 998 c 0,4,5
 1188 998 1188 998 1188 856 c 0,6,7
 1188 802 1188 802 1214 768 c 1,8,-1
 1418 768 l 1,9,-1
 1418 624 l 1,10,-1
 1222 624 l 1,11,-1
 1222 0 l 1,12,-1
 1044 0 l 1,13,-1
 1044 622 l 1,14,-1
 882 622 l 1,15,16
 960 522 960 522 960 422 c 2,17,-1
 960 186 l 2,18,19
 960 106 960 106 896 54 c 128,-1,20
 832 2 832 2 728 2 c 0,21,22
 640 2 640 2 577 57 c 128,-1,23
 514 112 514 112 514 198 c 2,24,-1
 514 454 l 2,25,26
 514 498 514 498 546 556 c 0,27,28
 576 604 576 604 596 618 c 1,29,-1
 368 618 l 2,30,31
 282 618 282 618 206 500 c 1,32,33
 242 524 242 524 286 524 c 0,34,35
 358 524 358 524 416 466 c 0,36,37
 474 412 474 412 474 334 c 2,38,-1
 474 196 l 2,39,40
 474 90 474 90 390 38 c 0,41,42
 324 0 324 0 230 0 c 0,43,44
 154 0 154 0 96 52 c 0,45,46
 30 112 30 112 30 216 c 2,47,-1
 30 426 l 2,48,49
 30 558 30 558 123 663 c 128,-1,50
 216 768 216 768 360 768 c 2,51,-1
 576 768 l 2,52,53
 612 768 612 768 660 752 c 128,-1,54
 708 736 708 736 726 718 c 1,55,56
 740 732 740 732 792 750 c 128,-1,57
 844 768 844 768 906 768 c 2,58,-1
 1028 768 l 1,59,60
 1020 802 1020 802 1016 828 c 128,-1,61
 1012 854 1012 854 1012 886 c 0,62,63
 1012 1014 1012 1014 1106 1084 c 0,64,65
 1148 1116 1148 1116 1204 1132 c 128,-1,66
 1260 1148 1260 1148 1336 1148 c 0,67,68
 1482 1148 1482 1148 1570 1069 c 128,-1,69
 1658 990 1658 990 1658 838 c 2,70,-1
 1658 0 l 1,0,-1
772 196 m 2,71,-1
 772 478 l 2,72,73
 772 530 772 530 734 566 c 1,74,75
 698 536 698 536 698 474 c 2,76,-1
 698 192 l 2,77,78
 698 152 698 152 742 152 c 0,79,80
 772 152 772 152 772 196 c 2,71,-1
282 170 m 2,81,-1
 282 302 l 2,82,83
 282 342 282 342 246 342 c 0,84,85
 214 342 214 342 214 300 c 2,86,-1
 214 174 l 2,87,88
 214 144 214 144 246 144 c 0,89,90
 282 144 282 144 282 170 c 2,81,-1
EndSplineSet
Ligature2: "'psts' Post Base Substitutions lookup 8 subtable" tm_nnna tm_ikaar
EndChar

StartChar: tm_p_ikaar
Encoding: 65550 -1 129
Width: 1098
GlyphClass: 2
Flags: W
LayerCount: 2
Fore
SplineSet
1058 0 m 1,0,-1
 884 0 l 1,1,-1
 884 850 l 2,2,3
 884 926 884 926 832 971 c 128,-1,4
 780 1016 780 1016 698 1016 c 0,5,6
 534 1016 534 1016 534 846 c 2,7,-1
 534 732 l 2,8,9
 534 664 534 664 600 642 c 1,10,-1
 600 770 l 1,11,-1
 774 770 l 1,12,-1
 774 0 l 1,13,-1
 40 0 l 1,14,-1
 40 770 l 1,15,-1
 222 770 l 1,16,-1
 222 148 l 1,17,-1
 600 148 l 1,18,-1
 600 492 l 1,19,20
 498 492 498 492 428 562 c 0,21,22
 350 638 350 638 350 752 c 2,23,-1
 350 876 l 2,24,25
 350 1014 350 1014 452 1092 c 0,26,27
 546 1162 546 1162 698 1162 c 0,28,29
 1058 1162 1058 1162 1058 774 c 2,30,-1
 1058 0 l 1,0,-1
EndSplineSet
Ligature2: "'psts' Post Base Substitutions lookup 8 subtable" tm_pa tm_ikaar
EndChar

StartChar: tm_m_ikaar
Encoding: 65551 -1 130
Width: 1246
GlyphClass: 2
Flags: W
LayerCount: 2
Fore
SplineSet
1206 0 m 1,0,-1
 1030 0 l 1,1,-1
 1030 804 l 2,2,3
 1030 980 1030 980 888 980 c 0,4,5
 822 980 822 980 783 941 c 128,-1,6
 744 902 744 902 744 844 c 0,7,8
 744 794 744 794 766 758 c 1,9,10
 920 716 920 716 920 518 c 2,11,-1
 920 172 l 2,12,13
 920 78 920 78 873 39 c 128,-1,14
 826 0 826 0 728 0 c 2,15,-1
 40 0 l 1,16,-1
 40 768 l 1,17,-1
 216 768 l 1,18,-1
 216 148 l 1,19,-1
 438 148 l 1,20,-1
 438 596 l 2,21,22
 438 724 438 724 584 762 c 1,23,24
 568 820 568 820 568 864 c 0,25,26
 568 984 568 984 653 1056 c 128,-1,27
 738 1128 738 1128 876 1128 c 0,28,29
 1206 1128 1206 1128 1206 784 c 2,30,-1
 1206 0 l 1,0,-1
740 148 m 1,31,-1
 740 542 l 2,32,33
 740 628 740 628 674 628 c 0,34,35
 616 628 616 628 616 554 c 2,36,-1
 616 148 l 1,37,-1
 740 148 l 1,31,-1
EndSplineSet
Ligature2: "'psts' Post Base Substitutions lookup 8 subtable" tm_ma tm_ikaar
EndChar

StartChar: tm_y_ikaar
Encoding: 65552 -1 131
Width: 1340
GlyphClass: 2
Flags: W
LayerCount: 2
Fore
SplineSet
1306 0 m 1,0,-1
 1130 0 l 1,1,-1
 1130 856 l 2,2,3
 1130 952 1130 952 1074 990 c 0,4,5
 1030 1018 1030 1018 936 1018 c 0,6,7
 764 1018 764 1018 764 852 c 2,8,-1
 764 738 l 2,9,10
 764 632 764 632 836 642 c 1,11,-1
 836 768 l 1,12,-1
 1010 768 l 1,13,-1
 1010 0 l 1,14,-1
 344 0 l 1,15,-1
 344 58 l 1,16,17
 258 0 258 0 166 0 c 0,18,19
 42 0 42 0 42 112 c 2,20,-1
 42 768 l 1,21,-1
 216 768 l 1,22,-1
 216 168 l 2,23,24
 216 140 216 140 252 140 c 0,25,26
 310 140 310 140 344 218 c 1,27,-1
 344 768 l 1,28,-1
 520 768 l 1,29,-1
 520 144 l 1,30,-1
 836 144 l 1,31,-1
 836 500 l 1,32,33
 826 498 826 498 808 498 c 0,34,35
 722 498 722 498 656 568 c 0,36,37
 584 640 584 640 584 740 c 2,38,-1
 584 882 l 2,39,40
 584 1016 584 1016 686 1089 c 128,-1,41
 788 1162 788 1162 940 1162 c 0,42,43
 1104 1162 1104 1162 1200 1080 c 0,44,45
 1306 990 1306 990 1306 814 c 2,46,-1
 1306 0 l 1,0,-1
EndSplineSet
Ligature2: "'psts' Post Base Substitutions lookup 8 subtable" tm_ya tm_ikaar
EndChar

StartChar: tm_r_ikaar
Encoding: 65553 -1 132
Width: 1058
GlyphClass: 2
Flags: W
LayerCount: 2
Fore
SplineSet
785 620 m 1,0,-1
 582 620 l 1,1,-1
 582 0 l 1,2,-1
 581 0 l 1,3,-1
 581 -28 l 1,4,-1
 145 -304 l 1,5,-1
 67 -186 l 1,6,-1
 404 32 l 1,7,-1
 404 622 l 1,8,-1
 233 622 l 1,9,-1
 233 0 l 1,10,-1
 40 0 l 1,11,-1
 40 768 l 1,12,-1
 59 768 l 1,13,-1
 59 770 l 1,14,-1
 380 770 l 1,15,-1
 370 858 l 1,16,17
 370 992 370 992 455 1065 c 128,-1,18
 540 1138 540 1138 684 1138 c 0,19,20
 1018 1138 1018 1138 1018 800 c 2,21,-1
 1018 0 l 1,22,-1
 844 0 l 1,23,-1
 844 784 l 2,24,25
 844 860 844 860 802 925 c 128,-1,26
 760 990 760 990 698 990 c 0,27,28
 644 990 644 990 595 941 c 128,-1,29
 546 892 546 892 546 836 c 0,30,31
 546 794 546 794 560 770 c 1,32,-1
 785 770 l 1,33,-1
 785 620 l 1,0,-1
EndSplineSet
Ligature2: "'psts' Post Base Substitutions lookup 8 subtable" tm_ra tm_ikaar
EndChar

StartChar: tm_rr_ikaar
Encoding: 65554 -1 133
Width: 1186
GlyphClass: 2
Flags: W
LayerCount: 2
Fore
SplineSet
1144 0 m 1,0,-1
 970 0 l 1,1,-1
 970 780 l 2,2,3
 970 966 970 966 834 966 c 0,4,5
 694 966 694 966 694 834 c 0,6,7
 694 800 694 800 712 752 c 1,8,9
 862 688 862 688 862 510 c 2,10,-1
 862 120 l 2,11,12
 862 -204 862 -204 506 -204 c 2,13,-1
 220 -204 l 2,14,15
 152 -204 152 -204 152 -252 c 2,16,-1
 152 -408 l 1,17,-1
 -26 -408 l 1,18,-1
 -26 -242 l 2,19,20
 -26 -62 -26 -62 228 -62 c 2,21,-1
 528 -62 l 2,22,23
 682 -62 682 -62 682 148 c 2,24,-1
 682 502 l 2,25,26
 682 544 682 544 656 582 c 128,-1,27
 630 620 630 620 592 620 c 0,28,29
 510 620 510 620 510 504 c 2,30,-1
 510 0 l 1,31,-1
 338 0 l 1,32,-1
 338 544 l 2,33,34
 338 622 338 622 280 622 c 0,35,36
 250 622 250 622 231 597 c 128,-1,37
 212 572 212 572 212 550 c 2,38,-1
 212 0 l 1,39,-1
 30 0 l 1,40,-1
 30 538 l 2,41,42
 30 636 30 636 114 708 c 0,43,44
 186 768 186 768 262 768 c 0,45,46
 388 768 388 768 450 676 c 1,47,48
 480 730 480 730 544 754 c 1,49,50
 520 766 520 766 520 850 c 0,51,52
 520 970 520 970 608 1044 c 0,53,54
 690 1110 690 1110 822 1110 c 0,55,56
 1144 1110 1144 1110 1144 778 c 2,57,-1
 1144 0 l 1,0,-1
EndSplineSet
Ligature2: "'psts' Post Base Substitutions lookup 8 subtable" tm_rra tm_ikaar
EndChar

StartChar: tm_l_ikaar
Encoding: 65555 -1 134
Width: 1320
GlyphClass: 2
Flags: W
LayerCount: 2
Fore
SplineSet
1280 0 m 1,0,-1
 1106 0 l 1,1,-1
 1106 806 l 2,2,3
 1106 902 1106 902 1054 954 c 0,4,5
 1006 1006 1006 1006 922 1006 c 0,6,7
 758 1006 758 1006 758 862 c 0,8,9
 758 822 758 822 826 786 c 0,10,11
 916 742 916 742 952 702 c 0,12,13
 1020 624 1020 624 1020 482 c 2,14,-1
 1020 256 l 2,15,16
 1020 140 1020 140 940 68 c 128,-1,17
 860 -4 860 -4 752 -4 c 0,18,19
 650 -4 650 -4 578 50 c 0,20,21
 498 112 498 112 498 220 c 2,22,-1
 498 476 l 2,23,24
 498 628 498 628 392 628 c 2,25,-1
 338 628 l 2,26,27
 284 628 284 628 246 600 c 128,-1,28
 208 572 208 572 208 532 c 0,29,30
 208 516 208 516 212 508 c 1,31,32
 230 516 230 516 247 520 c 128,-1,33
 264 524 264 524 288 524 c 0,34,35
 358 524 358 524 406 477 c 128,-1,36
 454 430 454 430 454 348 c 2,37,-1
 454 182 l 2,38,39
 454 122 454 122 386 61 c 128,-1,40
 318 0 318 0 236 0 c 0,41,42
 146 0 146 0 88 58 c 128,-1,43
 30 116 30 116 30 214 c 2,44,-1
 30 500 l 2,45,46
 30 768 30 768 304 768 c 2,47,-1
 434 768 l 2,48,49
 538 768 538 768 608 686 c 0,50,51
 670 612 670 612 670 526 c 2,52,-1
 670 230 l 2,53,54
 670 146 670 146 752 146 c 0,55,56
 848 146 848 146 848 242 c 2,57,-1
 848 522 l 2,58,59
 848 598 848 598 777 630 c 128,-1,60
 706 662 706 662 685 671 c 128,-1,61
 664 680 664 680 646 690 c 0,62,63
 574 744 574 744 574 882 c 0,64,65
 574 1006 574 1006 676 1082 c 0,66,67
 770 1148 770 1148 924 1148 c 0,68,69
 1086 1148 1086 1148 1183 1066 c 128,-1,70
 1280 984 1280 984 1280 818 c 2,71,-1
 1280 0 l 1,0,-1
278 180 m 2,72,-1
 278 314 l 2,73,74
 278 348 278 348 242 348 c 0,75,76
 204 348 204 348 204 314 c 2,77,-1
 204 178 l 2,78,79
 204 148 204 148 242 148 c 0,80,81
 278 148 278 148 278 180 c 2,72,-1
EndSplineSet
Ligature2: "'psts' Post Base Substitutions lookup 8 subtable" tm_la tm_ikaar
EndChar

StartChar: tm_ll_ikaar
Encoding: 65556 -1 135
Width: 1492
GlyphClass: 2
Flags: W
LayerCount: 2
Fore
SplineSet
1452 -2 m 1,0,-1
 1274 -2 l 1,1,-1
 1274 792 l 2,2,3
 1274 974 1274 974 1128 974 c 0,4,5
 978 974 978 974 978 844 c 0,6,7
 978 794 978 794 998 766 c 1,8,-1
 1210 766 l 1,9,-1
 1210 620 l 1,10,-1
 1004 620 l 1,11,-1
 1004 0 l 1,12,-1
 832 0 l 1,13,-1
 832 622 l 1,14,-1
 774 622 l 2,15,16
 708 622 708 622 708 550 c 2,17,-1
 708 0 l 1,18,-1
 530 0 l 1,19,-1
 530 522 l 2,20,21
 530 624 530 624 416 624 c 2,22,-1
 346 624 l 2,23,24
 296 624 296 624 256 602 c 128,-1,25
 216 580 216 580 216 536 c 1,26,-1
 220 510 l 1,27,28
 254 530 254 530 292 530 c 0,29,30
 356 530 356 530 407 481 c 128,-1,31
 458 432 458 432 458 356 c 2,32,-1
 458 194 l 2,33,34
 458 106 458 106 386 48 c 0,35,36
 322 0 322 0 232 0 c 0,37,38
 154 0 154 0 92 57 c 128,-1,39
 30 114 30 114 30 216 c 2,40,-1
 30 424 l 2,41,42
 30 588 30 588 70 656 c 0,43,44
 136 768 136 768 316 768 c 2,45,-1
 446 768 l 2,46,47
 536 768 536 768 604 700 c 1,48,49
 676 766 676 766 766 766 c 2,50,-1
 810 766 l 1,51,-1
 800 864 l 1,52,53
 800 992 800 992 896 1065 c 128,-1,54
 992 1138 992 1138 1128 1138 c 0,55,56
 1276 1138 1276 1138 1364 1040 c 128,-1,57
 1452 942 1452 942 1452 790 c 2,58,-1
 1452 -2 l 1,0,-1
286 186 m 2,59,-1
 286 332 l 2,60,61
 286 366 286 366 246 366 c 0,62,63
 208 366 208 366 208 330 c 2,64,-1
 208 184 l 2,65,66
 208 152 208 152 246 152 c 0,67,68
 286 152 286 152 286 186 c 2,59,-1
EndSplineSet
Ligature2: "'psts' Post Base Substitutions lookup 8 subtable" tm_lla tm_ikaar
EndChar

StartChar: tm_lll_ikaar
Encoding: 65557 -1 136
Width: 1244
GlyphClass: 2
Flags: W
LayerCount: 2
Fore
SplineSet
1204 -2 m 1,0,-1
 1020 -2 l 1,1,-1
 1020 776 l 2,2,3
 1020 854 1020 854 977 919 c 128,-1,4
 934 984 934 984 882 984 c 0,5,6
 836 984 836 984 789 937 c 128,-1,7
 742 890 742 890 742 834 c 0,8,9
 742 790 742 790 762 756 c 1,10,11
 934 714 934 714 934 516 c 2,12,-1
 934 174 l 2,13,14
 934 0 934 0 778 0 c 2,15,-1
 624 0 l 1,16,17
 618 -32 618 -32 642 -56 c 128,-1,18
 666 -80 666 -80 712 -80 c 2,19,-1
 844 -80 l 1,20,-1
 844 -222 l 1,21,-1
 678 -222 l 2,22,23
 634 -222 634 -222 602 -262 c 2,24,-1
 540 -342 l 1,25,26
 454 -422 454 -422 294 -422 c 0,27,28
 178 -422 178 -422 93 -358 c 128,-1,29
 8 -294 8 -294 8 -202 c 2,30,-1
 8 -114 l 1,31,-1
 194 -114 l 1,32,-1
 188 -162 l 1,33,34
 188 -278 188 -278 294 -278 c 0,35,36
 366 -278 366 -278 434 -213 c 128,-1,37
 502 -148 502 -148 524 -146 c 1,38,39
 442 -102 442 -102 442 0 c 1,40,-1
 40 0 l 1,41,-1
 40 766 l 1,42,-1
 214 766 l 1,43,-1
 214 146 l 1,44,-1
 442 146 l 1,45,-1
 442 596 l 2,46,47
 442 716 442 716 576 752 c 1,48,49
 574 762 574 762 568 797 c 128,-1,50
 562 832 562 832 560 846 c 0,51,52
 560 988 560 988 656 1070 c 1,53,54
 742 1138 742 1138 878 1138 c 0,55,56
 1204 1138 1204 1138 1204 792 c 2,57,-1
 1204 -2 l 1,0,-1
754 146 m 1,58,-1
 754 508 l 2,59,60
 754 622 754 622 686 622 c 0,61,62
 626 622 626 622 626 550 c 2,63,-1
 626 146 l 1,64,-1
 754 146 l 1,58,-1
EndSplineSet
Ligature2: "'psts' Post Base Substitutions lookup 8 subtable" tm_llla tm_ikaar
EndChar

StartChar: tm_v_ikaar
Encoding: 65558 -1 137
Width: 1486
GlyphClass: 2
Flags: W
LayerCount: 2
Fore
SplineSet
1446 0 m 1,0,-1
 1272 0 l 1,1,-1
 1272 812 l 2,2,3
 1272 1014 1272 1014 1090 1014 c 0,4,5
 932 1014 932 1014 932 826 c 2,6,-1
 932 730 l 2,7,8
 932 652 932 652 1000 640 c 1,9,-1
 1000 768 l 1,10,-1
 1168 768 l 1,11,-1
 1168 0 l 1,12,-1
 482 0 l 1,13,-1
 482 138 l 1,14,15
 558 162 558 162 584 234 c 0,16,17
 600 282 600 282 600 378 c 2,18,-1
 600 474 l 2,19,20
 600 622 600 622 460 622 c 2,21,-1
 368 622 l 2,22,23
 218 622 218 622 218 526 c 1,24,-1
 220 504 l 1,25,26
 258 520 258 520 292 520 c 0,27,28
 358 520 358 520 408 470 c 128,-1,29
 458 420 458 420 458 350 c 2,30,-1
 458 202 l 2,31,32
 458 114 458 114 391 59 c 128,-1,33
 324 4 324 4 236 4 c 0,34,35
 30 4 30 4 30 212 c 2,36,-1
 30 464 l 2,37,38
 30 626 30 626 109 697 c 128,-1,39
 188 768 188 768 352 768 c 2,40,-1
 500 768 l 2,41,42
 624 768 624 768 699 694 c 128,-1,43
 774 620 774 620 774 506 c 2,44,-1
 774 334 l 2,45,46
 774 208 774 208 654 144 c 1,47,-1
 994 144 l 1,48,-1
 994 494 l 1,49,-1
 972 494 l 2,50,51
 886 494 886 494 822 560 c 1,52,53
 752 640 752 640 752 750 c 2,54,-1
 752 874 l 2,55,56
 752 1006 752 1006 847 1082 c 128,-1,57
 942 1158 942 1158 1090 1158 c 0,58,59
 1446 1158 1446 1158 1446 820 c 2,60,-1
 1446 0 l 1,0,-1
278 176 m 1,61,-1
 278 308 l 2,62,63
 278 340 278 340 244 340 c 0,64,65
 206 340 206 340 206 306 c 2,66,-1
 206 178 l 2,67,68
 206 146 206 146 244 146 c 0,69,70
 274 146 274 146 278 176 c 1,61,-1
EndSplineSet
Ligature2: "'psts' Post Base Substitutions lookup 8 subtable" tm_va tm_ikaar
EndChar

StartChar: tm_ss_ikaar
Encoding: 65559 -1 138
Width: 1730
GlyphClass: 2
Flags: W
LayerCount: 2
Fore
SplineSet
1690 0 m 1,0,-1
 1512 0 l 1,1,-1
 1512 784 l 2,2,3
 1512 874 1512 874 1459 928 c 128,-1,4
 1406 982 1406 982 1322 982 c 0,5,6
 1244 982 1244 982 1185 940 c 128,-1,7
 1126 898 1126 898 1126 824 c 0,8,9
 1126 800 1126 800 1138 748 c 1,10,11
 1274 706 1274 706 1274 558 c 2,12,-1
 1274 348 l 2,13,14
 1274 240 1274 240 1186 140 c 1,15,-1
 1434 140 l 1,16,-1
 1434 0 l 1,17,-1
 1056 0 l 1,18,-1
 960 -108 l 2,19,20
 892 -186 892 -186 892 -244 c 2,21,-1
 892 -404 l 1,22,-1
 714 -404 l 1,23,-1
 714 -254 l 2,24,25
 714 -160 714 -160 868 0 c 1,26,-1
 482 0 l 1,27,-1
 482 128 l 1,28,29
 520 156 520 156 564 224 c 0,30,31
 604 292 604 292 604 340 c 2,32,-1
 604 480 l 2,33,34
 604 620 604 620 464 620 c 2,35,-1
 368 620 l 2,36,37
 224 620 224 620 224 510 c 1,38,39
 260 528 260 528 296 528 c 0,40,41
 362 528 362 528 413 475 c 128,-1,42
 464 422 464 422 464 360 c 2,43,-1
 464 206 l 2,44,45
 464 118 464 118 392 58 c 0,46,47
 320 2 320 2 232 2 c 0,48,49
 146 2 146 2 88 53 c 128,-1,50
 30 104 30 104 30 200 c 2,51,-1
 30 488 l 2,52,53
 30 768 30 768 330 768 c 2,54,-1
 514 768 l 2,55,56
 626 768 626 768 702 692 c 128,-1,57
 778 616 778 616 778 500 c 2,58,-1
 778 342 l 2,59,60
 778 212 778 212 664 142 c 1,61,-1
 902 142 l 1,62,63
 838 224 838 224 838 340 c 2,64,-1
 838 576 l 2,65,66
 838 688 838 688 962 742 c 1,67,68
 950 788 950 788 950 828 c 0,69,70
 950 962 950 962 1057 1046 c 128,-1,71
 1164 1130 1164 1130 1324 1130 c 0,72,73
 1480 1130 1480 1130 1580 1042 c 0,74,75
 1690 944 1690 944 1690 764 c 2,76,-1
 1690 0 l 1,0,-1
1092 282 m 2,77,-1
 1092 576 l 2,78,79
 1092 608 1092 608 1060 610 c 0,80,81
 1022 610 1022 610 1022 576 c 2,82,-1
 1022 286 l 2,83,84
 1022 244 1022 244 1054 206 c 1,85,86
 1092 250 1092 250 1092 282 c 2,77,-1
284 182 m 2,87,-1
 284 310 l 2,88,89
 284 346 284 346 250 346 c 0,90,91
 212 346 212 346 212 310 c 2,92,-1
 212 178 l 2,93,94
 212 146 212 146 252 146 c 0,95,96
 284 146 284 146 284 182 c 2,87,-1
EndSplineSet
Ligature2: "'psts' Post Base Substitutions lookup 8 subtable" tm_ssa tm_ikaar
EndChar

StartChar: tm_s_ikaar
Encoding: 65560 -1 139
Width: 1696
GlyphClass: 2
Flags: W
LayerCount: 2
Fore
SplineSet
1656 0 m 1,0,-1
 1480 0 l 1,1,-1
 1480 794 l 2,2,3
 1480 880 1480 880 1428 944 c 1,4,5
 1380 1010 1380 1010 1302 1010 c 0,6,7
 1226 1010 1226 1010 1176 974 c 128,-1,8
 1126 938 1126 938 1126 872 c 0,9,10
 1126 836 1126 836 1170 806 c 2,11,-1
 1258 750 l 1,12,13
 1386 658 1386 658 1386 512 c 2,14,-1
 1386 236 l 2,15,16
 1386 132 1386 132 1304 65 c 128,-1,17
 1222 -2 1222 -2 1106 -2 c 0,18,19
 998 -2 998 -2 932 50 c 0,20,21
 852 112 852 112 852 220 c 2,22,-1
 852 510 l 2,23,24
 852 622 852 622 766 622 c 0,25,26
 734 622 734 622 704 592 c 1,27,28
 678 560 678 560 678 518 c 2,29,-1
 678 0 l 1,30,-1
 502 0 l 1,31,-1
 502 510 l 2,32,33
 502 558 502 558 467 591 c 128,-1,34
 432 624 432 624 386 624 c 2,35,-1
 340 624 l 2,36,37
 294 624 294 624 252 599 c 128,-1,38
 210 574 210 574 210 530 c 1,39,-1
 214 508 l 1,40,41
 256 526 256 526 298 526 c 0,42,43
 366 526 366 526 413 479 c 128,-1,44
 460 432 460 432 460 352 c 2,45,-1
 460 194 l 2,46,47
 460 104 460 104 392 48 c 0,48,49
 332 0 332 0 242 0 c 0,50,51
 158 0 158 0 98 48 c 0,52,53
 30 104 30 104 30 198 c 2,54,-1
 30 444 l 2,55,56
 30 590 30 590 68 654 c 0,57,58
 94 700 94 700 164 733 c 128,-1,59
 234 766 234 766 306 766 c 2,60,-1
 436 766 l 2,61,62
 548 766 548 766 612 676 c 1,63,64
 674 768 674 768 806 768 c 0,65,66
 890 768 890 768 954 716 c 0,67,68
 1028 652 1028 652 1028 528 c 2,69,-1
 1028 220 l 2,70,71
 1028 142 1028 142 1110 142 c 0,72,73
 1206 142 1206 142 1206 224 c 2,74,-1
 1206 510 l 2,75,76
 1206 590 1206 590 1144 638 c 1,77,-1
 1030 700 l 1,78,79
 942 766 942 766 942 888 c 0,80,81
 942 1014 942 1014 1043 1085 c 128,-1,82
 1144 1156 1144 1156 1296 1156 c 0,83,84
 1450 1156 1450 1156 1553 1062 c 128,-1,85
 1656 968 1656 968 1656 824 c 2,86,-1
 1656 0 l 1,0,-1
284 180 m 2,87,-1
 284 310 l 2,88,89
 284 342 284 342 244 342 c 0,90,91
 202 342 202 342 202 312 c 2,92,-1
 202 182 l 2,93,94
 202 142 202 142 244 142 c 0,95,96
 284 142 284 142 284 180 c 2,87,-1
EndSplineSet
Ligature2: "'psts' Post Base Substitutions lookup 8 subtable" tm_sa tm_ikaar
EndChar

StartChar: tm_h_ikaar
Encoding: 65561 -1 140
Width: 1994
GlyphClass: 2
Flags: W
LayerCount: 2
Fore
SplineSet
1954 0 m 1,0,-1
 1776 0 l 1,1,-1
 1776 796 l 2,2,3
 1776 976 1776 976 1630 976 c 0,4,5
 1474 976 1474 976 1474 832 c 0,6,7
 1474 810 1474 810 1476 798 c 128,-1,8
 1478 786 1478 786 1490 756 c 1,9,10
 1556 730 1556 730 1607 666 c 128,-1,11
 1658 602 1658 602 1658 514 c 2,12,-1
 1658 124 l 2,13,14
 1658 -210 1658 -210 1302 -210 c 2,15,-1
 232 -210 l 2,16,17
 194 -210 194 -210 181 -216 c 128,-1,18
 168 -222 168 -222 166 -254 c 2,19,-1
 166 -412 l 1,20,-1
 -10 -412 l 1,21,-1
 -10 -242 l 2,22,23
 -10 -64 -10 -64 224 -64 c 2,24,-1
 1342 -64 l 2,25,26
 1478 -64 1478 -64 1478 144 c 2,27,-1
 1478 510 l 2,28,29
 1478 546 1478 546 1453 583 c 128,-1,30
 1428 620 1428 620 1390 620 c 0,31,32
 1348 620 1348 620 1325 585 c 128,-1,33
 1302 550 1302 550 1302 510 c 2,34,-1
 1302 0 l 1,35,-1
 1132 0 l 1,36,-1
 1132 534 l 2,37,38
 1132 620 1132 620 1076 620 c 0,39,40
 1006 620 1006 620 1006 532 c 2,41,-1
 1006 0 l 1,42,-1
 478 0 l 1,43,-1
 478 132 l 1,44,45
 530 150 530 150 565 206 c 128,-1,46
 600 262 600 262 600 326 c 2,47,-1
 600 476 l 2,48,49
 600 622 600 622 446 622 c 2,50,-1
 356 622 l 2,51,52
 262 622 262 622 228 580 c 0,53,54
 212 560 212 560 212 508 c 1,55,56
 246 530 246 530 284 530 c 0,57,58
 348 530 348 530 402 477 c 128,-1,59
 456 424 456 424 456 366 c 2,60,-1
 456 210 l 2,61,62
 456 118 456 118 386 60 c 1,63,64
 320 0 320 0 232 0 c 0,65,66
 146 0 146 0 88 54 c 128,-1,67
 30 108 30 108 30 204 c 2,68,-1
 30 502 l 2,69,70
 30 768 30 768 340 768 c 2,71,-1
 504 768 l 2,72,73
 614 768 614 768 690 698 c 128,-1,74
 766 628 766 628 766 522 c 2,75,-1
 766 334 l 2,76,77
 766 272 766 272 729 217 c 128,-1,78
 692 162 692 162 644 144 c 1,79,-1
 828 144 l 1,80,-1
 828 538 l 2,81,82
 828 630 828 630 908 702 c 0,83,84
 980 764 980 764 1054 764 c 0,85,86
 1126 764 1126 764 1184 732 c 0,87,88
 1232 706 1232 706 1244 672 c 1,89,90
 1268 712 1268 712 1314 742 c 1,91,92
 1308 764 1308 764 1304 787 c 128,-1,93
 1300 810 1300 810 1300 840 c 0,94,95
 1300 1130 1300 1130 1634 1130 c 0,96,97
 1766 1130 1766 1130 1856 1052 c 0,98,99
 1954 966 1954 966 1954 828 c 2,100,-1
 1954 0 l 1,0,-1
276 184 m 2,101,-1
 276 312 l 2,102,103
 276 348 276 348 242 348 c 0,104,105
 204 348 204 348 204 310 c 2,106,-1
 204 180 l 2,107,108
 204 148 204 148 244 148 c 0,109,110
 276 148 276 148 276 184 c 2,101,-1
EndSplineSet
Ligature2: "'psts' Post Base Substitutions lookup 8 subtable" tm_ha tm_ikaar
EndChar

StartChar: tm_k_iikaar
Encoding: 65562 -1 141
Width: 968
GlyphClass: 2
Flags: W
LayerCount: 2
Fore
SplineSet
990 942 m 2,0,1
 990 902 990 902 943 864 c 128,-1,2
 896 826 896 826 840 826 c 2,3,-1
 772 826 l 2,4,5
 708 826 708 826 665 873 c 128,-1,6
 622 920 622 920 622 980 c 0,7,8
 622 1000 622 1000 626 1010 c 1,9,10
 574 988 574 988 574 900 c 0,11,12
 574 828 574 828 610 768 c 1,13,-1
 842 768 l 1,14,-1
 842 624 l 1,15,-1
 644 624 l 1,16,-1
 644 494 l 1,17,-1
 716 494 l 2,18,19
 944 494 944 494 944 314 c 2,20,-1
 944 212 l 2,21,22
 944 116 944 116 860 46 c 0,23,24
 786 -12 786 -12 710 -12 c 0,25,26
 632 -12 632 -12 598 2 c 1,27,-1
 662 152 l 1,28,29
 686 138 686 138 706 138 c 0,30,31
 720 138 720 138 743 166 c 128,-1,32
 766 194 766 194 766 226 c 2,33,-1
 766 294 l 2,34,35
 766 354 766 354 694 354 c 2,36,-1
 644 354 l 1,37,-1
 644 242 l 2,38,39
 644 0 644 0 314 0 c 0,40,41
 206 0 206 0 118 60 c 0,42,43
 24 126 24 126 24 232 c 2,44,-1
 24 358 l 2,45,46
 24 408 24 408 52 450 c 0,47,48
 90 500 90 500 148 500 c 1,49,-1
 174 498 l 1,50,-1
 174 768 l 1,51,-1
 436 768 l 1,52,53
 404 826 404 826 404 874 c 2,54,-1
 404 964 l 2,55,56
 404 1054 404 1054 488 1114 c 0,57,58
 562 1166 562 1166 648 1166 c 2,59,-1
 780 1166 l 2,60,61
 862 1166 862 1166 928 1124 c 0,62,63
 990 1080 990 1080 990 1026 c 2,64,-1
 990 942 l 2,0,1
820 992 m 2,65,-1
 820 1020 l 2,66,67
 820 1038 820 1038 798 1038 c 0,68,69
 774 1038 774 1038 774 1020 c 2,70,-1
 774 994 l 2,71,72
 774 976 774 976 798 972 c 0,73,74
 818 972 818 972 820 992 c 2,65,-1
472 496 m 1,75,-1
 472 624 l 1,76,-1
 346 624 l 1,77,-1
 346 496 l 1,78,-1
 472 496 l 1,75,-1
468 238 m 2,79,-1
 468 356 l 1,80,-1
 212 356 l 1,81,-1
 212 226 l 2,82,83
 212 190 212 190 268 166 c 0,84,85
 306 150 306 150 340 146 c 0,86,87
 372 146 372 146 420 168 c 128,-1,88
 468 190 468 190 468 238 c 2,79,-1
EndSplineSet
Ligature2: "'abvs' Above Base Substitutions lookup 6 subtable" tm_ka tm_iikaar
EndChar

StartChar: tm_ng_iikaar
Encoding: 65563 -1 142
Width: 1215
GlyphClass: 2
Flags: W
LayerCount: 2
Fore
SplineSet
1330 968 m 2,0,1
 1330 928 1330 928 1282 886 c 0,2,3
 1234 848 1234 848 1190 848 c 2,4,-1
 1112 848 l 2,5,6
 1052 848 1052 848 1006 891 c 128,-1,7
 960 934 960 934 960 1000 c 0,8,9
 960 1020 960 1020 964 1032 c 1,10,11
 916 998 916 998 916 926 c 2,12,-1
 916 716 l 2,13,14
 916 667 916 667 978 661 c 1,15,-1
 976 778 l 1,16,-1
 1170 778 l 1,17,-1
 1170 10 l 1,18,-1
 572 0 l 1,19,-1
 572 154 l 1,20,21
 656 176 656 176 656 242 c 2,22,-1
 656 318 l 2,23,24
 656 380 656 380 604 380 c 0,25,26
 568 380 568 380 532 338 c 1,27,-1
 532 0 l 1,28,-1
 354 0 l 1,29,-1
 354 624 l 1,30,-1
 226 624 l 1,31,-1
 226 0 l 1,32,-1
 40 0 l 1,33,-1
 40 770 l 1,34,-1
 738 770 l 1,35,-1
 738 624 l 1,36,-1
 532 624 l 1,37,-1
 532 504 l 1,38,39
 576 524 576 524 624 524 c 0,40,41
 700 524 700 524 766 470 c 128,-1,42
 832 416 832 416 832 324 c 0,43,44
 832 238 832 238 794 192 c 0,45,46
 780 172 780 172 736 144 c 1,47,-1
 978 144 l 1,48,-1
 978 492 l 1,49,50
 876 498 876 498 813 568 c 0,51,52
 744 644 744 644 744 748 c 2,53,-1
 744 974 l 2,54,55
 744 1078 744 1078 832 1136 c 0,56,57
 908 1186 908 1186 1006 1186 c 2,58,-1
 1090 1186 l 2,59,60
 1204 1186 1204 1186 1267 1142 c 128,-1,61
 1330 1098 1330 1098 1330 1030 c 2,62,-1
 1330 968 l 2,0,1
1154 1006 m 2,63,-1
 1154 1042 l 2,64,65
 1154 1058 1154 1058 1136 1062 c 0,66,67
 1118 1062 1118 1062 1118 1040 c 2,68,-1
 1118 1008 l 2,69,70
 1118 992 1118 992 1136 988 c 0,71,72
 1154 988 1154 988 1154 1006 c 2,63,-1
EndSplineSet
Ligature2: "'abvs' Above Base Substitutions lookup 6 subtable" tm_nga tm_iikaar
EndChar

StartChar: tm_c_iikaar
Encoding: 65564 -1 143
Width: 928
GlyphClass: 2
Flags: W
LayerCount: 2
Fore
SplineSet
1018 952 m 2,0,1
 1018 908 1018 908 972 868 c 128,-1,2
 926 828 926 828 874 828 c 2,3,-1
 796 828 l 2,4,5
 730 828 730 828 682 882 c 0,6,7
 642 928 642 928 642 994 c 0,8,9
 644 1012 644 1012 644 1022 c 1,10,11
 592 1004 592 1004 592 904 c 0,12,13
 592 816 592 816 628 768 c 1,14,-1
 866 768 l 1,15,-1
 866 620 l 1,16,-1
 658 620 l 1,17,-1
 658 492 l 1,18,-1
 912 492 l 1,19,-1
 912 348 l 1,20,-1
 658 348 l 1,21,-1
 658 232 l 2,22,23
 658 -2 658 -2 316 -2 c 0,24,25
 200 -2 200 -2 112 62 c 128,-1,26
 24 126 24 126 24 232 c 2,27,-1
 24 358 l 2,28,29
 24 406 24 406 56 451 c 128,-1,30
 88 496 88 496 144 496 c 0,31,32
 168 496 168 496 182 492 c 1,33,-1
 182 768 l 1,34,-1
 452 768 l 1,35,36
 420 832 420 832 420 878 c 2,37,-1
 420 972 l 2,38,39
 420 1060 420 1060 504 1124 c 0,40,41
 578 1180 578 1180 666 1180 c 2,42,-1
 786 1180 l 2,43,44
 890 1180 890 1180 954 1134 c 0,45,46
 1018 1092 1018 1092 1018 1018 c 2,47,-1
 1018 952 l 2,0,1
844 996 m 2,48,-1
 844 1034 l 2,49,50
 844 1048 844 1048 822 1050 c 0,51,52
 798 1050 798 1050 798 1032 c 2,53,-1
 798 998 l 2,54,55
 798 974 798 974 822 974 c 0,56,57
 842 974 842 974 844 996 c 2,48,-1
478 492 m 1,58,-1
 478 620 l 1,59,-1
 354 620 l 1,60,-1
 354 492 l 1,61,-1
 478 492 l 1,58,-1
478 236 m 2,62,-1
 478 352 l 1,63,-1
 224 352 l 1,64,-1
 224 220 l 2,65,66
 224 184 224 184 276 160 c 0,67,68
 314 144 314 144 348 144 c 0,69,70
 388 144 388 144 433 169 c 128,-1,71
 478 194 478 194 478 236 c 2,62,-1
EndSplineSet
Ligature2: "'abvs' Above Base Substitutions lookup 6 subtable" tm_ca tm_iikaar
EndChar

StartChar: tm_j_iikaar
Encoding: 65565 -1 144
Width: 1062
GlyphClass: 2
Flags: W
LayerCount: 2
Fore
SplineSet
1226 950 m 2,0,1
 1226 908 1226 908 1177 867 c 128,-1,2
 1128 826 1128 826 1084 826 c 2,3,-1
 996 826 l 2,4,5
 936 826 936 826 893 873 c 128,-1,6
 850 920 850 920 850 984 c 1,7,-1
 852 1012 l 1,8,9
 806 976 806 976 806 934 c 2,10,-1
 806 866 l 2,11,12
 806 826 806 826 844 768 c 1,13,14
 878 768 878 768 911 748 c 128,-1,15
 944 728 944 728 978 690 c 0,16,17
 1038 618 1038 618 1038 518 c 2,18,-1
 1038 380 l 2,19,20
 1038 290 1038 290 988 214 c 0,21,22
 946 148 946 148 894 130 c 1,23,24
 942 118 942 118 989 73 c 128,-1,25
 1036 28 1036 28 1036 -34 c 2,26,-1
 1036 -120 l 2,27,28
 1036 -186 1036 -186 974 -236 c 128,-1,29
 912 -286 912 -286 834 -286 c 2,30,-1
 680 -286 l 2,31,32
 628 -286 628 -286 592 -258 c 1,33,-1
 530 -190 l 1,34,-1
 626 -58 l 1,35,36
 662 -142 662 -142 716 -142 c 2,37,-1
 776 -142 l 2,38,39
 860 -142 860 -142 860 -84 c 2,40,-1
 860 -52 l 2,41,42
 860 0 860 0 794 0 c 2,43,-1
 706 0 l 2,44,45
 658 0 658 0 596 -76 c 2,46,-1
 482 -216 l 1,47,48
 406 -292 406 -292 320 -292 c 2,49,-1
 260 -292 l 2,50,51
 170 -292 170 -292 97 -233 c 128,-1,52
 24 -174 24 -174 24 -84 c 2,53,-1
 24 0 l 2,54,55
 24 100 24 100 100 162 c 128,-1,56
 176 224 176 224 324 224 c 2,57,-1
 680 224 l 2,58,59
 770 224 770 224 818 274 c 0,60,61
 860 316 860 316 860 386 c 2,62,-1
 860 474 l 2,63,64
 860 620 860 620 760 620 c 0,65,66
 662 620 662 620 662 480 c 2,67,-1
 662 316 l 1,68,-1
 490 316 l 1,69,-1
 490 460 l 2,70,71
 490 544 490 544 468 580 c 0,72,73
 438 632 438 632 350 632 c 2,74,-1
 290 632 l 2,75,76
 264 632 264 632 236 619 c 128,-1,77
 208 606 208 606 200 592 c 1,78,-1
 274 600 l 1,79,80
 356 600 356 600 403 553 c 128,-1,81
 450 506 450 506 450 438 c 0,82,83
 450 354 450 354 387 304 c 128,-1,84
 324 254 324 254 242 254 c 0,85,86
 158 254 158 254 91 306 c 128,-1,87
 24 358 24 358 24 452 c 2,88,-1
 24 510 l 2,89,90
 24 638 24 638 100 703 c 128,-1,91
 176 768 176 768 308 768 c 2,92,-1
 380 768 l 2,93,94
 442 768 442 768 496 732 c 128,-1,95
 550 696 550 696 566 666 c 1,96,97
 574 686 574 686 609 716 c 128,-1,98
 644 746 644 746 674 752 c 1,99,100
 628 802 628 802 628 866 c 2,101,-1
 628 954 l 2,102,103
 628 1052 628 1052 708 1111 c 128,-1,104
 788 1170 788 1170 896 1170 c 2,105,-1
 1022 1170 l 2,106,107
 1108 1170 1108 1170 1167 1123 c 128,-1,108
 1226 1076 1226 1076 1226 1020 c 2,109,-1
 1226 950 l 2,0,1
1050 990 m 2,110,-1
 1050 1022 l 2,111,112
 1050 1040 1050 1040 1026 1044 c 0,113,114
 1008 1044 1008 1044 1008 1022 c 2,115,-1
 1008 992 l 2,116,117
 1008 974 1008 974 1026 970 c 1,118,119
 1050 970 1050 970 1050 990 c 2,110,-1
274 422 m 1,120,-1
 274 444 l 2,121,122
 274 468 274 468 246 468 c 2,123,-1
 224 468 l 2,124,125
 200 468 200 468 198 446 c 2,126,-1
 198 428 l 2,127,128
 198 398 198 398 228 398 c 2,129,-1
 252 398 l 2,130,131
 270 398 270 398 274 422 c 1,120,-1
562 80 m 1,132,-1
 378 80 l 2,133,134
 200 80 200 80 200 -12 c 2,135,-1
 200 -68 l 2,136,137
 200 -150 200 -150 294 -150 c 2,138,-1
 342 -150 l 1,139,-1
 444 -36 l 1,140,141
 522 60 522 60 562 80 c 1,132,-1
EndSplineSet
Ligature2: "'abvs' Above Base Substitutions lookup 6 subtable" tm_ja tm_iikaar
EndChar

StartChar: tm_ny_iikaar
Encoding: 65566 -1 145
Width: 1381
GlyphClass: 2
Flags: W
LayerCount: 2
Fore
SplineSet
1354 62 m 2,0,1
 1354 -82 1354 -82 1236 -180 c 0,2,3
 1128 -270 1128 -270 982 -270 c 2,4,-1
 480 -270 l 2,5,6
 296 -270 296 -270 168 -154 c 128,-1,7
 40 -38 40 -38 40 124 c 2,8,-1
 40 392 l 2,9,10
 40 622 40 622 302 776 c 1,11,-1
 362 658 l 1,12,13
 218 544 218 544 218 388 c 2,14,-1
 218 150 l 2,15,16
 218 42 218 42 303 -43 c 128,-1,17
 388 -128 388 -128 512 -128 c 2,18,-1
 960 -128 l 2,19,20
 1038 -128 1038 -128 1106 -78 c 128,-1,21
 1174 -28 1174 -28 1174 50 c 2,22,-1
 1174 236 l 2,23,24
 1174 312 1174 312 1124 312 c 0,25,26
 1094 312 1094 312 1050 268 c 1,27,-1
 1050 0 l 1,28,-1
 874 0 l 1,29,-1
 874 620 l 1,30,-1
 648 620 l 2,31,32
 598 620 598 620 554 580 c 128,-1,33
 510 540 510 540 504 508 c 1,34,35
 534 526 534 526 570 526 c 0,36,37
 634 526 634 526 687 470 c 128,-1,38
 740 414 740 414 740 332 c 2,39,-1
 740 204 l 2,40,41
 740 100 740 100 670 48 c 0,42,43
 612 2 612 2 522 2 c 0,44,45
 434 2 434 2 375 56 c 128,-1,46
 316 110 316 110 316 216 c 2,47,-1
 316 436 l 2,48,49
 316 566 316 566 412 666 c 128,-1,50
 508 766 508 766 648 766 c 2,51,-1
 853 766 l 1,52,53
 830 818 830 818 830 858 c 2,54,-1
 830 952 l 2,55,56
 830 1040 830 1040 914 1104 c 0,57,58
 988 1160 988 1160 1076 1160 c 2,59,-1
 1196 1160 l 2,60,61
 1300 1160 1300 1160 1364 1114 c 0,62,63
 1428 1072 1428 1072 1428 998 c 2,64,-1
 1428 932 l 2,65,66
 1428 888 1428 888 1382 848 c 128,-1,67
 1336 808 1336 808 1284 808 c 2,68,-1
 1206 808 l 2,69,70
 1140 808 1140 808 1092 862 c 0,71,72
 1052 908 1052 908 1052 974 c 0,73,74
 1054 992 1054 992 1054 1002 c 1,75,76
 1002 984 1002 984 1002 884 c 0,77,78
 1002 811 1002 811 1026 766 c 1,79,-1
 1250 766 l 1,80,-1
 1250 748 l 1,81,-1
 1250 620 l 1,82,-1
 1050 620 l 1,83,-1
 1050 428 l 1,84,85
 1096 454 1096 454 1148 454 c 0,86,87
 1220 454 1220 454 1278 408 c 0,88,89
 1354 350 1354 350 1354 244 c 2,90,-1
 1354 62 l 2,0,1
570 176 m 2,91,-1
 570 306 l 2,92,93
 570 342 570 342 534 342 c 0,94,95
 494 342 494 342 494 308 c 2,96,-1
 494 174 l 2,97,98
 494 146 494 146 534 146 c 0,99,100
 570 146 570 146 570 176 c 2,91,-1
1254 976 m 2,101,-1
 1254 1014 l 2,102,103
 1254 1028 1254 1028 1232 1030 c 0,104,105
 1208 1030 1208 1030 1208 1012 c 2,106,-1
 1208 978 l 2,107,108
 1208 954 1208 954 1232 954 c 0,109,110
 1252 954 1252 954 1254 976 c 2,101,-1
EndSplineSet
Ligature2: "'abvs' Above Base Substitutions lookup 6 subtable" tm_nya tm_iikaar
EndChar

StartChar: tm_tt_iikaar
Encoding: 65567 -1 146
Width: 970
GlyphClass: 2
Flags: W
LayerCount: 2
Fore
SplineSet
956 548 m 2,0,1
 956 484 956 484 901 443 c 128,-1,2
 846 402 846 402 780 402 c 2,3,-1
 716 402 l 2,4,5
 582 402 582 402 582 548 c 1,6,-1
 588 608 l 1,7,8
 532 592 532 592 532 530 c 2,9,-1
 532 260 l 2,10,11
 532 198 532 198 594 144 c 1,12,-1
 940 144 l 1,13,-1
 940 0 l 1,14,-1
 40 0 l 1,15,-1
 40 766 l 1,16,-1
 220 766 l 1,17,-1
 220 144 l 1,18,-1
 426 144 l 1,19,20
 364 218 364 218 364 290 c 2,21,-1
 364 564 l 2,22,23
 364 650 364 650 444 709 c 128,-1,24
 524 768 524 768 624 768 c 2,25,-1
 726 768 l 2,26,27
 828 768 828 768 892 722 c 0,28,29
 956 680 956 680 956 610 c 2,30,-1
 956 548 l 2,0,1
788 550 m 2,31,-1
 788 606 l 2,32,33
 788 636 788 636 758 640 c 0,34,35
 730 640 730 640 730 604 c 2,36,-1
 730 552 l 2,37,38
 730 528 730 528 760 524 c 0,39,40
 786 524 786 524 788 550 c 2,31,-1
EndSplineSet
Ligature2: "'abvs' Above Base Substitutions lookup 5 subtable" tm_tta tm_iikaar
EndChar

StartChar: tm_nn_iikaar
Encoding: 65568 -1 147
Width: 1896
GlyphClass: 2
Flags: W
LayerCount: 2
Fore
SplineSet
2066 950 m 2,0,1
 2066 908 2066 908 2022 867 c 128,-1,2
 1978 826 1978 826 1926 826 c 2,3,-1
 1848 826 l 2,4,5
 1782 826 1782 826 1734 880 c 0,6,7
 1694 926 1694 926 1694 994 c 0,8,9
 1696 1012 1696 1012 1696 1022 c 1,10,11
 1644 994 1644 994 1644 902 c 0,12,13
 1644 808 1644 808 1688 766 c 1,14,-1
 1882 766 l 1,15,-1
 1882 620 l 1,16,-1
 1682 620 l 1,17,-1
 1682 0 l 1,18,-1
 1500 0 l 1,19,-1
 1500 620 l 1,20,-1
 1368 620 l 1,21,22
 1390 604 1390 604 1412 547 c 128,-1,23
 1434 490 1434 490 1434 436 c 2,24,-1
 1434 184 l 2,25,26
 1434 112 1434 112 1369 56 c 128,-1,27
 1304 0 1304 0 1212 0 c 0,28,29
 1122 0 1122 0 1064 52 c 0,30,31
 1000 110 1000 110 1000 218 c 2,32,-1
 1000 428 l 2,33,34
 1000 494 1000 494 1034 554 c 0,35,36
 1062 604 1062 604 1086 620 c 1,37,-1
 886 620 l 1,38,39
 916 604 916 604 941 535 c 128,-1,40
 966 466 966 466 966 426 c 2,41,-1
 966 196 l 2,42,43
 966 106 966 106 894 48 c 0,44,45
 834 0 834 0 744 0 c 0,46,47
 658 0 658 0 598 48 c 0,48,49
 530 104 530 104 530 208 c 2,50,-1
 530 434 l 2,51,52
 530 502 530 502 568 564 c 1,53,-1
 612 620 l 1,54,-1
 372 620 l 2,55,56
 276 620 276 620 220 508 c 1,57,58
 238 516 238 516 253 520 c 128,-1,59
 268 524 268 524 290 524 c 0,60,61
 360 524 360 524 416 468 c 128,-1,62
 472 412 472 412 472 342 c 2,63,-1
 472 198 l 2,64,65
 472 94 472 94 394 40 c 0,66,67
 332 0 332 0 240 0 c 0,68,69
 154 0 154 0 96 52 c 0,70,71
 30 110 30 110 30 212 c 2,72,-1
 30 432 l 2,73,74
 30 556 30 556 127 662 c 128,-1,75
 224 768 224 768 362 768 c 2,76,-1
 530 768 l 2,77,78
 686 768 686 768 724 716 c 1,79,-1
 792 750 l 2,80,81
 826 768 826 768 870 768 c 2,82,-1
 1024 768 l 2,83,84
 1088 768 1088 768 1200 718 c 1,85,86
 1278 768 1278 768 1340 768 c 2,87,-1
 1498 768 l 1,88,89
 1466 832 1466 832 1466 880 c 2,90,-1
 1466 956 l 2,91,92
 1466 1062 1466 1062 1554 1126 c 0,93,94
 1592 1154 1592 1154 1631 1168 c 128,-1,95
 1670 1182 1670 1182 1718 1182 c 2,96,-1
 1822 1182 l 2,97,98
 1940 1182 1940 1182 2003 1139 c 128,-1,99
 2066 1096 2066 1096 2066 1018 c 2,100,-1
 2066 950 l 2,0,1
1896 994 m 2,101,-1
 1896 1032 l 2,102,103
 1896 1046 1896 1046 1874 1048 c 0,104,105
 1858 1048 1858 1048 1854 1030 c 1,106,-1
 1854 996 l 2,107,108
 1854 978 1854 978 1874 978 c 256,109,110
 1894 978 1894 978 1896 994 c 2,101,-1
1254 190 m 2,111,-1
 1254 476 l 2,112,113
 1254 504 1254 504 1222 568 c 1,114,115
 1186 512 1186 512 1182 482 c 1,116,-1
 1182 184 l 2,117,118
 1182 150 1182 150 1218 150 c 256,119,120
 1254 150 1254 150 1254 190 c 2,111,-1
784 182 m 2,121,-1
 784 470 l 2,122,123
 784 526 784 526 752 566 c 1,124,125
 714 544 714 544 714 474 c 2,126,-1
 714 180 l 2,127,128
 714 150 714 150 750 150 c 0,129,130
 782 150 782 150 784 182 c 2,121,-1
288 176 m 1,131,-1
 288 314 l 2,132,133
 288 344 288 344 256 344 c 0,134,135
 222 344 222 344 218 314 c 1,136,-1
 218 176 l 2,137,138
 218 146 218 146 254 146 c 0,139,140
 284 146 284 146 288 176 c 1,131,-1
EndSplineSet
Ligature2: "'abvs' Above Base Substitutions lookup 6 subtable" tm_nna tm_iikaar
EndChar

StartChar: tm_t_iikaar
Encoding: 65569 -1 148
Width: 974
GlyphClass: 2
Flags: W
LayerCount: 2
Fore
SplineSet
1000 954 m 2,0,1
 1000 912 1000 912 957 870 c 128,-1,2
 914 828 914 828 860 828 c 2,3,-1
 782 828 l 2,4,5
 722 828 722 828 670 882 c 0,6,7
 632 922 632 922 632 990 c 0,8,9
 632 1010 632 1010 634 1022 c 1,10,11
 582 988 582 988 582 900 c 0,12,13
 582 820 582 820 618 766 c 1,14,-1
 852 766 l 1,15,-1
 852 616 l 1,16,-1
 654 616 l 1,17,-1
 654 494 l 1,18,-1
 724 494 l 2,19,20
 812 494 812 494 881 445 c 128,-1,21
 950 396 950 396 950 324 c 2,22,-1
 950 100 l 2,23,24
 950 -28 950 -28 846 -123 c 128,-1,25
 742 -218 742 -218 588 -218 c 2,26,-1
 236 -218 l 2,27,28
 202 -218 202 -218 184 -226 c 128,-1,29
 166 -234 166 -234 166 -272 c 2,30,-1
 166 -414 l 1,31,-1
 -16 -414 l 1,32,-1
 -16 -252 l 2,33,34
 -16 -196 -16 -196 28 -140 c 0,35,36
 86 -70 86 -70 188 -70 c 2,37,-1
 594 -70 l 2,38,39
 650 -70 650 -70 708 -22 c 0,40,41
 774 32 774 32 774 106 c 2,42,-1
 774 284 l 2,43,44
 774 348 774 348 698 348 c 2,45,-1
 652 348 l 1,46,-1
 652 240 l 2,47,48
 652 92 652 92 536 36 c 0,49,50
 460 0 460 0 312 0 c 0,51,52
 194 0 194 0 109 63 c 128,-1,53
 24 126 24 126 24 220 c 2,54,-1
 24 362 l 2,55,56
 24 410 24 410 56 454 c 128,-1,57
 88 498 88 498 144 498 c 1,58,-1
 174 494 l 1,59,-1
 174 766 l 1,60,-1
 444 766 l 1,61,62
 410 834 410 834 410 878 c 2,63,-1
 410 954 l 2,64,65
 410 1054 410 1054 494 1124 c 1,66,67
 568 1180 568 1180 654 1180 c 2,68,-1
 756 1180 l 2,69,70
 870 1180 870 1180 935 1134 c 128,-1,71
 1000 1088 1000 1088 1000 1014 c 2,72,-1
 1000 954 l 2,0,1
830 990 m 2,73,-1
 830 1032 l 2,74,75
 830 1044 830 1044 806 1048 c 0,76,77
 788 1048 788 1048 784 1030 c 1,78,-1
 784 992 l 2,79,80
 784 974 784 974 806 974 c 0,81,82
 830 974 830 974 830 990 c 2,73,-1
480 494 m 1,83,-1
 480 620 l 1,84,-1
 354 620 l 1,85,-1
 354 494 l 1,86,-1
 480 494 l 1,83,-1
478 236 m 2,87,-1
 478 352 l 1,88,-1
 216 352 l 1,89,-1
 216 222 l 2,90,91
 216 186 216 186 272 160 c 0,92,93
 312 142 312 142 346 142 c 0,94,95
 390 142 390 142 434 168 c 128,-1,96
 478 194 478 194 478 236 c 2,87,-1
EndSplineSet
Ligature2: "'abvs' Above Base Substitutions lookup 6 subtable" tm_ta tm_iikaar
EndChar

StartChar: tm_n_iikaar
Encoding: 65570 -1 149
Width: 860
GlyphClass: 2
Flags: W
LayerCount: 2
Fore
SplineSet
886 948 m 2,0,1
 886 910 886 910 840 867 c 128,-1,2
 794 824 794 824 742 824 c 2,3,-1
 664 824 l 2,4,5
 608 824 608 824 561 866 c 128,-1,6
 514 908 514 908 514 980 c 1,7,-1
 516 1012 l 1,8,9
 468 982 468 982 468 894 c 0,10,11
 468 808 468 808 500 768 c 1,12,-1
 734 768 l 1,13,-1
 734 622 l 1,14,-1
 532 622 l 1,15,-1
 532 442 l 1,16,17
 556 448 556 448 581 452 c 128,-1,18
 606 456 606 456 628 456 c 0,19,20
 736 456 736 456 794 374 c 0,21,22
 836 314 836 314 836 244 c 2,23,-1
 836 32 l 2,24,25
 836 -118 836 -118 744 -174 c 0,26,27
 668 -218 668 -218 488 -218 c 2,28,-1
 246 -218 l 2,29,30
 206 -218 206 -218 192 -227 c 128,-1,31
 178 -236 178 -236 178 -274 c 2,32,-1
 178 -418 l 1,33,-1
 -6 -418 l 1,34,-1
 -6 -264 l 2,35,36
 -6 -180 -6 -180 50 -127 c 128,-1,37
 106 -74 106 -74 216 -74 c 2,38,-1
 516 -74 l 2,39,40
 584 -74 584 -74 614 -58 c 0,41,42
 656 -36 656 -36 656 26 c 2,43,-1
 656 242 l 2,44,45
 656 314 656 314 604 314 c 0,46,47
 532 314 532 314 532 238 c 2,48,-1
 532 0 l 1,49,-1
 352 0 l 1,50,-1
 352 626 l 1,51,-1
 226 626 l 1,52,-1
 226 0 l 1,53,-1
 40 0 l 1,54,-1
 40 768 l 1,55,-1
 324 768 l 1,56,57
 292 820 292 820 292 874 c 2,58,-1
 292 948 l 2,59,60
 292 1050 292 1050 376 1116 c 0,61,62
 446 1168 446 1168 536 1168 c 2,63,-1
 638 1168 l 2,64,65
 758 1168 758 1168 822 1125 c 128,-1,66
 886 1082 886 1082 886 1008 c 2,67,-1
 886 948 l 2,0,1
708 986 m 1,68,-1
 708 1018 l 2,69,70
 708 1036 708 1036 688 1038 c 0,71,72
 668 1038 668 1038 666 1016 c 2,73,-1
 666 988 l 2,74,75
 666 970 666 970 688 968 c 0,76,77
 704 968 704 968 708 986 c 1,68,-1
EndSplineSet
Ligature2: "'abvs' Above Base Substitutions lookup 6 subtable" tm_na tm_iikaar
EndChar

StartChar: tm_nnn_iikaar
Encoding: 65571 -1 150
Width: 1428
GlyphClass: 2
Flags: W
LayerCount: 2
Fore
SplineSet
1574 944 m 2,0,1
 1574 904 1574 904 1524 863 c 128,-1,2
 1474 822 1474 822 1428 822 c 2,3,-1
 1346 822 l 2,4,5
 1280 822 1280 822 1234 868 c 1,6,7
 1190 918 1190 918 1190 984 c 1,8,-1
 1192 1014 l 1,9,10
 1142 982 1142 982 1142 930 c 2,11,-1
 1142 880 l 2,12,13
 1142 808 1142 808 1178 768 c 1,14,-1
 1416 768 l 1,15,-1
 1416 620 l 1,16,-1
 1216 620 l 1,17,-1
 1216 0 l 1,18,-1
 1040 0 l 1,19,-1
 1040 618 l 1,20,-1
 874 618 l 1,21,22
 900 600 900 600 925 544 c 128,-1,23
 950 488 950 488 950 438 c 2,24,-1
 950 190 l 2,25,26
 950 104 950 104 890 50 c 1,27,28
 828 0 828 0 726 0 c 0,29,30
 632 0 632 0 571 53 c 128,-1,31
 510 106 510 106 510 208 c 2,32,-1
 510 448 l 2,33,34
 510 492 510 492 542 548 c 128,-1,35
 574 604 574 604 594 618 c 1,36,-1
 364 618 l 2,37,38
 294 618 294 618 222 510 c 1,39,40
 254 526 254 526 288 526 c 0,41,42
 362 526 362 526 416 467 c 128,-1,43
 470 408 470 408 470 330 c 2,44,-1
 470 194 l 2,45,46
 470 96 470 96 392 42 c 0,47,48
 328 0 328 0 238 0 c 0,49,50
 160 0 160 0 98 50 c 1,51,52
 30 112 30 112 30 212 c 2,53,-1
 30 410 l 2,54,55
 30 552 30 552 124 661 c 128,-1,56
 218 770 218 770 370 770 c 2,57,-1
 570 770 l 2,58,59
 604 770 604 770 657 752 c 128,-1,60
 710 734 710 734 728 714 c 1,61,62
 738 728 738 728 786 748 c 0,63,64
 810 756 810 756 842 762 c 128,-1,65
 874 768 874 768 904 768 c 2,66,-1
 998 768 l 1,67,68
 964 814 964 814 964 860 c 2,69,-1
 964 948 l 2,70,71
 964 1056 964 1056 1050 1122 c 0,72,73
 1122 1176 1122 1176 1218 1176 c 2,74,-1
 1330 1176 l 2,75,76
 1444 1176 1444 1176 1509 1128 c 128,-1,77
 1574 1080 1574 1080 1574 1014 c 2,78,-1
 1574 944 l 2,0,1
1394 990 m 2,79,-1
 1394 1022 l 2,80,81
 1394 1038 1394 1038 1370 1042 c 0,82,83
 1352 1042 1352 1042 1350 1022 c 2,84,-1
 1350 992 l 2,85,86
 1350 968 1350 968 1370 968 c 0,87,88
 1394 968 1394 968 1394 990 c 2,79,-1
766 182 m 2,89,-1
 766 486 l 2,90,91
 766 530 766 530 732 564 c 1,92,93
 696 524 696 524 696 482 c 2,94,-1
 696 182 l 2,95,96
 696 144 696 144 736 144 c 0,97,98
 766 144 766 144 766 182 c 2,89,-1
284 174 m 2,99,-1
 284 308 l 2,100,101
 284 342 284 342 250 342 c 0,102,103
 214 342 214 342 214 308 c 2,104,-1
 214 176 l 2,105,106
 214 142 214 142 252 142 c 0,107,108
 282 142 282 142 284 174 c 2,99,-1
EndSplineSet
Ligature2: "'abvs' Above Base Substitutions lookup 6 subtable" tm_nnna tm_iikaar
EndChar

StartChar: tm_p_iikaar
Encoding: 65572 -1 151
Width: 800
GlyphClass: 2
Flags: W
LayerCount: 2
Fore
SplineSet
920 958 m 2,0,1
 920 918 920 918 872 876 c 0,2,3
 824 838 824 838 780 838 c 2,4,-1
 702 838 l 2,5,6
 642 838 642 838 596 881 c 128,-1,7
 550 924 550 924 550 990 c 0,8,9
 550 1010 550 1010 554 1022 c 1,10,11
 506 988 506 988 506 916 c 2,12,-1
 506 706 l 2,13,14
 506 650 506 650 586 650 c 1,15,-1
 586 768 l 1,16,-1
 760 768 l 1,17,-1
 760 0 l 1,18,-1
 40 0 l 1,19,-1
 40 768 l 1,20,-1
 216 768 l 1,21,-1
 216 142 l 1,22,-1
 586 142 l 1,23,-1
 586 482 l 1,24,25
 472 482 472 482 403 558 c 128,-1,26
 334 634 334 634 334 738 c 2,27,-1
 334 964 l 2,28,29
 334 1068 334 1068 422 1126 c 0,30,31
 498 1176 498 1176 596 1176 c 2,32,-1
 680 1176 l 2,33,34
 794 1176 794 1176 857 1132 c 128,-1,35
 920 1088 920 1088 920 1020 c 2,36,-1
 920 958 l 2,0,1
744 996 m 2,37,-1
 744 1032 l 2,38,39
 744 1048 744 1048 726 1052 c 0,40,41
 708 1052 708 1052 708 1030 c 2,42,-1
 708 998 l 2,43,44
 708 982 708 982 726 978 c 0,45,46
 744 978 744 978 744 996 c 2,37,-1
EndSplineSet
Ligature2: "'abvs' Above Base Substitutions lookup 6 subtable" tm_pa tm_iikaar
EndChar

StartChar: tm_m_iikaar
Encoding: 65573 -1 152
Width: 948
GlyphClass: 2
Flags: W
LayerCount: 2
Fore
SplineSet
1112 948 m 2,0,1
 1112 904 1112 904 1062 862 c 0,2,3
 1012 824 1012 824 964 824 c 2,4,-1
 886 824 l 2,5,6
 830 824 830 824 784 868 c 1,7,8
 740 916 740 916 740 976 c 0,9,10
 740 996 740 996 744 1008 c 1,11,12
 712 990 712 990 704 967 c 128,-1,13
 696 944 696 944 696 894 c 0,14,15
 696 808 696 808 730 766 c 1,16,17
 826 754 826 754 876 674 c 0,18,19
 918 608 918 608 918 516 c 2,20,-1
 918 194 l 2,21,22
 918 0 918 0 744 0 c 2,23,-1
 40 0 l 1,24,-1
 40 770 l 1,25,-1
 218 770 l 1,26,-1
 218 144 l 1,27,-1
 442 144 l 1,28,-1
 442 594 l 2,29,30
 442 702 442 702 564 752 c 1,31,32
 516 788 516 788 516 874 c 2,33,-1
 516 948 l 2,34,35
 516 1048 516 1048 604 1112 c 0,36,37
 682 1166 682 1166 776 1166 c 2,38,-1
 878 1166 l 2,39,40
 986 1166 986 1166 1049 1122 c 128,-1,41
 1112 1078 1112 1078 1112 1008 c 2,42,-1
 1112 948 l 2,0,1
938 988 m 1,43,-1
 938 1020 l 2,44,45
 938 1038 938 1038 916 1038 c 0,46,47
 896 1038 896 1038 894 1018 c 2,48,-1
 894 990 l 2,49,50
 894 972 894 972 916 970 c 0,51,52
 934 970 934 970 938 988 c 1,43,-1
740 144 m 1,53,-1
 740 538 l 2,54,55
 740 624 740 624 674 624 c 0,56,57
 616 624 616 624 616 536 c 2,58,-1
 616 144 l 1,59,-1
 740 144 l 1,53,-1
EndSplineSet
Ligature2: "'abvs' Above Base Substitutions lookup 6 subtable" tm_ma tm_iikaar
EndChar

StartChar: tm_y_iikaar
Encoding: 65574 -1 153
Width: 1058
GlyphClass: 2
Flags: W
LayerCount: 2
Fore
SplineSet
1182 968 m 2,0,1
 1182 920 1182 920 1134 878 c 0,2,3
 1086 840 1086 840 1042 840 c 2,4,-1
 974 840 l 2,5,6
 900 840 900 840 854 894 c 0,7,8
 836 918 836 918 827 953 c 128,-1,9
 818 988 818 988 818 1036 c 1,10,11
 762 1002 762 1002 762 908 c 2,12,-1
 762 730 l 2,13,14
 762 646 762 646 846 646 c 1,15,-1
 846 768 l 1,16,-1
 1018 768 l 1,17,-1
 1018 0 l 1,18,-1
 336 0 l 1,19,-1
 336 62 l 1,20,21
 250 0 250 0 160 0 c 0,22,23
 110 0 110 0 75 30 c 128,-1,24
 40 60 40 60 40 116 c 2,25,-1
 40 768 l 1,26,-1
 214 768 l 1,27,-1
 214 174 l 2,28,29
 214 154 214 154 218 148 c 1,30,-1
 246 144 l 1,31,32
 308 144 308 144 338 222 c 1,33,-1
 338 768 l 1,34,-1
 516 768 l 1,35,-1
 516 148 l 1,36,-1
 846 148 l 1,37,-1
 846 490 l 1,38,39
 788 490 788 490 742 508 c 128,-1,40
 696 526 696 526 660 568 c 0,41,42
 594 646 594 646 594 752 c 2,43,-1
 594 972 l 2,44,45
 594 1074 594 1074 674 1133 c 128,-1,46
 754 1192 754 1192 854 1192 c 2,47,-1
 938 1192 l 2,48,49
 1054 1192 1054 1192 1118 1146 c 128,-1,50
 1182 1100 1182 1100 1182 1028 c 2,51,-1
 1182 968 l 2,0,1
1010 1004 m 2,52,-1
 1010 1040 l 2,53,54
 1010 1064 1010 1064 990 1064 c 0,55,56
 972 1064 972 1064 970 1038 c 2,57,-1
 970 1006 l 2,58,59
 970 988 970 988 990 988 c 0,60,61
 1008 988 1008 988 1010 1004 c 2,52,-1
EndSplineSet
Ligature2: "'abvs' Above Base Substitutions lookup 6 subtable" tm_ya tm_iikaar
EndChar

StartChar: tm_r_iikaar
Encoding: 65575 -1 154
Width: 802
GlyphClass: 2
Flags: W
LayerCount: 2
Fore
SplineSet
796 620 m 1,0,-1
 788 620 l 1,1,-1
 788 618 l 1,2,-1
 592 618 l 1,3,-1
 592 -28 l 1,4,-1
 156 -304 l 1,5,-1
 78 -186 l 1,6,-1
 408 27 l 1,7,-1
 408 620 l 1,8,-1
 244 620 l 1,9,-1
 244 0 l 1,10,-1
 40 0 l 1,11,-1
 40 768 l 1,12,-1
 70 768 l 1,13,-1
 70 770 l 1,14,-1
 369 770 l 1,15,16
 338 826 338 826 338 864 c 2,17,-1
 338 956 l 2,18,19
 338 1056 338 1056 428 1120 c 0,20,21
 504 1172 504 1172 602 1172 c 2,22,-1
 702 1172 l 2,23,24
 814 1172 814 1172 877 1129 c 128,-1,25
 940 1086 940 1086 940 1014 c 2,26,-1
 940 956 l 2,27,28
 940 910 940 910 892 864 c 0,29,30
 846 824 846 824 792 824 c 2,31,-1
 712 824 l 2,32,33
 656 824 656 824 610 870 c 128,-1,34
 564 916 564 916 564 976 c 0,35,36
 564 999 564 999 567 1011 c 1,37,38
 514 977 514 977 514 896 c 0,39,40
 514 819 514 819 550 770 c 1,41,-1
 796 770 l 1,42,-1
 796 620 l 1,0,-1
766 990 m 2,43,-1
 766 1022 l 2,44,45
 766 1038 766 1038 742 1042 c 0,46,47
 718 1042 718 1042 718 1020 c 2,48,-1
 718 992 l 2,49,50
 718 974 718 974 742 970 c 0,51,52
 766 970 766 970 766 990 c 2,43,-1
EndSplineSet
Ligature2: "'abvs' Above Base Substitutions lookup 5 subtable" tm_ra tm_iikaar
EndChar

StartChar: tm_rr_iikaar
Encoding: 65576 -1 155
Width: 884
GlyphClass: 2
Flags: W
LayerCount: 2
Fore
SplineSet
1056 956 m 2,0,1
 1056 910 1056 910 1009 869 c 128,-1,2
 962 828 962 828 914 828 c 2,3,-1
 834 828 l 2,4,5
 768 828 768 828 720 878 c 0,6,7
 700 902 700 902 692 935 c 128,-1,8
 684 968 684 968 684 1010 c 1,9,10
 638 980 638 980 638 934 c 2,11,-1
 638 884 l 2,12,13
 638 814 638 814 682 762 c 1,14,15
 742 748 742 748 798 674 c 128,-1,16
 854 600 854 600 854 524 c 2,17,-1
 854 116 l 2,18,19
 854 -208 854 -208 506 -208 c 2,20,-1
 200 -208 l 2,21,22
 154 -208 154 -208 154 -274 c 2,23,-1
 154 -412 l 1,24,-1
 -28 -412 l 1,25,-1
 -28 -246 l 2,26,27
 -28 -154 -28 -154 45 -109 c 128,-1,28
 118 -64 118 -64 226 -64 c 2,29,-1
 518 -64 l 2,30,31
 676 -64 676 -64 676 160 c 2,32,-1
 676 516 l 2,33,34
 676 550 676 550 653 585 c 128,-1,35
 630 620 630 620 590 620 c 0,36,37
 510 620 510 620 510 518 c 2,38,-1
 510 0 l 1,39,-1
 332 0 l 1,40,-1
 332 540 l 2,41,42
 332 620 332 620 276 620 c 0,43,44
 210 620 210 620 210 546 c 2,45,-1
 210 0 l 1,46,-1
 30 0 l 1,47,-1
 30 534 l 2,48,49
 30 632 30 632 103 699 c 128,-1,50
 176 766 176 766 250 766 c 0,51,52
 364 766 364 766 444 680 c 1,53,54
 468 720 468 720 508 740 c 1,55,56
 460 806 460 806 460 866 c 2,57,-1
 460 936 l 2,58,59
 460 1052 460 1052 548 1116 c 0,60,61
 624 1170 624 1170 726 1170 c 2,62,-1
 816 1170 l 2,63,64
 928 1170 928 1170 998 1122 c 0,65,66
 1056 1080 1056 1080 1056 1014 c 2,67,-1
 1056 956 l 2,0,1
880 990 m 1,68,-1
 880 1022 l 2,69,70
 880 1036 880 1036 858 1038 c 0,71,72
 840 1038 840 1038 838 1022 c 2,73,-1
 838 990 l 2,74,75
 838 972 838 972 858 972 c 0,76,77
 876 972 876 972 880 990 c 1,68,-1
EndSplineSet
Ligature2: "'abvs' Above Base Substitutions lookup 6 subtable" tm_rra tm_iikaar
EndChar

StartChar: tm_l_iikaar
Encoding: 65577 -1 156
Width: 1046
GlyphClass: 2
Flags: W
LayerCount: 2
Fore
SplineSet
1158 968 m 2,0,1
 1158 926 1158 926 1114 882 c 0,2,3
 1070 842 1070 842 1022 842 c 2,4,-1
 952 842 l 2,5,6
 878 842 878 842 830 896 c 0,7,8
 812 920 812 920 803 954 c 128,-1,9
 794 988 794 988 794 1030 c 1,10,11
 738 1002 738 1002 738 918 c 0,12,13
 738 836 738 836 774 812 c 1,14,-1
 850 780 l 1,15,16
 1016 690 1016 690 1016 518 c 2,17,-1
 1016 256 l 2,18,19
 1016 140 1016 140 936 70 c 128,-1,20
 856 0 856 0 748 0 c 0,21,22
 652 0 652 0 576 54 c 0,23,24
 496 116 496 116 496 220 c 2,25,-1
 496 440 l 2,26,27
 496 542 496 542 480 576 c 0,28,29
 458 622 458 622 392 622 c 2,30,-1
 322 622 l 2,31,32
 266 622 266 622 232 590 c 0,33,34
 206 566 206 566 206 522 c 2,35,-1
 206 502 l 1,36,37
 242 528 242 528 282 528 c 0,38,39
 356 528 356 528 405 479 c 128,-1,40
 454 430 454 430 454 346 c 2,41,-1
 454 196 l 2,42,43
 454 126 454 126 386 60 c 0,44,45
 320 0 320 0 236 0 c 256,46,47
 152 0 152 0 88 54 c 0,48,49
 30 108 30 108 30 198 c 2,50,-1
 30 518 l 2,51,52
 30 632 30 632 98 702 c 1,53,54
 170 770 170 770 302 770 c 2,55,-1
 432 770 l 2,56,57
 536 770 536 770 606 692 c 0,58,59
 666 622 666 622 666 526 c 2,60,-1
 666 230 l 2,61,62
 666 150 666 150 752 150 c 0,63,64
 844 150 844 150 844 242 c 2,65,-1
 844 486 l 2,66,67
 844 586 844 586 796 620 c 1,68,-1
 702 660 l 2,69,70
 660 678 660 678 622 740 c 0,71,72
 572 828 572 828 572 946 c 0,73,74
 572 1070 572 1070 664 1136 c 0,75,76
 740 1186 740 1186 856 1186 c 2,77,-1
 922 1186 l 2,78,79
 1036 1186 1036 1186 1097 1142 c 128,-1,80
 1158 1098 1158 1098 1158 1026 c 2,81,-1
 1158 968 l 2,0,1
986 1004 m 2,82,-1
 986 1040 l 2,83,84
 986 1060 986 1060 964 1062 c 0,85,86
 946 1062 946 1062 946 1042 c 2,87,-1
 946 1006 l 2,88,89
 946 988 946 988 966 988 c 0,90,91
 984 988 984 988 986 1004 c 2,82,-1
278 182 m 2,92,-1
 278 312 l 2,93,94
 278 348 278 348 240 348 c 0,95,96
 204 348 204 348 204 312 c 2,97,-1
 204 180 l 2,98,99
 204 152 204 152 242 152 c 0,100,101
 278 152 278 152 278 182 c 2,92,-1
EndSplineSet
Ligature2: "'abvs' Above Base Substitutions lookup 5 subtable" tm_la tm_iikaar
EndChar

StartChar: tm_ll_iikaar
Encoding: 65578 -1 157
Width: 1222
GlyphClass: 2
Flags: W
LayerCount: 2
Fore
SplineSet
1372 964 m 2,0,1
 1372 924 1372 924 1324 876 c 1,2,3
 1276 834 1276 834 1230 834 c 2,4,-1
 1150 834 l 2,5,6
 1092 834 1092 834 1044 882 c 1,7,8
 1000 932 1000 932 1000 996 c 0,9,10
 1000 1016 1000 1016 1004 1028 c 1,11,12
 956 988 956 988 956 950 c 2,13,-1
 956 882 l 2,14,15
 956 824 956 824 992 770 c 1,16,-1
 1208 770 l 1,17,-1
 1208 624 l 1,18,-1
 1008 624 l 1,19,-1
 1008 0 l 1,20,-1
 834 0 l 1,21,-1
 834 624 l 1,22,-1
 774 624 l 2,23,24
 712 624 712 624 712 544 c 2,25,-1
 712 0 l 1,26,-1
 534 0 l 1,27,-1
 534 498 l 2,28,29
 534 622 534 622 418 622 c 2,30,-1
 354 622 l 2,31,32
 302 622 302 622 258 598 c 128,-1,33
 214 574 214 574 214 528 c 0,34,35
 214 512 214 512 218 504 c 1,36,37
 252 526 252 526 292 526 c 0,38,39
 358 526 358 526 411 473 c 128,-1,40
 464 420 464 420 464 332 c 2,41,-1
 464 192 l 2,42,43
 464 102 464 102 392 48 c 0,44,45
 328 0 328 0 240 0 c 0,46,47
 156 0 156 0 98 52 c 0,48,49
 30 110 30 110 30 210 c 2,50,-1
 30 418 l 2,51,52
 30 588 30 588 68 652 c 0,53,54
 134 766 134 766 320 766 c 2,55,-1
 450 766 l 2,56,57
 532 766 532 766 608 700 c 1,58,59
 688 770 688 770 782 770 c 2,60,-1
 812 770 l 1,61,62
 778 838 778 838 778 882 c 2,63,-1
 778 970 l 2,64,65
 778 1066 778 1066 866 1130 c 0,66,67
 946 1186 946 1186 1042 1186 c 2,68,-1
 1168 1186 l 2,69,70
 1256 1186 1256 1186 1314 1134 c 0,71,72
 1372 1086 1372 1086 1372 1026 c 2,73,-1
 1372 964 l 2,0,1
1202 1002 m 2,74,-1
 1202 1034 l 2,75,76
 1202 1050 1202 1050 1178 1054 c 0,77,78
 1158 1054 1158 1054 1156 1034 c 2,79,-1
 1156 1002 l 2,80,81
 1156 984 1156 984 1178 984 c 0,82,83
 1202 984 1202 984 1202 1002 c 2,74,-1
288 178 m 2,84,-1
 288 326 l 2,85,86
 288 362 288 362 250 362 c 256,87,88
 212 362 212 362 212 324 c 2,89,-1
 212 176 l 2,90,91
 212 144 212 144 248 144 c 0,92,93
 288 144 288 144 288 178 c 2,84,-1
EndSplineSet
Ligature2: "'abvs' Above Base Substitutions lookup 6 subtable" tm_lla tm_iikaar
EndChar

StartChar: tm_lll_iikaar
Encoding: 65579 -1 158
Width: 966
GlyphClass: 2
Flags: W
LayerCount: 2
Fore
SplineSet
1106 952 m 2,0,1
 1106 912 1106 912 1058 870 c 1,2,3
 1008 832 1008 832 964 832 c 2,4,-1
 884 832 l 2,5,6
 824 832 824 832 778 878 c 0,7,8
 758 900 758 900 746 928 c 128,-1,9
 734 956 734 956 734 990 c 0,10,11
 734 1010 734 1010 738 1022 c 1,12,13
 684 980 684 980 684 938 c 2,14,-1
 684 888 l 2,15,16
 684 818 684 818 732 764 c 1,17,18
 936 734 936 734 936 498 c 2,19,-1
 936 160 l 2,20,21
 936 102 936 102 906 56 c 0,22,23
 870 -2 870 -2 794 -2 c 2,24,-1
 624 -2 l 1,25,26
 620 -32 620 -32 644 -57 c 128,-1,27
 668 -82 668 -82 722 -82 c 2,28,-1
 844 -82 l 1,29,-1
 844 -226 l 1,30,-1
 684 -226 l 2,31,32
 632 -226 632 -226 596 -270 c 2,33,-1
 542 -344 l 1,34,35
 458 -422 458 -422 292 -422 c 0,36,37
 178 -422 178 -422 100 -368 c 0,38,39
 4 -302 4 -302 4 -178 c 2,40,-1
 4 -114 l 1,41,-1
 184 -114 l 1,42,-1
 176 -154 l 1,43,44
 176 -278 176 -278 294 -278 c 0,45,46
 378 -278 378 -278 442 -215 c 128,-1,47
 506 -152 506 -152 526 -148 c 1,48,49
 482 -128 482 -128 464 -93 c 128,-1,50
 446 -58 446 -58 446 0 c 1,51,-1
 40 0 l 1,52,-1
 40 768 l 1,53,-1
 214 768 l 1,54,-1
 214 146 l 1,55,-1
 444 146 l 1,56,-1
 444 614 l 2,57,58
 444 696 444 696 552 744 c 1,59,60
 508 794 508 794 508 854 c 2,61,-1
 508 958 l 2,62,63
 508 1062 508 1062 598 1126 c 0,64,65
 674 1178 674 1178 776 1178 c 2,66,-1
 866 1178 l 2,67,68
 1106 1178 1106 1178 1106 1020 c 2,69,-1
 1106 952 l 2,0,1
934 998 m 2,70,-1
 934 1030 l 2,71,72
 934 1048 934 1048 910 1048 c 0,73,74
 894 1048 894 1048 890 1030 c 1,75,-1
 890 998 l 2,76,77
 890 980 890 980 910 980 c 0,78,79
 934 980 934 980 934 998 c 2,70,-1
756 146 m 1,80,-1
 756 508 l 2,81,82
 756 622 756 622 688 622 c 0,83,84
 626 622 626 622 626 550 c 2,85,-1
 626 146 l 1,86,-1
 756 146 l 1,80,-1
EndSplineSet
Ligature2: "'abvs' Above Base Substitutions lookup 6 subtable" tm_llla tm_iikaar
EndChar

StartChar: tm_v_iikaar
Encoding: 65580 -1 159
Width: 1246
GlyphClass: 2
Flags: W
LayerCount: 2
Fore
SplineSet
1366 960 m 2,0,1
 1366 922 1366 922 1317 879 c 128,-1,2
 1268 836 1268 836 1222 836 c 2,3,-1
 1140 836 l 2,4,5
 1074 836 1074 836 1026 890 c 0,6,7
 1006 916 1006 916 999 946 c 128,-1,8
 992 976 992 976 992 1026 c 1,9,10
 938 978 938 978 938 918 c 2,11,-1
 938 732 l 2,12,13
 938 694 938 694 959 671 c 128,-1,14
 980 648 980 648 1010 648 c 2,15,-1
 1030 650 l 1,16,-1
 1030 766 l 1,17,-1
 1206 766 l 1,18,-1
 1206 0 l 1,19,-1
 488 0 l 1,20,-1
 488 136 l 1,21,22
 564 160 564 160 592 232 c 0,23,24
 608 280 608 280 608 378 c 2,25,-1
 608 474 l 2,26,27
 608 626 608 626 466 626 c 2,28,-1
 376 626 l 2,29,30
 224 626 224 626 224 516 c 1,31,32
 262 530 262 530 292 530 c 0,33,34
 362 530 362 530 413 481 c 128,-1,35
 464 432 464 432 464 368 c 2,36,-1
 464 200 l 2,37,38
 464 112 464 112 396 56 c 128,-1,39
 328 0 328 0 240 0 c 0,40,41
 154 0 154 0 96 48 c 0,42,43
 30 102 30 102 30 210 c 2,44,-1
 30 464 l 2,45,46
 30 632 30 632 110 706 c 0,47,48
 184 770 184 770 342 770 c 2,49,-1
 526 770 l 2,50,51
 642 770 642 770 713 694 c 128,-1,52
 784 618 784 618 784 508 c 2,53,-1
 784 334 l 2,54,55
 784 208 784 208 658 142 c 1,56,-1
 1030 142 l 1,57,-1
 1030 488 l 1,58,-1
 992 484 l 1,59,60
 904 484 904 484 832 566 c 128,-1,61
 760 648 760 648 760 734 c 2,62,-1
 760 966 l 2,63,64
 760 1060 760 1060 850 1126 c 0,65,66
 930 1182 930 1182 1030 1182 c 2,67,-1
 1114 1182 l 2,68,69
 1234 1182 1234 1182 1304 1136 c 0,70,71
 1366 1092 1366 1092 1366 1020 c 2,72,-1
 1366 960 l 2,0,1
1188 998 m 2,73,-1
 1188 1036 l 2,74,75
 1188 1048 1188 1048 1170 1052 c 0,76,77
 1152 1052 1152 1052 1150 1036 c 2,78,-1
 1150 1000 l 2,79,80
 1150 986 1150 986 1170 984 c 0,81,82
 1188 984 1188 984 1188 998 c 2,73,-1
284 178 m 2,83,-1
 284 312 l 2,84,85
 284 346 284 346 248 346 c 0,86,87
 210 346 210 346 210 312 c 2,88,-1
 210 180 l 2,89,90
 210 144 210 144 250 144 c 0,91,92
 284 144 284 144 284 178 c 2,83,-1
EndSplineSet
Ligature2: "'abvs' Above Base Substitutions lookup 6 subtable" tm_va tm_iikaar
EndChar

StartChar: tm_ss_iikaar
Encoding: 65581 -1 160
Width: 1446
GlyphClass: 2
Flags: W
LayerCount: 2
Fore
SplineSet
1526 934 m 2,0,1
 1526 892 1526 892 1476 851 c 128,-1,2
 1426 810 1426 810 1384 810 c 2,3,-1
 1320 810 l 2,4,5
 1250 810 1250 810 1196 858 c 0,6,7
 1148 906 1148 906 1148 980 c 1,8,-1
 1150 1010 l 1,9,10
 1094 978 1094 978 1094 914 c 2,11,-1
 1094 856 l 2,12,13
 1094 804 1094 804 1132 754 c 1,14,15
 1186 742 1186 742 1229 692 c 128,-1,16
 1272 642 1272 642 1272 576 c 2,17,-1
 1272 350 l 2,18,19
 1272 222 1272 222 1184 140 c 1,20,-1
 1432 140 l 1,21,-1
 1432 0 l 1,22,-1
 1054 0 l 1,23,-1
 962 -100 l 2,24,25
 890 -184 890 -184 890 -248 c 2,26,-1
 890 -408 l 1,27,-1
 712 -408 l 1,28,-1
 712 -258 l 2,29,30
 712 -192 712 -192 772 -108 c 1,31,-1
 862 0 l 1,32,-1
 478 0 l 1,33,-1
 478 128 l 1,34,35
 524 160 524 160 566 240 c 0,36,37
 596 302 596 302 600 332 c 1,38,-1
 600 480 l 2,39,40
 600 622 600 622 454 622 c 2,41,-1
 364 622 l 2,42,43
 274 622 274 622 240 582 c 0,44,45
 222 560 222 560 222 512 c 1,46,47
 256 530 256 530 292 530 c 0,48,49
 358 530 358 530 409 478 c 128,-1,50
 460 426 460 426 460 362 c 2,51,-1
 460 212 l 2,52,53
 460 120 460 120 390 58 c 0,54,55
 320 0 320 0 230 0 c 0,56,57
 146 0 146 0 88 52 c 128,-1,58
 30 104 30 104 30 202 c 2,59,-1
 30 490 l 2,60,61
 30 768 30 768 328 768 c 2,62,-1
 514 768 l 2,63,64
 626 768 626 768 701 695 c 128,-1,65
 776 622 776 622 776 514 c 2,66,-1
 776 340 l 2,67,68
 776 212 776 212 662 142 c 1,69,-1
 906 142 l 1,70,71
 836 206 836 206 836 342 c 2,72,-1
 836 576 l 2,73,74
 836 698 836 698 960 746 c 1,75,76
 922 804 922 804 922 848 c 2,77,-1
 922 938 l 2,78,79
 922 1038 922 1038 1000 1108 c 0,80,81
 1072 1170 1072 1170 1168 1170 c 2,82,-1
 1282 1170 l 2,83,84
 1394 1170 1394 1170 1464 1118 c 0,85,86
 1526 1068 1526 1068 1526 1006 c 2,87,-1
 1526 934 l 2,0,1
1352 982 m 2,88,-1
 1352 1014 l 2,89,90
 1352 1032 1352 1032 1326 1032 c 0,91,92
 1308 1032 1308 1032 1306 1012 c 2,93,-1
 1306 982 l 2,94,95
 1306 964 1306 964 1326 962 c 0,96,97
 1350 962 1350 962 1352 982 c 2,88,-1
1094 294 m 2,98,-1
 1094 580 l 2,99,100
 1094 616 1094 616 1054 616 c 0,101,102
 1020 616 1020 616 1020 574 c 2,103,-1
 1020 298 l 2,104,105
 1020 244 1020 244 1052 206 c 1,106,107
 1094 254 1094 254 1094 294 c 2,98,-1
280 184 m 2,108,-1
 280 312 l 2,109,110
 280 348 280 348 246 348 c 0,111,112
 210 348 210 348 210 312 c 2,113,-1
 210 180 l 2,114,115
 210 148 210 148 248 148 c 0,116,117
 280 148 280 148 280 184 c 2,108,-1
EndSplineSet
Ligature2: "'abvs' Above Base Substitutions lookup 6 subtable" tm_ssa tm_iikaar
EndChar

StartChar: tm_s_iikaar
Encoding: 65582 -1 161
Width: 1424
GlyphClass: 2
Flags: W
LayerCount: 2
Fore
SplineSet
1574 962 m 2,0,1
 1574 918 1574 918 1523 878 c 128,-1,2
 1472 838 1472 838 1422 838 c 2,3,-1
 1350 838 l 2,4,5
 1278 838 1278 838 1230 898 c 1,6,7
 1190 956 1190 956 1196 1026 c 1,8,9
 1140 980 1140 980 1140 880 c 0,10,11
 1140 824 1140 824 1174 798 c 1,12,-1
 1236 766 l 1,13,14
 1392 664 1392 664 1392 520 c 2,15,-1
 1392 230 l 2,16,17
 1392 132 1392 132 1310 66 c 128,-1,18
 1228 0 1228 0 1112 0 c 0,19,20
 1004 0 1004 0 932 55 c 128,-1,21
 860 110 860 110 860 218 c 2,22,-1
 860 508 l 2,23,24
 860 618 860 618 784 618 c 0,25,26
 746 618 746 618 714 594 c 128,-1,27
 682 570 682 570 682 520 c 2,28,-1
 682 0 l 1,29,-1
 508 0 l 1,30,-1
 508 510 l 2,31,32
 508 624 508 624 388 624 c 2,33,-1
 342 624 l 2,34,35
 294 624 294 624 255 598 c 128,-1,36
 216 572 216 572 216 530 c 2,37,-1
 218 508 l 1,38,39
 268 528 268 528 308 528 c 0,40,41
 374 528 374 528 419 481 c 128,-1,42
 464 434 464 434 464 358 c 2,43,-1
 464 194 l 2,44,45
 464 104 464 104 398 50 c 0,46,47
 332 0 332 0 244 0 c 0,48,49
 162 0 162 0 96 52 c 128,-1,50
 30 104 30 104 30 194 c 2,51,-1
 30 426 l 2,52,53
 30 584 30 584 70 652 c 0,54,55
 98 700 98 700 169 735 c 128,-1,56
 240 770 240 770 308 770 c 2,57,-1
 440 770 l 2,58,59
 558 770 558 770 624 674 c 1,60,61
 690 768 690 768 816 768 c 0,62,63
 902 768 902 768 962 716 c 0,64,65
 1036 654 1036 654 1036 548 c 2,66,-1
 1036 210 l 2,67,68
 1036 136 1036 136 1112 136 c 0,69,70
 1156 136 1156 136 1182 159 c 128,-1,71
 1208 182 1208 182 1212 214 c 1,72,-1
 1212 512 l 2,73,74
 1212 604 1212 604 1136 644 c 0,75,76
 1040 694 1040 694 1008 742 c 0,77,78
 966 802 966 802 966 926 c 0,79,80
 966 1056 966 1056 1058 1124 c 0,81,82
 1138 1180 1138 1180 1252 1180 c 2,83,-1
 1336 1180 l 2,84,85
 1444 1180 1444 1180 1509 1137 c 128,-1,86
 1574 1094 1574 1094 1574 1022 c 2,87,-1
 1574 962 l 2,0,1
1394 998 m 2,88,-1
 1394 1034 l 2,89,90
 1394 1052 1394 1052 1374 1052 c 0,91,92
 1356 1052 1356 1052 1356 1036 c 2,93,-1
 1356 1000 l 2,94,95
 1356 988 1356 988 1374 984 c 0,96,97
 1392 984 1392 984 1394 998 c 2,88,-1
286 190 m 2,98,-1
 286 312 l 2,99,100
 286 344 286 344 246 344 c 0,101,102
 212 344 212 344 208 314 c 1,103,-1
 208 182 l 2,104,105
 208 144 208 144 248 144 c 0,106,107
 286 144 286 144 286 190 c 2,98,-1
EndSplineSet
Ligature2: "'abvs' Above Base Substitutions lookup 5 subtable" tm_sa tm_iikaar
EndChar

StartChar: tm_h_iikaar
Encoding: 65583 -1 162
Width: 1696
GlyphClass: 2
Flags: W
LayerCount: 2
Fore
SplineSet
1878 958 m 2,0,1
 1878 916 1878 916 1832 876 c 128,-1,2
 1786 836 1786 836 1740 836 c 2,3,-1
 1650 836 l 2,4,5
 1588 836 1588 836 1545 883 c 128,-1,6
 1502 930 1502 930 1502 996 c 1,7,-1
 1504 1028 l 1,8,9
 1458 972 1458 972 1454 938 c 1,10,-1
 1454 872 l 2,11,12
 1454 838 1454 838 1500 760 c 1,13,14
 1556 742 1556 742 1606 684 c 0,15,16
 1664 614 1664 614 1664 526 c 2,17,-1
 1664 118 l 2,18,19
 1664 -208 1664 -208 1326 -208 c 2,20,-1
 236 -208 l 2,21,22
 170 -208 170 -208 170 -258 c 2,23,-1
 170 -410 l 1,24,-1
 -8 -410 l 1,25,-1
 -8 -248 l 2,26,27
 -8 -62 -8 -62 224 -62 c 2,28,-1
 1340 -62 l 2,29,30
 1486 -62 1486 -62 1486 142 c 2,31,-1
 1486 516 l 2,32,33
 1486 544 1486 544 1466 578 c 0,34,35
 1440 622 1440 622 1400 622 c 0,36,37
 1358 622 1358 622 1335 590 c 128,-1,38
 1312 558 1312 558 1312 522 c 2,39,-1
 1312 0 l 1,40,-1
 1140 0 l 1,41,-1
 1140 542 l 2,42,43
 1140 622 1140 622 1086 622 c 0,44,45
 1016 622 1016 622 1016 532 c 2,46,-1
 1016 0 l 1,47,-1
 484 0 l 1,48,-1
 484 130 l 1,49,50
 610 176 610 176 610 326 c 2,51,-1
 610 486 l 2,52,53
 610 626 610 626 448 626 c 2,54,-1
 358 626 l 2,55,56
 262 626 262 626 230 582 c 0,57,58
 214 560 214 560 214 506 c 1,59,60
 230 516 230 516 249 522 c 128,-1,61
 268 528 268 528 290 528 c 0,62,63
 358 528 358 528 410 476 c 128,-1,64
 462 424 462 424 462 362 c 2,65,-1
 462 212 l 2,66,67
 462 122 462 122 392 61 c 128,-1,68
 322 0 322 0 236 0 c 0,69,70
 146 0 146 0 88 54 c 128,-1,71
 30 108 30 108 30 204 c 2,72,-1
 30 502 l 2,73,74
 30 768 30 768 342 768 c 2,75,-1
 508 768 l 2,76,77
 630 768 630 768 700 698 c 1,78,79
 774 630 774 630 774 522 c 2,80,-1
 774 326 l 2,81,82
 774 262 774 262 738 213 c 128,-1,83
 702 164 702 164 656 146 c 1,84,-1
 838 146 l 1,85,-1
 838 538 l 2,86,87
 838 632 838 632 916 704 c 0,88,89
 988 766 988 766 1062 766 c 0,90,91
 1178 766 1178 766 1252 680 c 1,92,93
 1278 722 1278 722 1326 748 c 1,94,95
 1278 826 1278 826 1278 874 c 2,96,-1
 1278 962 l 2,97,98
 1278 1062 1278 1062 1357 1122 c 128,-1,99
 1436 1182 1436 1182 1548 1182 c 2,100,-1
 1662 1182 l 2,101,102
 1752 1182 1752 1182 1816 1136 c 0,103,104
 1840 1120 1840 1120 1852 1104 c 0,105,106
 1878 1072 1878 1072 1878 1032 c 2,107,-1
 1878 958 l 2,0,1
1700 998 m 1,108,-1
 1700 1032 l 2,109,110
 1700 1050 1700 1050 1678 1052 c 0,111,112
 1660 1052 1660 1052 1658 1032 c 2,113,-1
 1658 1000 l 2,114,115
 1658 982 1658 982 1678 980 c 0,116,117
 1696 980 1696 980 1700 998 c 1,108,-1
280 184 m 2,118,-1
 280 314 l 2,119,120
 280 348 280 348 246 348 c 0,121,122
 206 348 206 348 206 312 c 2,123,-1
 206 180 l 2,124,125
 206 148 206 148 248 148 c 0,126,127
 280 148 280 148 280 184 c 2,118,-1
EndSplineSet
Ligature2: "'abvs' Above Base Substitutions lookup 6 subtable" tm_ha tm_iikaar
EndChar

StartChar: tm_k_ukaar
Encoding: 65584 -1 163
Width: 1264
GlyphClass: 2
Flags: W
LayerCount: 2
Fore
SplineSet
1240 50 m 2,0,1
 1240 -76 1240 -76 1134 -176 c 128,-1,2
 1028 -276 1028 -276 870 -276 c 2,3,-1
 476 -276 l 2,4,5
 300 -276 300 -276 165 -159 c 128,-1,6
 30 -42 30 -42 30 116 c 2,7,-1
 30 362 l 2,8,9
 30 632 30 632 314 778 c 1,10,-1
 370 656 l 1,11,12
 320 638 320 638 270 568 c 0,13,14
 206 476 206 476 206 360 c 2,15,-1
 206 134 l 2,16,17
 206 36 206 36 293 -48 c 128,-1,18
 380 -132 380 -132 510 -132 c 2,19,-1
 858 -132 l 2,20,21
 930 -132 930 -132 990 -86 c 0,22,23
 1060 -34 1060 -34 1060 48 c 2,24,-1
 1060 270 l 2,25,26
 1060 352 1060 352 992 352 c 2,27,-1
 928 352 l 1,28,-1
 928 240 l 2,29,30
 928 0 928 0 590 0 c 0,31,32
 478 0 478 0 388 60 c 1,33,34
 296 128 296 128 296 222 c 2,35,-1
 296 368 l 2,36,37
 296 416 296 416 324 452 c 0,38,39
 362 496 362 496 420 496 c 2,40,-1
 452 494 l 1,41,-1
 452 766 l 1,42,-1
 1130 766 l 1,43,-1
 1130 620 l 1,44,-1
 928 620 l 1,45,-1
 928 494 l 1,46,-1
 1012 494 l 2,47,48
 1110 494 1110 494 1175 445 c 128,-1,49
 1240 396 1240 396 1240 294 c 2,50,-1
 1240 50 l 2,0,1
750 496 m 1,51,-1
 750 622 l 1,52,-1
 626 622 l 1,53,-1
 626 496 l 1,54,-1
 750 496 l 1,51,-1
750 252 m 2,55,-1
 750 352 l 1,56,-1
 494 352 l 1,57,-1
 494 224 l 2,58,59
 494 188 494 188 540 162 c 0,60,61
 576 144 576 144 616 144 c 0,62,63
 750 144 750 144 750 252 c 2,55,-1
EndSplineSet
Ligature2: "'psts' Post Base Substitutions lookup 7 subtable" tm_ka tm_ukaar
EndChar

StartChar: tm_ng_ukaar
Encoding: 65585 -1 164
Width: 1193
GlyphClass: 2
Flags: W
LayerCount: 2
Fore
SplineSet
1158 -272 m 1,0,-1
 978 -272 l 1,1,-1
 978 0 l 1,2,-1
 572 0 l 1,3,-1
 572 154 l 1,4,5
 656 176 656 176 656 242 c 2,6,-1
 656 318 l 2,7,8
 656 380 656 380 604 380 c 0,9,10
 568 380 568 380 532 338 c 1,11,-1
 532 0 l 1,12,-1
 354 0 l 1,13,-1
 354 624 l 1,14,-1
 226 624 l 1,15,-1
 226 0 l 1,16,-1
 40 0 l 1,17,-1
 40 770 l 1,18,-1
 738 770 l 1,19,-1
 738 624 l 1,20,-1
 532 624 l 1,21,-1
 532 504 l 1,22,23
 576 524 576 524 624 524 c 0,24,25
 700 524 700 524 766 470 c 128,-1,26
 832 416 832 416 832 324 c 0,27,28
 832 238 832 238 794 192 c 0,29,30
 780 172 780 172 736 144 c 1,31,-1
 978 144 l 1,32,-1
 978 766 l 1,33,-1
 1158 766 l 1,34,-1
 1158 -272 l 1,0,-1
EndSplineSet
Ligature2: "'psts' Post Base Substitutions lookup 7 subtable" tm_nga tm_ukaar
EndChar

StartChar: tm_c_ukaar
Encoding: 65586 -1 165
Width: 1042
GlyphClass: 2
Flags: W
LayerCount: 2
Fore
SplineSet
1028 354 m 1,0,-1
 888 354 l 1,1,-1
 888 0 l 1,2,-1
 712 0 l 1,3,-1
 712 354 l 1,4,-1
 658 354 l 1,5,-1
 658 246 l 2,6,7
 658 0 658 0 326 0 c 0,8,9
 210 0 210 0 120 60 c 0,10,11
 24 126 24 126 24 224 c 2,12,-1
 24 364 l 2,13,14
 24 422 24 422 59 462 c 128,-1,15
 94 502 94 502 152 502 c 0,16,17
 168 500 168 500 176 500 c 1,18,-1
 176 770 l 1,19,-1
 856 770 l 1,20,-1
 856 622 l 1,21,-1
 658 622 l 1,22,-1
 658 496 l 1,23,-1
 1028 496 l 1,24,-1
 1028 354 l 1,0,-1
478 498 m 1,25,-1
 478 622 l 1,26,-1
 354 622 l 1,27,-1
 354 498 l 1,28,-1
 478 498 l 1,25,-1
480 228 m 2,29,-1
 480 354 l 1,30,-1
 220 354 l 1,31,-1
 220 218 l 2,32,33
 220 190 220 190 270 166 c 0,34,35
 312 148 312 148 346 148 c 0,36,37
 388 148 388 148 428 168 c 0,38,39
 480 190 480 190 480 228 c 2,29,-1
EndSplineSet
Ligature2: "'psts' Post Base Substitutions lookup 7 subtable" tm_ca tm_ukaar
EndChar

StartChar: glyph167
Encoding: 65587 -1 166
Width: 1012
GlyphClass: 2
Flags: W
LayerCount: 2
Fore
SplineSet
68 876 m 1,0,-1
 943 876 l 1,1,-1
 943 0 l 1,2,-1
 68 0 l 1,3,-1
 68 876 l 1,0,-1
873 70 m 1,4,-1
 873 804 l 1,5,-1
 138 804 l 1,6,-1
 138 70 l 1,7,-1
 873 70 l 1,4,-1
EndSplineSet
EndChar

StartChar: tm_ny_ukaar
Encoding: 65588 -1 167
Width: 1495
GlyphClass: 2
Flags: W
LayerCount: 2
Fore
SplineSet
1455 -196 m 1,0,-1
 1021 -196 l 1,1,2
 825 -414 825 -414 417 -414 c 0,3,4
 259 -414 259 -414 145 -361 c 128,-1,5
 31 -308 31 -308 31 -220 c 2,6,-1
 31 -152 l 2,7,8
 31 -58 31 -58 223 -58 c 2,9,-1
 906 -58 l 1,10,11
 951 -13 951 -13 951 50 c 2,12,-1
 951 236 l 2,13,14
 951 312 951 312 901 312 c 0,15,16
 871 312 871 312 827 268 c 1,17,-1
 827 0 l 1,18,-1
 651 0 l 1,19,-1
 651 620 l 1,20,-1
 425 620 l 2,21,22
 375 620 375 620 331 580 c 128,-1,23
 287 540 287 540 281 508 c 1,24,25
 311 526 311 526 347 526 c 0,26,27
 411 526 411 526 464 470 c 128,-1,28
 517 414 517 414 517 332 c 2,29,-1
 517 204 l 2,30,31
 517 100 517 100 447 48 c 0,32,33
 389 2 389 2 299 2 c 0,34,35
 211 2 211 2 152 56 c 128,-1,36
 93 110 93 110 93 216 c 2,37,-1
 93 436 l 2,38,39
 93 566 93 566 189 666 c 128,-1,40
 285 766 285 766 425 766 c 2,41,-1
 1027 766 l 1,42,-1
 1027 620 l 1,43,-1
 827 620 l 1,44,-1
 827 428 l 1,45,46
 873 454 873 454 925 454 c 0,47,48
 997 454 997 454 1055 408 c 0,49,50
 1131 350 1131 350 1131 244 c 2,51,-1
 1131 62 l 2,52,53
 1131 6 1131 6 1097 -52 c 1,54,-1
 1279 -52 l 1,55,-1
 1279 768 l 1,56,-1
 1455 768 l 1,57,-1
 1455 -196 l 1,0,-1
407 -274 m 0,58,59
 499 -274 499 -274 609 -249 c 0,60,61
 713 -225 713 -225 749 -206 c 1,62,-1
 749 -204 l 1,63,-1
 173 -204 l 1,64,65
 219 -274 219 -274 407 -274 c 0,58,59
347 176 m 2,66,-1
 347 306 l 2,67,68
 347 342 347 342 311 342 c 0,69,70
 271 342 271 342 271 308 c 2,71,-1
 271 174 l 2,72,73
 271 146 271 146 311 146 c 0,74,75
 347 146 347 146 347 176 c 2,66,-1
EndSplineSet
Ligature2: "'psts' Post Base Substitutions lookup 7 subtable" tm_nya tm_ukaar
EndChar

StartChar: tm_tt_ukaar
Encoding: 65589 -1 168
Width: 906
GlyphClass: 2
Flags: W
LayerCount: 2
Fore
SplineSet
876 -44 m 2,0,1
 876 -152 876 -152 777 -226 c 128,-1,2
 678 -300 678 -300 564 -300 c 2,3,-1
 386 -300 l 2,4,5
 222 -300 222 -300 131 -202 c 128,-1,6
 40 -104 40 -104 40 82 c 2,7,-1
 40 756 l 2,8,9
 40 894 40 894 129 979 c 128,-1,10
 218 1064 218 1064 374 1064 c 2,11,-1
 564 1064 l 2,12,13
 672 1064 672 1064 772 976 c 128,-1,14
 872 888 872 888 872 756 c 2,15,-1
 872 632 l 1,16,-1
 698 632 l 1,17,-1
 698 728 l 2,18,19
 698 832 698 832 654 876 c 128,-1,20
 610 920 610 920 520 920 c 2,21,-1
 368 920 l 2,22,23
 216 920 216 920 216 746 c 2,24,-1
 216 32 l 2,25,26
 216 -60 216 -60 280 -112 c 0,27,28
 336 -158 336 -158 404 -158 c 2,29,-1
 548 -158 l 2,30,31
 608 -158 608 -158 649 -109 c 128,-1,32
 690 -60 690 -60 690 -4 c 2,33,-1
 690 252 l 2,34,35
 690 316 690 316 638 316 c 0,36,37
 608 316 608 316 566 274 c 1,38,-1
 566 0 l 1,39,-1
 376 0 l 1,40,-1
 376 768 l 1,41,-1
 558 768 l 1,42,-1
 558 440 l 1,43,44
 608 460 608 460 650 460 c 0,45,46
 740 460 740 460 804 408 c 0,47,48
 876 348 876 348 876 248 c 2,49,-1
 876 -44 l 2,0,1
EndSplineSet
Ligature2: "'psts' Post Base Substitutions lookup 7 subtable" tm_tta tm_ukaar
EndChar

StartChar: tm_nn_ukaar
Encoding: 65590 -1 169
Width: 1958
GlyphClass: 2
Flags: W
LayerCount: 2
Fore
SplineSet
1918 -204 m 1,0,-1
 1482 -204 l 1,1,2
 1274 -420 1274 -420 946 -420 c 2,3,-1
 382 -420 l 2,4,5
 220 -420 220 -420 116 -359 c 128,-1,6
 12 -298 12 -298 12 -198 c 0,7,8
 12 -62 12 -62 184 -62 c 2,9,-1
 1388 -62 l 1,10,11
 1488 86 1488 86 1488 188 c 2,12,-1
 1488 424 l 2,13,14
 1488 618 1488 618 1382 618 c 1,15,-1
 1350 612 l 1,16,17
 1382 572 1382 572 1398 524 c 128,-1,18
 1414 476 1414 476 1414 410 c 2,19,-1
 1414 196 l 2,20,21
 1414 110 1414 110 1351 52 c 128,-1,22
 1288 -6 1288 -6 1194 -6 c 0,23,24
 1106 -6 1106 -6 1045 45 c 128,-1,25
 984 96 984 96 984 180 c 2,26,-1
 984 422 l 2,27,28
 984 502 984 502 1018 558 c 1,29,-1
 1062 618 l 1,30,-1
 864 618 l 1,31,32
 892 600 892 600 916 536 c 0,33,34
 926 508 926 508 932 476 c 128,-1,35
 938 444 938 444 938 414 c 2,36,-1
 938 198 l 2,37,38
 938 102 938 102 874 46 c 0,39,40
 810 -6 810 -6 718 -6 c 0,41,42
 630 -6 630 -6 566 46 c 128,-1,43
 502 98 502 98 502 182 c 2,44,-1
 502 424 l 2,45,46
 502 502 502 502 540 560 c 1,47,-1
 596 620 l 1,48,-1
 364 620 l 2,49,50
 272 620 272 620 214 512 c 1,51,52
 246 528 246 528 280 528 c 0,53,54
 348 528 348 528 403 472 c 128,-1,55
 458 416 458 416 458 330 c 2,56,-1
 458 180 l 2,57,58
 458 94 458 94 384 40 c 0,59,60
 320 -6 320 -6 238 -6 c 0,61,62
 154 -6 154 -6 92 52 c 128,-1,63
 30 110 30 110 30 214 c 2,64,-1
 30 420 l 2,65,66
 30 554 30 554 118 656 c 0,67,68
 214 764 214 764 354 764 c 2,69,-1
 530 764 l 2,70,71
 668 764 668 764 718 708 c 1,72,73
 728 718 728 718 780 742 c 1,74,75
 836 762 836 762 870 762 c 2,76,-1
 1024 762 l 2,77,78
 1132 762 1132 762 1200 706 c 1,79,80
 1256 762 1256 762 1354 762 c 2,81,-1
 1412 762 l 2,82,83
 1516 762 1516 762 1590 661 c 128,-1,84
 1664 560 1664 560 1664 436 c 2,85,-1
 1664 190 l 2,86,87
 1664 76 1664 76 1588 -62 c 1,88,-1
 1742 -62 l 1,89,-1
 1742 768 l 1,90,-1
 1918 768 l 1,91,-1
 1918 -204 l 1,0,-1
1230 178 m 2,92,-1
 1230 462 l 2,93,94
 1230 530 1230 530 1200 558 c 1,95,96
 1186 552 1186 552 1173 521 c 128,-1,97
 1160 490 1160 490 1160 468 c 2,98,-1
 1160 176 l 2,99,100
 1160 142 1160 142 1194 142 c 0,101,102
 1230 142 1230 142 1230 178 c 2,92,-1
760 190 m 2,103,-1
 760 484 l 2,104,105
 760 542 760 542 724 558 c 1,106,107
 684 552 684 552 684 486 c 2,108,-1
 684 188 l 2,109,110
 684 144 684 144 722 144 c 256,111,112
 760 144 760 144 760 190 c 2,103,-1
278 172 m 2,113,-1
 278 314 l 2,114,115
 278 344 278 344 244 344 c 0,116,117
 208 344 208 344 208 312 c 2,118,-1
 208 176 l 2,119,120
 208 146 208 146 242 146 c 0,121,122
 278 146 278 146 278 172 c 2,113,-1
1214 -204 m 1,123,-1
 160 -206 l 1,124,125
 198 -274 198 -274 366 -274 c 2,126,-1
 928 -274 l 2,127,128
 996 -274 996 -274 1064 -258 c 128,-1,129
 1132 -242 1132 -242 1214 -204 c 1,123,-1
EndSplineSet
Ligature2: "'psts' Post Base Substitutions lookup 7 subtable" tm_nna tm_ukaar
EndChar

StartChar: tm_t_ukaar
Encoding: 65591 -1 170
Width: 1214
GlyphClass: 2
Flags: W
LayerCount: 2
Fore
SplineSet
1174 -214 m 1,0,-1
 874 -214 l 1,1,2
 736 -434 736 -434 424 -434 c 0,3,4
 238 -434 238 -434 116 -366 c 128,-1,5
 -6 -298 -6 -298 -6 -194 c 0,6,7
 -6 -122 -6 -122 24 -96 c 128,-1,8
 54 -70 54 -70 120 -70 c 2,9,-1
 750 -70 l 1,10,-1
 750 234 l 1,11,-1
 748 306 l 1,12,13
 738 350 738 350 698 350 c 2,14,-1
 654 350 l 1,15,-1
 654 248 l 2,16,17
 654 0 654 0 312 0 c 0,18,19
 198 0 198 0 111 62 c 128,-1,20
 24 124 24 124 24 218 c 2,21,-1
 24 362 l 2,22,23
 24 408 24 408 55 454 c 128,-1,24
 86 500 86 500 144 500 c 1,25,-1
 172 496 l 1,26,-1
 172 768 l 1,27,-1
 856 768 l 1,28,-1
 856 620 l 1,29,-1
 656 620 l 1,30,-1
 656 498 l 1,31,-1
 734 498 l 2,32,33
 820 498 820 498 873 440 c 128,-1,34
 926 382 926 382 926 294 c 2,35,-1
 926 -70 l 1,36,-1
 998 -70 l 1,37,-1
 998 766 l 1,38,-1
 1174 766 l 1,39,-1
 1174 -214 l 1,0,-1
476 498 m 1,40,-1
 476 626 l 1,41,-1
 348 626 l 1,42,-1
 348 498 l 1,43,-1
 476 498 l 1,40,-1
476 236 m 2,44,-1
 476 354 l 1,45,-1
 212 354 l 1,46,-1
 212 222 l 2,47,48
 212 186 212 186 266 162 c 0,49,50
 306 144 306 144 340 144 c 0,51,52
 384 144 384 144 430 168 c 128,-1,53
 476 192 476 192 476 236 c 2,44,-1
678 -214 m 1,54,-1
 160 -214 l 1,55,56
 226 -284 226 -284 422 -284 c 0,57,58
 594 -284 594 -284 678 -214 c 1,54,-1
EndSplineSet
Ligature2: "'psts' Post Base Substitutions lookup 7 subtable" tm_ta tm_ukaar
EndChar

